<?xml version="1.0" encoding="UTF-8"?><svg id="Layer_1" xmlns="http://www.w3.org/2000/svg" width='20' height='20' viewBox="0 0 2000 2000"><defs><style>.cls-1{fill:#224099;}.cls-1,.cls-2,.cls-3{stroke-width:0px;}.cls-2,.cls-3{fill:#f6921e;}.cls-3{fill-rule:evenodd;}</style></defs><path class="cls-2" d="M999.34,19.74c270.41,0,515.28,109.67,692.55,286.94,177.23,177.26,286.91,422.11,286.91,692.52s-109.67,515.28-286.91,692.52c-177.26,177.26-422.14,286.94-692.55,286.94s-515.26-109.67-692.52-286.94C129.55,1514.48,19.91,1269.61,19.91,999.2S129.55,483.94,306.82,306.68,728.93,19.74,999.34,19.74h0Z"/><path class="cls-1" d="M1621.66,376.89c-159.25-159.28-379.28-257.83-622.31-257.83s-463.06,98.52-622.34,257.83C217.73,536.17,119.21,756.2,119.21,999.2s98.55,463.06,257.8,622.33c159.3,159.28,379.34,257.8,622.34,257.8s463.06-98.52,622.31-257.8c159.31-159.28,257.83-379.31,257.83-622.33s-98.52-463.03-257.83-622.31Z"/><polygon class="cls-3" points="508.02 791.15 836.38 1121.26 1491.77 462.42 1698.58 670.33 837.46 1535.98 300.11 997.97 508.02 791.15"/></svg>
