<?xml version="1.0" encoding="UTF-8"?><svg id="Layer_1" xmlns="http://www.w3.org/2000/svg" xmlns:xlink="http://www.w3.org/1999/xlink" viewBox="0 0 5000 5000"><defs><style>.cls-1{fill:none;}.cls-1,.cls-2,.cls-3,.cls-4,.cls-5,.cls-6,.cls-7,.cls-8,.cls-9,.cls-10,.cls-11,.cls-12,.cls-13,.cls-14,.cls-15,.cls-16,.cls-17,.cls-18,.cls-19,.cls-20,.cls-21,.cls-22,.cls-23,.cls-24,.cls-25,.cls-26,.cls-27,.cls-28,.cls-29,.cls-30,.cls-31,.cls-32,.cls-33,.cls-34,.cls-35,.cls-36,.cls-37,.cls-38,.cls-39,.cls-40,.cls-41,.cls-42,.cls-43,.cls-44,.cls-45,.cls-46,.cls-47,.cls-48,.cls-49,.cls-50,.cls-51,.cls-52,.cls-53,.cls-54,.cls-55,.cls-56,.cls-57,.cls-58,.cls-59,.cls-60,.cls-61,.cls-62,.cls-63,.cls-64,.cls-65,.cls-66,.cls-67,.cls-68{stroke-width:0px;}.cls-2{fill:url(#linear-gradient-57);filter:url(#drop-shadow-1);}.cls-3{fill:url(#linear-gradient);}.cls-4{fill:url(#radial-gradient);}.cls-5{fill:url(#linear-gradient-38);}.cls-6{fill:url(#linear-gradient-33);}.cls-7{fill:url(#linear-gradient-29);}.cls-8{fill:url(#linear-gradient-32);}.cls-9{fill:url(#linear-gradient-30);}.cls-10{fill:url(#linear-gradient-31);}.cls-11{fill:url(#linear-gradient-36);}.cls-12{fill:url(#linear-gradient-39);}.cls-13{fill:url(#linear-gradient-34);}.cls-14{fill:url(#linear-gradient-37);}.cls-15{fill:url(#linear-gradient-35);}.cls-16{fill:url(#linear-gradient-28);}.cls-17{fill:url(#linear-gradient-25);}.cls-18{fill:url(#linear-gradient-11);}.cls-19{fill:url(#linear-gradient-12);}.cls-20{fill:url(#linear-gradient-13);}.cls-21{fill:url(#linear-gradient-10);}.cls-22{fill:url(#linear-gradient-17);}.cls-23{fill:url(#linear-gradient-16);}.cls-24{fill:url(#linear-gradient-19);}.cls-25{fill:url(#linear-gradient-15);}.cls-26{fill:url(#linear-gradient-23);}.cls-27{fill:url(#linear-gradient-21);}.cls-28{fill:url(#linear-gradient-18);}.cls-29{fill:url(#linear-gradient-14);}.cls-30{fill:url(#linear-gradient-22);}.cls-31{fill:url(#linear-gradient-20);}.cls-32{fill:url(#linear-gradient-27);}.cls-33{fill:url(#linear-gradient-24);}.cls-34{fill:url(#linear-gradient-26);}.cls-35{fill:url(#linear-gradient-45);}.cls-36{fill:url(#linear-gradient-46);}.cls-37{fill:url(#linear-gradient-44);}.cls-38{fill:url(#linear-gradient-48);}.cls-39{fill:url(#linear-gradient-49);}.cls-40{fill:url(#linear-gradient-47);}.cls-41{fill:url(#linear-gradient-42);}.cls-42{fill:url(#linear-gradient-43);}.cls-43{fill:url(#linear-gradient-40);}.cls-44{fill:url(#linear-gradient-41);}.cls-45{fill:url(#linear-gradient-55);}.cls-46{fill:url(#linear-gradient-56);}.cls-47{fill:url(#linear-gradient-53);}.cls-48{fill:url(#linear-gradient-51);}.cls-49{fill:url(#linear-gradient-52);}.cls-50{fill:url(#linear-gradient-50);}.cls-51{fill:url(#linear-gradient-54);}.cls-52{fill:#110702;isolation:isolate;opacity:.7;}.cls-53{fill:url(#radial-gradient-2);}.cls-54{fill:url(#linear-gradient-4);}.cls-55{fill:url(#linear-gradient-2);}.cls-56{fill:url(#linear-gradient-3);}.cls-57{fill:url(#linear-gradient-8);}.cls-58{fill:url(#linear-gradient-9);}.cls-59{fill:url(#linear-gradient-7);}.cls-60{fill:url(#linear-gradient-5);}.cls-61{fill:url(#linear-gradient-6);}.cls-63{fill:#f7edc6;}.cls-64{fill:#492400;}.cls-65{fill:#1e0e08;}.cls-66{fill:#bf8524;}.cls-67{fill:#af5e15;}.cls-68{fill:#fdd24e;}</style><radialGradient id="radial-gradient" cx="954.23" cy="-21794.56" fx="954.23" fy="-21794.56" r="2802.99" gradientTransform="translate(1991.25 1278.91) scale(.54 -.12)" gradientUnits="userSpaceOnUse"><stop offset="0" stop-color="#000"/><stop offset=".11" stop-color="#323232"/><stop offset=".24" stop-color="#686868"/><stop offset=".37" stop-color="#969696"/><stop offset=".5" stop-color="#bcbcbc"/><stop offset=".63" stop-color="#d9d9d9"/><stop offset=".76" stop-color="#eee"/><stop offset=".88" stop-color="#fbfbfb"/><stop offset="1" stop-color="#fff"/></radialGradient><linearGradient id="linear-gradient" x1="2716.01" y1="1136.02" x2="905.51" y2="-1651.9" gradientTransform="translate(2757.69 508.94) rotate(90) scale(1 -1)" gradientUnits="userSpaceOnUse"><stop offset="0" stop-color="#4d0c0e"/><stop offset=".2" stop-color="#a66422"/><stop offset=".48" stop-color="#ffe666"/><stop offset=".86" stop-color="#a66422"/><stop offset="1" stop-color="#a66422"/></linearGradient><linearGradient id="linear-gradient-2" x1="2499.8" y1="4182.1" x2="2499.8" y2="1178.6" gradientTransform="translate(0 5000) scale(1 -1)" gradientUnits="userSpaceOnUse"><stop offset="0" stop-color="#ffed85"/><stop offset="1" stop-color="#e9a22c"/></linearGradient><linearGradient id="linear-gradient-3" x1="2499.8" y1="4073.6" x2="2499.8" y2="1353.97" gradientTransform="translate(0 5000) scale(1 -1)" gradientUnits="userSpaceOnUse"><stop offset="0" stop-color="#5a5a5a"/><stop offset="1" stop-color="#181818"/></linearGradient><linearGradient id="linear-gradient-4" x1="2499.8" y1="4073.6" x2="2499.8" y2="1353.97" gradientTransform="translate(0 5000) scale(1 -1)" gradientUnits="userSpaceOnUse"><stop offset="0" stop-color="#5a5a5a"/><stop offset="1" stop-color="#181818"/></linearGradient><linearGradient id="linear-gradient-5" x1="2499.8" y1="4027.56" x2="2499.8" y2="1344.96" gradientTransform="translate(0 5000) scale(1 -1)" gradientUnits="userSpaceOnUse"><stop offset="0" stop-color="#5a5a5a"/><stop offset=".21" stop-color="#505050"/><stop offset=".57" stop-color="#353535"/><stop offset=".89" stop-color="#181818"/></linearGradient><linearGradient id="linear-gradient-6" x1="2499.8" y1="3546.3" x2="2499.8" y2="1890.73" gradientTransform="translate(0 5000) scale(1 -1)" gradientUnits="userSpaceOnUse"><stop offset="0" stop-color="#ffed85"/><stop offset="1" stop-color="#f8dd7a"/></linearGradient><linearGradient id="linear-gradient-7" x1="2499.75" y1="3489" x2="2499.75" y2="1910.5" gradientTransform="translate(0 5000) scale(1 -1)" gradientUnits="userSpaceOnUse"><stop offset="0" stop-color="#5a5a5a"/><stop offset="1" stop-color="#181818"/></linearGradient><linearGradient id="linear-gradient-8" x1="2499.8" y1="1731.1" x2="2499.8" y2="3629.5" gradientTransform="translate(0 5000) scale(1 -1)" gradientUnits="userSpaceOnUse"><stop offset="0" stop-color="#6e2d0d"/><stop offset="1" stop-color="#d9b342"/></linearGradient><linearGradient id="linear-gradient-9" x1="2480.79" y1="3612.01" x2="2518.81" y2="1748.59" gradientTransform="translate(0 5000) scale(1 -1)" gradientUnits="userSpaceOnUse"><stop offset="0" stop-color="#fdd34d"/><stop offset="1" stop-color="#e9a22c"/></linearGradient><linearGradient id="linear-gradient-10" x1="2581.31" y1="1588.29" x2="2492.63" y2="1600.65" gradientTransform="translate(0 5000) scale(1 -1)" gradientUnits="userSpaceOnUse"><stop offset=".05" stop-color="#cc7c26"/><stop offset=".06" stop-color="#d0832d"/><stop offset=".09" stop-color="#da9841"/><stop offset=".12" stop-color="#ecb961"/><stop offset=".14" stop-color="#ffde84"/><stop offset=".23" stop-color="#efc067"/><stop offset=".34" stop-color="#dc9b44"/><stop offset=".44" stop-color="#d0842e"/><stop offset=".5" stop-color="#cc7c26"/><stop offset=".55" stop-color="#cf832c"/><stop offset=".63" stop-color="#d9983d"/><stop offset=".72" stop-color="#e8b959"/><stop offset=".83" stop-color="#fce780"/><stop offset=".84" stop-color="#ffed85"/></linearGradient><linearGradient id="linear-gradient-11" x1="2500.83" y1="1478.56" x2="2474.88" y2="1663.28" gradientTransform="translate(0 5000) scale(1 -1)" gradientUnits="userSpaceOnUse"><stop offset=".05" stop-color="#cc7c26"/><stop offset=".06" stop-color="#d0832d"/><stop offset=".09" stop-color="#da9841"/><stop offset=".12" stop-color="#ecb961"/><stop offset=".14" stop-color="#ffde84"/><stop offset=".23" stop-color="#efc067"/><stop offset=".34" stop-color="#dc9b44"/><stop offset=".44" stop-color="#d0842e"/><stop offset=".5" stop-color="#cc7c26"/><stop offset=".55" stop-color="#cf832c"/><stop offset=".63" stop-color="#d9983d"/><stop offset=".72" stop-color="#e8b959"/><stop offset=".83" stop-color="#fce780"/><stop offset=".84" stop-color="#ffed85"/></linearGradient><linearGradient id="linear-gradient-12" x1="2585.26" y1="1588.05" x2="2557.02" y2="1416.26" gradientTransform="translate(0 5000) scale(1 -1)" gradientUnits="userSpaceOnUse"><stop offset=".05" stop-color="#cc7c26"/><stop offset=".06" stop-color="#d0832d"/><stop offset=".09" stop-color="#da9841"/><stop offset=".12" stop-color="#ecb961"/><stop offset=".14" stop-color="#ffde84"/><stop offset=".23" stop-color="#efc067"/><stop offset=".34" stop-color="#dc9b44"/><stop offset=".44" stop-color="#d0842e"/><stop offset=".5" stop-color="#cc7c26"/><stop offset=".55" stop-color="#cf832c"/><stop offset=".63" stop-color="#d9983d"/><stop offset=".72" stop-color="#e8b959"/><stop offset=".83" stop-color="#fce780"/><stop offset=".84" stop-color="#ffed85"/></linearGradient><linearGradient id="linear-gradient-13" x1="2494.98" y1="1550.62" x2="2567.93" y2="1360.01" gradientTransform="translate(0 5000) scale(1 -1)" gradientUnits="userSpaceOnUse"><stop offset=".05" stop-color="#cc7c26"/><stop offset=".06" stop-color="#d0832d"/><stop offset=".09" stop-color="#da9841"/><stop offset=".12" stop-color="#ecb961"/><stop offset=".14" stop-color="#ffde84"/><stop offset=".23" stop-color="#efc067"/><stop offset=".34" stop-color="#dc9b44"/><stop offset=".44" stop-color="#d0842e"/><stop offset=".5" stop-color="#cc7c26"/><stop offset=".55" stop-color="#cf832c"/><stop offset=".63" stop-color="#d9983d"/><stop offset=".72" stop-color="#e8b959"/><stop offset=".83" stop-color="#fce780"/><stop offset=".84" stop-color="#ffed85"/></linearGradient><linearGradient id="linear-gradient-14" x1="2490.89" y1="1550.69" x2="2410.15" y2="1385.68" gradientTransform="translate(0 5000) scale(1 -1)" gradientUnits="userSpaceOnUse"><stop offset=".05" stop-color="#cc7c26"/><stop offset=".06" stop-color="#d0832d"/><stop offset=".09" stop-color="#da9841"/><stop offset=".12" stop-color="#ecb961"/><stop offset=".14" stop-color="#ffde84"/><stop offset=".23" stop-color="#efc067"/><stop offset=".34" stop-color="#dc9b44"/><stop offset=".44" stop-color="#d0842e"/><stop offset=".5" stop-color="#cc7c26"/><stop offset=".55" stop-color="#cf832c"/><stop offset=".63" stop-color="#d9983d"/><stop offset=".72" stop-color="#e8b959"/><stop offset=".83" stop-color="#fce780"/><stop offset=".84" stop-color="#ffed85"/></linearGradient><linearGradient id="linear-gradient-15" x1="2574.33" y1="1456.55" x2="2355.48" y2="1564.21" gradientTransform="translate(0 5000) scale(1 -1)" gradientUnits="userSpaceOnUse"><stop offset=".05" stop-color="#cc7c26"/><stop offset=".06" stop-color="#d0832d"/><stop offset=".09" stop-color="#da9841"/><stop offset=".12" stop-color="#ecb961"/><stop offset=".14" stop-color="#ffde84"/><stop offset=".23" stop-color="#efc067"/><stop offset=".34" stop-color="#dc9b44"/><stop offset=".44" stop-color="#d0842e"/><stop offset=".5" stop-color="#cc7c26"/><stop offset=".55" stop-color="#cf832c"/><stop offset=".63" stop-color="#d9983d"/><stop offset=".72" stop-color="#e8b959"/><stop offset=".83" stop-color="#fce780"/><stop offset=".84" stop-color="#ffed85"/></linearGradient><linearGradient id="linear-gradient-16" x1="2384.29" y1="1504.7" x2="2462.83" y2="1585" gradientTransform="translate(0 5000) scale(1 -1)" gradientUnits="userSpaceOnUse"><stop offset=".05" stop-color="#cc7c26"/><stop offset=".06" stop-color="#d0832d"/><stop offset=".09" stop-color="#da9841"/><stop offset=".12" stop-color="#ecb961"/><stop offset=".14" stop-color="#ffde84"/><stop offset=".23" stop-color="#efc067"/><stop offset=".34" stop-color="#dc9b44"/><stop offset=".44" stop-color="#d0842e"/><stop offset=".5" stop-color="#cc7c26"/><stop offset=".55" stop-color="#cf832c"/><stop offset=".63" stop-color="#d9983d"/><stop offset=".72" stop-color="#e8b959"/><stop offset=".83" stop-color="#fce780"/><stop offset=".84" stop-color="#ffed85"/></linearGradient><linearGradient id="linear-gradient-17" x1="2465.44" y1="1532.86" x2="2741.15" y2="1585.59" gradientTransform="translate(0 5000) scale(1 -1)" gradientUnits="userSpaceOnUse"><stop offset=".05" stop-color="#cc7c26"/><stop offset=".06" stop-color="#d0832d"/><stop offset=".09" stop-color="#da9841"/><stop offset=".12" stop-color="#ecb961"/><stop offset=".14" stop-color="#ffde84"/><stop offset=".23" stop-color="#efc067"/><stop offset=".34" stop-color="#dc9b44"/><stop offset=".44" stop-color="#d0842e"/><stop offset=".5" stop-color="#cc7c26"/><stop offset=".55" stop-color="#cf832c"/><stop offset=".63" stop-color="#d9983d"/><stop offset=".72" stop-color="#e8b959"/><stop offset=".83" stop-color="#fce780"/><stop offset=".84" stop-color="#ffed85"/></linearGradient><linearGradient id="linear-gradient-18" x1="2594.04" y1="1623.24" x2="2539.33" y2="1418.51" gradientTransform="translate(0 5000) scale(1 -1)" gradientUnits="userSpaceOnUse"><stop offset=".05" stop-color="#cc7c26"/><stop offset=".06" stop-color="#d0832d"/><stop offset=".09" stop-color="#da9841"/><stop offset=".12" stop-color="#ecb961"/><stop offset=".14" stop-color="#ffde84"/><stop offset=".23" stop-color="#efc067"/><stop offset=".34" stop-color="#dc9b44"/><stop offset=".44" stop-color="#d0842e"/><stop offset=".5" stop-color="#cc7c26"/><stop offset=".55" stop-color="#cf832c"/><stop offset=".63" stop-color="#d9983d"/><stop offset=".72" stop-color="#e8b959"/><stop offset=".83" stop-color="#fce780"/><stop offset=".84" stop-color="#ffed85"/></linearGradient><linearGradient id="linear-gradient-19" x1="2478.17" y1="1382.6" x2="2425.22" y2="1518.94" gradientTransform="translate(0 5000) scale(1 -1)" gradientUnits="userSpaceOnUse"><stop offset=".05" stop-color="#cc7c26"/><stop offset=".06" stop-color="#d0832d"/><stop offset=".09" stop-color="#da9841"/><stop offset=".12" stop-color="#ecb961"/><stop offset=".14" stop-color="#ffde84"/><stop offset=".23" stop-color="#efc067"/><stop offset=".34" stop-color="#dc9b44"/><stop offset=".44" stop-color="#d0842e"/><stop offset=".5" stop-color="#cc7c26"/><stop offset=".55" stop-color="#cf832c"/><stop offset=".63" stop-color="#d9983d"/><stop offset=".72" stop-color="#e8b959"/><stop offset=".83" stop-color="#fce780"/><stop offset=".84" stop-color="#ffed85"/></linearGradient><linearGradient id="linear-gradient-20" x1="6478.79" y1="2053.92" x2="6400.26" y2="2064.86" gradientTransform="translate(3201.51 9178.02) rotate(-69) scale(1 -1)" gradientUnits="userSpaceOnUse"><stop offset=".05" stop-color="#cc7c26"/><stop offset=".06" stop-color="#d0832d"/><stop offset=".09" stop-color="#da9841"/><stop offset=".12" stop-color="#ecb961"/><stop offset=".14" stop-color="#ffde84"/><stop offset=".23" stop-color="#efc067"/><stop offset=".34" stop-color="#dc9b44"/><stop offset=".44" stop-color="#d0842e"/><stop offset=".5" stop-color="#cc7c26"/><stop offset=".55" stop-color="#cf832c"/><stop offset=".63" stop-color="#d9983d"/><stop offset=".72" stop-color="#e8b959"/><stop offset=".83" stop-color="#fce780"/><stop offset=".84" stop-color="#ffed85"/></linearGradient><linearGradient id="linear-gradient-21" x1="6407.53" y1="1956.78" x2="6384.55" y2="2120.35" gradientTransform="translate(3201.51 9178.02) rotate(-69) scale(1 -1)" gradientUnits="userSpaceOnUse"><stop offset=".05" stop-color="#cc7c26"/><stop offset=".06" stop-color="#d0832d"/><stop offset=".09" stop-color="#da9841"/><stop offset=".12" stop-color="#ecb961"/><stop offset=".14" stop-color="#ffde84"/><stop offset=".23" stop-color="#efc067"/><stop offset=".34" stop-color="#dc9b44"/><stop offset=".44" stop-color="#d0842e"/><stop offset=".5" stop-color="#cc7c26"/><stop offset=".55" stop-color="#cf832c"/><stop offset=".63" stop-color="#d9983d"/><stop offset=".72" stop-color="#e8b959"/><stop offset=".83" stop-color="#fce780"/><stop offset=".84" stop-color="#ffed85"/></linearGradient><linearGradient id="linear-gradient-22" x1="6482.29" y1="2053.73" x2="6457.29" y2="1901.61" gradientTransform="translate(3201.51 9178.02) rotate(-69) scale(1 -1)" gradientUnits="userSpaceOnUse"><stop offset=".05" stop-color="#cc7c26"/><stop offset=".06" stop-color="#d0832d"/><stop offset=".09" stop-color="#da9841"/><stop offset=".12" stop-color="#ecb961"/><stop offset=".14" stop-color="#ffde84"/><stop offset=".23" stop-color="#efc067"/><stop offset=".34" stop-color="#dc9b44"/><stop offset=".44" stop-color="#d0842e"/><stop offset=".5" stop-color="#cc7c26"/><stop offset=".55" stop-color="#cf832c"/><stop offset=".63" stop-color="#d9983d"/><stop offset=".72" stop-color="#e8b959"/><stop offset=".83" stop-color="#fce780"/><stop offset=".84" stop-color="#ffed85"/></linearGradient><linearGradient id="linear-gradient-23" x1="6402.34" y1="2020.59" x2="6466.94" y2="1851.8" gradientTransform="translate(3201.51 9178.02) rotate(-69) scale(1 -1)" gradientUnits="userSpaceOnUse"><stop offset=".05" stop-color="#cc7c26"/><stop offset=".06" stop-color="#d0832d"/><stop offset=".09" stop-color="#da9841"/><stop offset=".12" stop-color="#ecb961"/><stop offset=".14" stop-color="#ffde84"/><stop offset=".23" stop-color="#efc067"/><stop offset=".34" stop-color="#dc9b44"/><stop offset=".44" stop-color="#d0842e"/><stop offset=".5" stop-color="#cc7c26"/><stop offset=".55" stop-color="#cf832c"/><stop offset=".63" stop-color="#d9983d"/><stop offset=".72" stop-color="#e8b959"/><stop offset=".83" stop-color="#fce780"/><stop offset=".84" stop-color="#ffed85"/></linearGradient><linearGradient id="linear-gradient-24" x1="6398.72" y1="2020.65" x2="6327.22" y2="1874.52" gradientTransform="translate(3201.51 9178.02) rotate(-69) scale(1 -1)" gradientUnits="userSpaceOnUse"><stop offset=".05" stop-color="#cc7c26"/><stop offset=".06" stop-color="#d0832d"/><stop offset=".09" stop-color="#da9841"/><stop offset=".12" stop-color="#ecb961"/><stop offset=".14" stop-color="#ffde84"/><stop offset=".23" stop-color="#efc067"/><stop offset=".34" stop-color="#dc9b44"/><stop offset=".44" stop-color="#d0842e"/><stop offset=".5" stop-color="#cc7c26"/><stop offset=".55" stop-color="#cf832c"/><stop offset=".63" stop-color="#d9983d"/><stop offset=".72" stop-color="#e8b959"/><stop offset=".83" stop-color="#fce780"/><stop offset=".84" stop-color="#ffed85"/></linearGradient><linearGradient id="linear-gradient-25" x1="6472.59" y1="1937.24" x2="6278.8" y2="2032.58" gradientTransform="translate(3201.51 9178.02) rotate(-69) scale(1 -1)" gradientUnits="userSpaceOnUse"><stop offset=".05" stop-color="#cc7c26"/><stop offset=".06" stop-color="#d0832d"/><stop offset=".09" stop-color="#da9841"/><stop offset=".12" stop-color="#ecb961"/><stop offset=".14" stop-color="#ffde84"/><stop offset=".23" stop-color="#efc067"/><stop offset=".34" stop-color="#dc9b44"/><stop offset=".44" stop-color="#d0842e"/><stop offset=".5" stop-color="#cc7c26"/><stop offset=".55" stop-color="#cf832c"/><stop offset=".63" stop-color="#d9983d"/><stop offset=".72" stop-color="#e8b959"/><stop offset=".83" stop-color="#fce780"/><stop offset=".84" stop-color="#ffed85"/></linearGradient><linearGradient id="linear-gradient-26" x1="6304.33" y1="1979.91" x2="6373.88" y2="2051.02" gradientTransform="translate(3201.51 9178.02) rotate(-69) scale(1 -1)" gradientUnits="userSpaceOnUse"><stop offset=".05" stop-color="#cc7c26"/><stop offset=".06" stop-color="#d0832d"/><stop offset=".09" stop-color="#da9841"/><stop offset=".12" stop-color="#ecb961"/><stop offset=".14" stop-color="#ffde84"/><stop offset=".23" stop-color="#efc067"/><stop offset=".34" stop-color="#dc9b44"/><stop offset=".44" stop-color="#d0842e"/><stop offset=".5" stop-color="#cc7c26"/><stop offset=".55" stop-color="#cf832c"/><stop offset=".63" stop-color="#d9983d"/><stop offset=".72" stop-color="#e8b959"/><stop offset=".83" stop-color="#fce780"/><stop offset=".84" stop-color="#ffed85"/></linearGradient><linearGradient id="linear-gradient-27" x1="6376.19" y1="2004.85" x2="6620.33" y2="2051.55" gradientTransform="translate(3201.51 9178.02) rotate(-69) scale(1 -1)" gradientUnits="userSpaceOnUse"><stop offset=".05" stop-color="#cc7c26"/><stop offset=".06" stop-color="#d0832d"/><stop offset=".09" stop-color="#da9841"/><stop offset=".12" stop-color="#ecb961"/><stop offset=".14" stop-color="#ffde84"/><stop offset=".23" stop-color="#efc067"/><stop offset=".34" stop-color="#dc9b44"/><stop offset=".44" stop-color="#d0842e"/><stop offset=".5" stop-color="#cc7c26"/><stop offset=".55" stop-color="#cf832c"/><stop offset=".63" stop-color="#d9983d"/><stop offset=".72" stop-color="#e8b959"/><stop offset=".83" stop-color="#fce780"/><stop offset=".84" stop-color="#ffed85"/></linearGradient><linearGradient id="linear-gradient-28" x1="6490.02" y1="2084.9" x2="6441.57" y2="1903.61" gradientTransform="translate(3201.51 9178.02) rotate(-69) scale(1 -1)" gradientUnits="userSpaceOnUse"><stop offset=".05" stop-color="#cc7c26"/><stop offset=".06" stop-color="#d0832d"/><stop offset=".09" stop-color="#da9841"/><stop offset=".12" stop-color="#ecb961"/><stop offset=".14" stop-color="#ffde84"/><stop offset=".23" stop-color="#efc067"/><stop offset=".34" stop-color="#dc9b44"/><stop offset=".44" stop-color="#d0842e"/><stop offset=".5" stop-color="#cc7c26"/><stop offset=".55" stop-color="#cf832c"/><stop offset=".63" stop-color="#d9983d"/><stop offset=".72" stop-color="#e8b959"/><stop offset=".83" stop-color="#fce780"/><stop offset=".84" stop-color="#ffed85"/></linearGradient><linearGradient id="linear-gradient-29" x1="6387.4" y1="1871.78" x2="6340.52" y2="1992.51" gradientTransform="translate(3201.51 9178.02) rotate(-69) scale(1 -1)" gradientUnits="userSpaceOnUse"><stop offset=".05" stop-color="#cc7c26"/><stop offset=".06" stop-color="#d0832d"/><stop offset=".09" stop-color="#da9841"/><stop offset=".12" stop-color="#ecb961"/><stop offset=".14" stop-color="#ffde84"/><stop offset=".23" stop-color="#efc067"/><stop offset=".34" stop-color="#dc9b44"/><stop offset=".44" stop-color="#d0842e"/><stop offset=".5" stop-color="#cc7c26"/><stop offset=".55" stop-color="#cf832c"/><stop offset=".63" stop-color="#d9983d"/><stop offset=".72" stop-color="#e8b959"/><stop offset=".83" stop-color="#fce780"/><stop offset=".84" stop-color="#ffed85"/></linearGradient><linearGradient id="linear-gradient-30" x1="9343.78" y1="-5409.02" x2="9265.24" y2="-5398.08" gradientTransform="translate(9788.49 9178.02) rotate(-111)" gradientUnits="userSpaceOnUse"><stop offset=".05" stop-color="#cc7c26"/><stop offset=".06" stop-color="#d0832d"/><stop offset=".09" stop-color="#da9841"/><stop offset=".12" stop-color="#ecb961"/><stop offset=".14" stop-color="#ffde84"/><stop offset=".23" stop-color="#efc067"/><stop offset=".34" stop-color="#dc9b44"/><stop offset=".44" stop-color="#d0842e"/><stop offset=".5" stop-color="#cc7c26"/><stop offset=".55" stop-color="#cf832c"/><stop offset=".63" stop-color="#d9983d"/><stop offset=".72" stop-color="#e8b959"/><stop offset=".83" stop-color="#fce780"/><stop offset=".84" stop-color="#ffed85"/></linearGradient><linearGradient id="linear-gradient-31" x1="9272.49" y1="-5506.23" x2="9249.51" y2="-5342.66" gradientTransform="translate(9788.49 9178.02) rotate(-111)" gradientUnits="userSpaceOnUse"><stop offset=".05" stop-color="#cc7c26"/><stop offset=".06" stop-color="#d0832d"/><stop offset=".09" stop-color="#da9841"/><stop offset=".12" stop-color="#ecb961"/><stop offset=".14" stop-color="#ffde84"/><stop offset=".23" stop-color="#efc067"/><stop offset=".34" stop-color="#dc9b44"/><stop offset=".44" stop-color="#d0842e"/><stop offset=".5" stop-color="#cc7c26"/><stop offset=".55" stop-color="#cf832c"/><stop offset=".63" stop-color="#d9983d"/><stop offset=".72" stop-color="#e8b959"/><stop offset=".83" stop-color="#fce780"/><stop offset=".84" stop-color="#ffed85"/></linearGradient><linearGradient id="linear-gradient-32" x1="9347.26" y1="-5409.28" x2="9322.25" y2="-5561.4" gradientTransform="translate(9788.49 9178.02) rotate(-111)" gradientUnits="userSpaceOnUse"><stop offset=".05" stop-color="#cc7c26"/><stop offset=".06" stop-color="#d0832d"/><stop offset=".09" stop-color="#da9841"/><stop offset=".12" stop-color="#ecb961"/><stop offset=".14" stop-color="#ffde84"/><stop offset=".23" stop-color="#efc067"/><stop offset=".34" stop-color="#dc9b44"/><stop offset=".44" stop-color="#d0842e"/><stop offset=".5" stop-color="#cc7c26"/><stop offset=".55" stop-color="#cf832c"/><stop offset=".63" stop-color="#d9983d"/><stop offset=".72" stop-color="#e8b959"/><stop offset=".83" stop-color="#fce780"/><stop offset=".84" stop-color="#ffed85"/></linearGradient><linearGradient id="linear-gradient-33" x1="9267.32" y1="-5442.42" x2="9331.92" y2="-5611.21" gradientTransform="translate(9788.49 9178.02) rotate(-111)" gradientUnits="userSpaceOnUse"><stop offset=".05" stop-color="#cc7c26"/><stop offset=".06" stop-color="#d0832d"/><stop offset=".09" stop-color="#da9841"/><stop offset=".12" stop-color="#ecb961"/><stop offset=".14" stop-color="#ffde84"/><stop offset=".23" stop-color="#efc067"/><stop offset=".34" stop-color="#dc9b44"/><stop offset=".44" stop-color="#d0842e"/><stop offset=".5" stop-color="#cc7c26"/><stop offset=".55" stop-color="#cf832c"/><stop offset=".63" stop-color="#d9983d"/><stop offset=".72" stop-color="#e8b959"/><stop offset=".83" stop-color="#fce780"/><stop offset=".84" stop-color="#ffed85"/></linearGradient><linearGradient id="linear-gradient-34" x1="9263.68" y1="-5442.35" x2="9192.18" y2="-5588.48" gradientTransform="translate(9788.49 9178.02) rotate(-111)" gradientUnits="userSpaceOnUse"><stop offset=".05" stop-color="#cc7c26"/><stop offset=".06" stop-color="#d0832d"/><stop offset=".09" stop-color="#da9841"/><stop offset=".12" stop-color="#ecb961"/><stop offset=".14" stop-color="#ffde84"/><stop offset=".23" stop-color="#efc067"/><stop offset=".34" stop-color="#dc9b44"/><stop offset=".44" stop-color="#d0842e"/><stop offset=".5" stop-color="#cc7c26"/><stop offset=".55" stop-color="#cf832c"/><stop offset=".63" stop-color="#d9983d"/><stop offset=".72" stop-color="#e8b959"/><stop offset=".83" stop-color="#fce780"/><stop offset=".84" stop-color="#ffed85"/></linearGradient><linearGradient id="linear-gradient-35" x1="9337.58" y1="-5525.75" x2="9143.78" y2="-5430.42" gradientTransform="translate(9788.49 9178.02) rotate(-111)" gradientUnits="userSpaceOnUse"><stop offset=".05" stop-color="#cc7c26"/><stop offset=".06" stop-color="#d0832d"/><stop offset=".09" stop-color="#da9841"/><stop offset=".12" stop-color="#ecb961"/><stop offset=".14" stop-color="#ffde84"/><stop offset=".23" stop-color="#efc067"/><stop offset=".34" stop-color="#dc9b44"/><stop offset=".44" stop-color="#d0842e"/><stop offset=".5" stop-color="#cc7c26"/><stop offset=".55" stop-color="#cf832c"/><stop offset=".63" stop-color="#d9983d"/><stop offset=".72" stop-color="#e8b959"/><stop offset=".83" stop-color="#fce780"/><stop offset=".84" stop-color="#ffed85"/></linearGradient><linearGradient id="linear-gradient-36" x1="9169.29" y1="-5483.09" x2="9238.84" y2="-5411.97" gradientTransform="translate(9788.49 9178.02) rotate(-111)" gradientUnits="userSpaceOnUse"><stop offset=".05" stop-color="#cc7c26"/><stop offset=".06" stop-color="#d0832d"/><stop offset=".09" stop-color="#da9841"/><stop offset=".12" stop-color="#ecb961"/><stop offset=".14" stop-color="#ffde84"/><stop offset=".23" stop-color="#efc067"/><stop offset=".34" stop-color="#dc9b44"/><stop offset=".44" stop-color="#d0842e"/><stop offset=".5" stop-color="#cc7c26"/><stop offset=".55" stop-color="#cf832c"/><stop offset=".63" stop-color="#d9983d"/><stop offset=".72" stop-color="#e8b959"/><stop offset=".83" stop-color="#fce780"/><stop offset=".84" stop-color="#ffed85"/></linearGradient><linearGradient id="linear-gradient-37" x1="9241.16" y1="-5458.13" x2="9485.3" y2="-5411.44" gradientTransform="translate(9788.49 9178.02) rotate(-111)" gradientUnits="userSpaceOnUse"><stop offset=".05" stop-color="#cc7c26"/><stop offset=".06" stop-color="#d0832d"/><stop offset=".09" stop-color="#da9841"/><stop offset=".12" stop-color="#ecb961"/><stop offset=".14" stop-color="#ffde84"/><stop offset=".23" stop-color="#efc067"/><stop offset=".34" stop-color="#dc9b44"/><stop offset=".44" stop-color="#d0842e"/><stop offset=".5" stop-color="#cc7c26"/><stop offset=".55" stop-color="#cf832c"/><stop offset=".63" stop-color="#d9983d"/><stop offset=".72" stop-color="#e8b959"/><stop offset=".83" stop-color="#fce780"/><stop offset=".84" stop-color="#ffed85"/></linearGradient><linearGradient id="linear-gradient-38" x1="9354.98" y1="-5378.11" x2="9306.54" y2="-5559.4" gradientTransform="translate(9788.49 9178.02) rotate(-111)" gradientUnits="userSpaceOnUse"><stop offset=".05" stop-color="#cc7c26"/><stop offset=".06" stop-color="#d0832d"/><stop offset=".09" stop-color="#da9841"/><stop offset=".12" stop-color="#ecb961"/><stop offset=".14" stop-color="#ffde84"/><stop offset=".23" stop-color="#efc067"/><stop offset=".34" stop-color="#dc9b44"/><stop offset=".44" stop-color="#d0842e"/><stop offset=".5" stop-color="#cc7c26"/><stop offset=".55" stop-color="#cf832c"/><stop offset=".63" stop-color="#d9983d"/><stop offset=".72" stop-color="#e8b959"/><stop offset=".83" stop-color="#fce780"/><stop offset=".84" stop-color="#ffed85"/></linearGradient><linearGradient id="linear-gradient-39" x1="9252.38" y1="-5591.23" x2="9205.49" y2="-5470.5" gradientTransform="translate(9788.49 9178.02) rotate(-111)" gradientUnits="userSpaceOnUse"><stop offset=".05" stop-color="#cc7c26"/><stop offset=".06" stop-color="#d0832d"/><stop offset=".09" stop-color="#da9841"/><stop offset=".12" stop-color="#ecb961"/><stop offset=".14" stop-color="#ffde84"/><stop offset=".23" stop-color="#efc067"/><stop offset=".34" stop-color="#dc9b44"/><stop offset=".44" stop-color="#d0842e"/><stop offset=".5" stop-color="#cc7c26"/><stop offset=".55" stop-color="#cf832c"/><stop offset=".63" stop-color="#d9983d"/><stop offset=".72" stop-color="#e8b959"/><stop offset=".83" stop-color="#fce780"/><stop offset=".84" stop-color="#ffed85"/></linearGradient><linearGradient id="linear-gradient-40" x1="3787.92" y1="1599.1" x2="4419.46" y2="1459.23" gradientTransform="translate(0 5000) scale(1 -1)" gradientUnits="userSpaceOnUse"><stop offset="0" stop-color="#181818"/><stop offset="1" stop-color="#5a5a5a"/></linearGradient><linearGradient id="linear-gradient-41" x1="4129.21" y1="1923.37" x2="4129.21" y2="1185.17" gradientTransform="translate(3.59 5154.77) rotate(-1.82) scale(1 -1)" gradientUnits="userSpaceOnUse"><stop offset="0" stop-color="#ffed85"/><stop offset="1" stop-color="#e9a22c"/></linearGradient><linearGradient id="linear-gradient-42" x1="4117.56" y1="1193.34" x2="4140.41" y2="1914.18" gradientTransform="translate(3.59 5154.77) rotate(-1.82) scale(1 -1)" gradientUnits="userSpaceOnUse"><stop offset=".01" stop-color="#bb4d16"/><stop offset=".8" stop-color="#fdd34d"/><stop offset="1" stop-color="#fdd34d"/></linearGradient><linearGradient id="linear-gradient-43" x1="1205.89" y1="1598.45" x2="645.24" y2="1472.73" gradientTransform="translate(0 5000) scale(1 -1)" gradientUnits="userSpaceOnUse"><stop offset="0" stop-color="#181818"/><stop offset="1" stop-color="#5a5a5a"/></linearGradient><linearGradient id="linear-gradient-44" x1="930.23" y1="1898.45" x2="907.05" y2="1160.76" gradientTransform="translate(0 5000) scale(1 -1)" gradientUnits="userSpaceOnUse"><stop offset="0" stop-color="#ffed85"/><stop offset="1" stop-color="#e9a22c"/></linearGradient><linearGradient id="linear-gradient-45" x1="918.08" y1="1168.3" x2="918.08" y2="1889.05" gradientTransform="translate(0 5000) scale(1 -1)" gradientUnits="userSpaceOnUse"><stop offset=".01" stop-color="#bb4d16"/><stop offset=".8" stop-color="#fdd34d"/><stop offset="1" stop-color="#fdd34d"/></linearGradient><radialGradient id="radial-gradient-2" cx="3536.13" cy="-6177.59" fx="3536.13" fy="-6177.59" r="935.78" gradientTransform="translate(-4356.55 -2937.12) scale(1.94 -.97)" gradientUnits="userSpaceOnUse"><stop offset="0" stop-color="#5a5a5a"/><stop offset=".22" stop-color="#525252"/><stop offset=".57" stop-color="#3c3c3c"/><stop offset="1" stop-color="#181818"/><stop offset="1" stop-color="#181818"/></radialGradient><linearGradient id="linear-gradient-46" x1="2499.9" y1="2249.6" x2="2499.9" y2="1456.5" gradientTransform="translate(0 5000) scale(1 -1)" gradientUnits="userSpaceOnUse"><stop offset="0" stop-color="#ffed85"/><stop offset="1" stop-color="#e9a22c"/></linearGradient><linearGradient id="linear-gradient-47" x1="2499.9" y1="2249.6" x2="2499.9" y2="1456.5" gradientTransform="translate(0 5000) scale(1 -1)" gradientUnits="userSpaceOnUse"><stop offset="0" stop-color="#fdd34d"/><stop offset=".2" stop-color="#fdd34d"/><stop offset=".99" stop-color="#bb4d16"/></linearGradient><linearGradient id="linear-gradient-48" x1="1435.47" y1="2118.55" x2="1435.47" y2="1125.2" gradientTransform="translate(0 5000) scale(1 -1)" gradientUnits="userSpaceOnUse"><stop offset="0" stop-color="#fdd34d"/><stop offset=".2" stop-color="#fdd34d"/><stop offset=".99" stop-color="#bb4d16"/></linearGradient><linearGradient id="linear-gradient-49" x1="1715.82" y1="2118.55" x2="1715.82" y2="1125.2" gradientTransform="translate(0 5000) scale(1 -1)" gradientUnits="userSpaceOnUse"><stop offset="0" stop-color="#fdd34d"/><stop offset=".2" stop-color="#fdd34d"/><stop offset=".99" stop-color="#bb4d16"/></linearGradient><linearGradient id="linear-gradient-50" x1="2016.7" y1="2118.55" x2="2016.7" y2="1125.2" gradientTransform="translate(0 5000) scale(1 -1)" gradientUnits="userSpaceOnUse"><stop offset="0" stop-color="#fdd34d"/><stop offset=".2" stop-color="#fdd34d"/><stop offset=".99" stop-color="#bb4d16"/></linearGradient><linearGradient id="linear-gradient-51" x1="2281.8" y1="2118.55" x2="2281.8" y2="1125.2" gradientTransform="translate(0 5000) scale(1 -1)" gradientUnits="userSpaceOnUse"><stop offset="0" stop-color="#fdd34d"/><stop offset=".2" stop-color="#fdd34d"/><stop offset=".99" stop-color="#bb4d16"/></linearGradient><linearGradient id="linear-gradient-52" x1="2562.35" y1="2118.55" x2="2562.35" y2="1125.2" gradientTransform="translate(0 5000) scale(1 -1)" gradientUnits="userSpaceOnUse"><stop offset="0" stop-color="#fdd34d"/><stop offset=".2" stop-color="#fdd34d"/><stop offset=".99" stop-color="#bb4d16"/></linearGradient><linearGradient id="linear-gradient-53" x1="2847.3" y1="2118.55" x2="2847.3" y2="1125.2" gradientTransform="translate(0 5000) scale(1 -1)" gradientUnits="userSpaceOnUse"><stop offset="0" stop-color="#fdd34d"/><stop offset=".2" stop-color="#fdd34d"/><stop offset=".99" stop-color="#bb4d16"/></linearGradient><linearGradient id="linear-gradient-54" x1="3126.7" y1="2118.55" x2="3126.7" y2="1125.2" gradientTransform="translate(0 5000) scale(1 -1)" gradientUnits="userSpaceOnUse"><stop offset="0" stop-color="#fdd34d"/><stop offset=".2" stop-color="#fdd34d"/><stop offset=".99" stop-color="#bb4d16"/></linearGradient><linearGradient id="linear-gradient-55" x1="3355.55" y1="2118.55" x2="3355.55" y2="1125.2" gradientTransform="translate(0 5000) scale(1 -1)" gradientUnits="userSpaceOnUse"><stop offset="0" stop-color="#fdd34d"/><stop offset=".2" stop-color="#fdd34d"/><stop offset=".99" stop-color="#bb4d16"/></linearGradient><linearGradient id="linear-gradient-56" x1="3581.55" y1="2118.55" x2="3581.55" y2="1125.2" gradientTransform="translate(0 5000) scale(1 -1)" gradientUnits="userSpaceOnUse"><stop offset="0" stop-color="#fdd34d"/><stop offset=".2" stop-color="#fdd34d"/><stop offset=".99" stop-color="#bb4d16"/></linearGradient><linearGradient id="linear-gradient-57" x1="2536.6" y1="1992.82" x2="2536.6" y2="3426.88" gradientUnits="userSpaceOnUse"><stop offset="0" stop-color="#ffed85"/><stop offset=".32" stop-color="#e9a22c"/><stop offset=".57" stop-color="#e6d578"/><stop offset=".65" stop-color="#b66900"/><stop offset=".83" stop-color="#e9a22c"/><stop offset="1" stop-color="#ffed85"/></linearGradient><filter id="drop-shadow-1" filterUnits="userSpaceOnUse"><feOffset dx="8" dy="24"/><feGaussianBlur result="blur" stdDeviation="0"/><feFlood flood-color="#000" flood-opacity=".75"/><feComposite in2="blur" operator="in"/><feComposite in="SourceGraphic"/></filter></defs><g id="_08"><ellipse id="Shadow" class="cls-4" cx="2499.8" cy="3980.6" rx="1497.6" ry="358.7"/><polygon class="cls-3" points="4162.6 2319.7 3989.3 2421.6 4147.1 2546.1 3961.6 2623.4 4101 2768.3 3906.6 2819.7 4025 2982.2 3825.4 3006.6 3920.5 3183.7 3719.5 3180.7 3789.7 3369.1 3590.9 3338.8 3634.8 3535 3442 3477.8 3458.7 3678.2 3275.5 3595.4 3264.8 3796.1 3094.6 3689.1 3056.6 3886.5 2902.6 3757.3 2838.1 3947.8 2703.1 3798.8 2613.2 3978.7 2499.8 3812.7 2386.3 3978.7 2296.5 3798.8 2161.4 3947.8 2096.9 3757.3 1942.9 3886.5 1904.9 3689.1 1734.7 3796.1 1724 3595.4 1540.8 3678.2 1557.5 3477.8 1364.8 3535 1408.6 3338.8 1209.9 3369.1 1280 3180.7 1079 3183.7 1174.1 3006.6 974.6 2982.2 1092.9 2819.7 898.6 2768.3 1038 2623.4 852.4 2546.1 1010.2 2421.6 836.9 2319.7 1010.2 2217.8 852.4 2093.2 1038 2015.9 898.6 1871 1092.9 1819.7 974.6 1657.2 1174.1 1632.8 1079 1455.7 1280 1458.7 1209.9 1270.3 1408.6 1300.6 1364.8 1104.4 1557.5 1161.5 1540.8 961.2 1724 1044 1734.7 843.2 1904.9 950.2 1942.9 752.8 2096.9 882 2161.4 691.6 2296.5 840.5 2386.3 660.7 2499.8 826.6 2613.2 660.7 2703.1 840.5 2838.1 691.6 2902.6 882 3056.6 752.8 3094.6 950.2 3264.8 843.2 3275.5 1044 3458.7 961.2 3442 1161.5 3634.8 1104.4 3590.9 1300.6 3789.7 1270.3 3719.5 1458.7 3920.5 1455.7 3825.4 1632.8 4025 1657.2 3906.6 1819.7 4101 1871 3961.6 2015.9 4147.1 2093.2 3989.3 2217.8 4162.6 2319.7"/><path class="cls-55" d="m2499.8,3821.4c-401.1,0-778.3-156.2-1061.9-439.9-283.7-283.6-439.9-660.7-439.9-1061.8s156.2-778.3,439.9-1061.9c283.6-283.6,660.8-439.9,1061.9-439.9s778.3,156.2,1061.9,439.9c283.6,283.6,439.9,660.8,439.9,1061.9s-156.2,778.3-439.9,1061.9c-283.7,283.6-660.8,439.8-1061.9,439.8Z"/><path class="cls-67" d="m3818.2,2784c51.1-145.3,79-301.6,79-464.4,0-771.8-625.7-1397.5-1397.4-1397.5s-1397.5,625.7-1397.5,1397.5c0,162.8,27.9,319.1,79,464.4-57.3-152.2-88.6-316.9-88.6-488.9,0-771.8,629.9-1397.5,1407-1397.5s1407,625.7,1407,1397.5c.1,172-31.2,336.8-88.5,488.9Z"/><path class="cls-63" d="m3995.8,2319.7c0,6.7-.1,13.5-.1,20.2-10.9-817-676.5-1475.9-1495.9-1475.9s-1485,658.9-1495.9,1475.8c-.1-6.7-.1-13.4-.1-20.2,0-826.2,669.8-1496,1496-1496s1496,669.9,1496,1496.1Z"/><path class="cls-67" d="m3899.5,2329.5c0,780-626.7,1412.4-1399.7,1412.4s-1399.7-632.4-1399.7-1412.4c0-2.1,0-4.3.1-6.4,3.4,770.1,628.8,1393.4,1399.6,1393.4s1396.2-623.3,1399.6-1393.4c.1,2.2.1,4.3.1,6.4Z"/><g id="figure_02"><circle class="cls-56" cx="2499.8" cy="2319.7" r="1397.4"/><path class="cls-54" d="m2499.8,3685.5c-364.8,0-707.8-142.1-965.8-400.1s-400.1-601-400.1-965.8,142.1-707.8,400.1-965.8,601-400.1,965.8-400.1,707.8,142.1,965.8,400.1,400.1,601,400.1,965.8-142.1,707.8-400.1,965.8c-258,258.1-601,400.1-965.8,400.1Zm0-2344.4c-539.6,0-978.6,439-978.6,978.6s439,978.6,978.6,978.6,978.6-439,978.6-978.6-439-978.6-978.6-978.6Z"/><circle class="cls-62" cx="2499.78" cy="2319.67" r="1397.39"/><path class="cls-60" d="m2499.8,3685.5c-364.8,0-707.8-142.1-965.8-400.1s-400.1-601-400.1-965.8,142.1-707.8,400.1-965.8,601-400.1,965.8-400.1,707.8,142.1,965.8,400.1,400.1,601,400.1,965.8-142.1,707.8-400.1,965.8c-258,258.1-601,400.1-965.8,400.1Zm0-2344.4c-539.6,0-978.6,439-978.6,978.6s439,978.6,978.6,978.6,978.6-439,978.6-978.6-439-978.6-978.6-978.6Z"/></g><g id="figure_01"><path class="cls-61" d="m2499.8,1441.2c-485.1,0-878.4,393.3-878.4,878.4s393.3,878.5,878.4,878.5,878.4-393.3,878.4-878.5c0-485.1-393.3-878.4-878.4-878.4Zm808.4,1066.3l-34.3,48.8,1.2,59.6-40.5,43.7-7,59.2-46.1,37.7-15.1,57.7-50.8,31.1-22.7,55.1-54.6,23.9-30,51.5-57.3,16.2-36.7,46.9-59,8.2-42.7,41.5-59.6.2-48,35.3-59-7.9-52.4,28.4-57.4-15.9-55.8,20.9-54.7-23.5-58.1,13.2-50.9-30.8-59.4,5.1-46.3-37.4-59.5-2.9-40.8-43.4-58.6-11.1-34.5-48.6-56.5-18.9-27.6-52.8-53.4-26.5-20.1-56-49.2-33.4-12.3-58.3-44.3-39.8-4.2-59.4-38.5-45.5,3.9-59.5-31.9-50.3,12-58.4-24.7-54.2,19.7-56.2-17.1-57.1,27.3-53-9.2-58.8,34.3-48.8-1.2-59.6,40.5-43.7,7-59.2,46.1-37.7,15.1-57.7,50.8-31.1,22.7-55,54.6-23.9,30-51.5,57.3-16.2,36.7-46.9,59-8.3,42.7-41.5,59.6-.2,48-35.2,59,7.9,52.4-28.4,57.4,15.9,55.8-20.9,54.7,23.5,58.1-13.2,51,30.8,59.4-5.1,46.3,37.5,59.5,2.9,40.8,43.4,58.6,11.1,34.5,48.6,56.5,18.9,27.6,52.8,53.4,26.4,20.1,56.1,49.2,33.4,12.3,58.2,44.3,39.8,4.2,59.5,38.5,45.5-3.9,59.5,31.9,50.3-12,58.4,24.7,54.2-19.7,56.2,17.1,57-27.3,53,9.1,58.7Z"/><polygon class="cls-59" points="2427.3 3107.7 2370.5 3120.6 2320.8 3090.5 2262.7 3095.6 2217.4 3059 2159.2 3056.1 2119.4 3013.7 2062.1 3002.8 2028.4 2955.4 1973.2 2936.9 1946.2 2885.3 1894 2859.4 1874.4 2804.6 1826.2 2772 1814.1 2715 1770.9 2676 1766.7 2618 1729.2 2573.5 1733 2515.4 1701.8 2466.1 1713.5 2409.1 1689.3 2356.1 1708.6 2301.2 1691.8 2245.4 1718.5 2193.6 1709.5 2136.1 1743 2088.4 1741.8 2030.2 1781.5 1987.5 1788.3 1929.7 1833.4 1892.8 1848.1 1836.4 1897.7 1806 1920 1752.2 1973.3 1728.8 2002.6 1678.5 2058.6 1662.7 2094.5 1616.8 2152.2 1608.7 2194 1568.2 2252.2 1568 2299.2 1533.6 2356.9 1541.3 2408.1 1513.5 2464.2 1529.1 2518.8 1508.6 2572.2 1531.6 2629 1518.7 2678.8 1548.8 2736.8 1543.8 2782.1 1580.4 2840.3 1583.3 2880.1 1625.7 2937.4 1636.5 2971.1 1684 3026.4 1702.5 3053.3 1754.1 3105.5 1779.9 3125.2 1834.8 3173.3 1867.5 3185.4 1924.4 3228.7 1963.3 3232.8 2021.5 3270.4 2065.9 3266.5 2124.1 3297.8 2173.2 3286.1 2230.2 3310.2 2283.2 3291 2338.2 3307.7 2393.9 3281 2445.7 3290.1 2503.2 3256.6 2550.9 3257.7 2609.2 3218.1 2651.8 3211.2 2709.7 3166.2 2746.5 3151.5 2802.9 3101.8 2833.3 3079.6 2887.2 3026.2 2910.5 2996.9 2960.8 2940.9 2976.7 2905 3022.6 2847.3 3030.6 2805.6 3071.2 2747.3 3071.3 2700.3 3105.8 2642.6 3098.1 2591.4 3125.8 2535.3 3110.3 2480.8 3130.7 2427.3 3107.7"/><path class="cls-57" d="m2499.8,3268.9c-523.4,0-949.2-425.8-949.2-949.2s425.8-949.2,949.2-949.2,949.2,425.8,949.2,949.2-425.8,949.2-949.2,949.2Zm0-1777.3c-456.6,0-828.1,371.5-828.1,828.1s371.5,828.1,828.1,828.1,828.1-371.5,828.1-828.1c-.1-456.6-371.5-828.1-828.1-828.1Z"/><path class="cls-58" d="m2499.8,3251.6c-513.8,0-931.9-418-931.9-931.9s418-931.9,931.9-931.9,931.9,418,931.9,931.9-418.1,931.9-931.9,931.9Zm0-1777.3c-466.1,0-845.4,379.2-845.4,845.4s379.2,845.4,845.4,845.4,845.4-379.2,845.4-845.4c-.1-466.2-379.3-845.4-845.4-845.4Z"/><path class="cls-66" d="m3345.1,2300.4c0,2.8,0,5.5-.1,8.3-5.9-461.1-382.8-834.5-845.3-834.5s-839.4,373.3-845.3,834.5c-.1-2.8-.1-5.5-.1-8.3,0-466.2,379.2-837,845.4-837s845.4,370.8,845.4,837Z"/><path class="cls-63" d="m3431.6,2319.6c0,4.8-.1,9.6-.1,14.4-7.7-507.2-422.7-929.8-931.7-929.8s-924,422.6-931.8,929.8c-.1-4.8-.1-9.6-.1-14.4,0-513.9,418-931.9,931.9-931.9s931.8,418.1,931.8,931.9Z"/></g><g id="star"><polygon class="cls-65" points="2655.9 3455.8 2536.6 3455.8 2499.8 3342.4 2462.9 3455.8 2343.6 3455.8 2440.1 3526 2403.3 3639.4 2499.8 3569.3 2596.3 3639.4 2559.4 3526 2655.9 3455.8"/><polygon class="cls-21" points="2536.6 3439.5 2499.8 3474.6 2499.8 3326.1 2536.6 3439.5"/><polygon class="cls-18" points="2499.8 3326.1 2499.8 3474.6 2462.9 3439.5 2499.8 3326.1"/><polygon class="cls-19" points="2655.9 3439.5 2559.4 3509.6 2499.8 3474.6 2655.9 3439.5"/><polygon class="cls-20" points="2596.3 3623.1 2499.8 3553 2499.8 3474.6 2596.3 3623.1"/><polygon class="cls-29" points="2499.8 3474.6 2403.3 3623.1 2440.1 3509.6 2499.8 3474.6"/><polygon class="cls-25" points="2499.8 3474.6 2440.1 3509.6 2343.6 3439.5 2499.8 3474.6"/><polygon class="cls-23" points="2499.8 3474.6 2343.6 3439.5 2462.9 3439.5 2499.8 3474.6"/><polygon class="cls-22" points="2655.9 3439.5 2499.8 3474.6 2536.6 3439.5 2655.9 3439.5"/><polygon class="cls-28" points="2596.3 3623.1 2499.8 3474.6 2559.4 3509.6 2596.3 3623.1"/><polygon class="cls-24" points="2499.8 3474.6 2499.8 3553 2403.3 3623.1 2499.8 3474.6"/><polygon class="cls-65" points="3666.1 2345.6 3628.3 2444.2 3522.8 2438.7 3604.9 2505.2 3567 2603.8 3655.6 2546.3 3737.7 2612.8 3710.4 2510.7 3799 2453.2 3693.5 2447.7 3666.1 2345.6"/><polygon class="cls-31" points="3614.7 2439.1 3632.1 2480.7 3509.3 2433.5 3614.7 2439.1"/><polygon class="cls-27" points="3509.3 2433.5 3632.1 2480.7 3591.4 2500 3509.3 2433.5"/><polygon class="cls-30" points="3652.6 2340.4 3680 2442.5 3632.1 2480.7 3652.6 2340.4"/><polygon class="cls-26" points="3785.4 2448 3696.9 2505.5 3632.1 2480.7 3785.4 2448"/><polygon class="cls-33" points="3632.1 2480.7 3724.2 2607.6 3642.1 2541.1 3632.1 2480.7"/><polygon class="cls-17" points="3632.1 2480.7 3642.1 2541.1 3553.5 2598.6 3632.1 2480.7"/><polygon class="cls-34" points="3632.1 2480.7 3553.5 2598.6 3591.4 2500 3632.1 2480.7"/><polygon class="cls-32" points="3652.6 2340.4 3632.1 2480.7 3614.7 2439.1 3652.6 2340.4"/><polygon class="cls-16" points="3785.4 2448 3632.1 2480.7 3680 2442.5 3785.4 2448"/><polygon class="cls-7" points="3632.1 2480.7 3696.9 2505.5 3724.2 2607.6 3632.1 2480.7"/><polygon class="cls-65" points="1329.6 2345.6 1367.5 2444.2 1473 2438.7 1390.9 2505.2 1428.7 2603.8 1340.1 2546.3 1258 2612.8 1285.3 2510.7 1196.8 2453.2 1302.3 2447.7 1329.6 2345.6"/><polygon class="cls-9" points="1381 2439.1 1363.7 2480.7 1486.5 2433.5 1381 2439.1"/><polygon class="cls-10" points="1486.5 2433.5 1363.7 2480.7 1404.4 2500 1486.5 2433.5"/><polygon class="cls-8" points="1343.1 2340.4 1315.8 2442.5 1363.7 2480.7 1343.1 2340.4"/><polygon class="cls-6" points="1210.3 2448 1298.9 2505.5 1363.7 2480.7 1210.3 2448"/><polygon class="cls-13" points="1363.7 2480.7 1271.5 2607.6 1353.6 2541.1 1363.7 2480.7"/><polygon class="cls-15" points="1363.7 2480.7 1353.6 2541.1 1442.2 2598.6 1363.7 2480.7"/><polygon class="cls-11" points="1363.7 2480.7 1442.2 2598.6 1404.4 2500 1363.7 2480.7"/><polygon class="cls-14" points="1343.1 2340.4 1363.7 2480.7 1381 2439.1 1343.1 2340.4"/><polygon class="cls-5" points="1210.3 2448 1363.7 2480.7 1315.8 2442.5 1210.3 2448"/><polygon class="cls-12" points="1363.7 2480.7 1298.9 2505.5 1271.5 2607.6 1363.7 2480.7"/></g><circle class="cls-1" cx="2499.8" cy="2319.7" r="1424.7"/><polygon class="cls-62" points="1308.2 1795.8 1343.9 1732.3 1446.2 1711.3 1410.9 1613.1 1446.7 1549.5 1677.6 1679.3 1634 1756.8 1529 1697.8 1550.4 1756.9 1539.3 1776.7 1477.6 1789.2 1582.6 1848.2 1539 1925.7 1308.2 1795.8"/><path class="cls-62" d="m1684.2,1617.2c-37.9,0-69.9-13.2-95.2-39.3-25.2-26-37.4-58.8-36.2-97.4,1.2-38.4,17.8-73.4,49.3-104,31.4-30.4,66.7-45.8,105-45.8,39.1.1,71.4,13.3,96.5,39.2,25.5,26.3,37.6,59.3,36,98-1.6,38.4-18.1,73.1-49,103.1-31.3,30.3-66.6,45.9-104.8,46.2h-1.6Zm14.6-202.6c-14.8,0-28.4,6.2-41.5,18.8-13.2,12.7-19.8,26.2-20.3,41.1-.5,14.7,5.1,27.8,17.1,40.3,12,12.3,24.9,18.3,39.6,18.3s28.6-6.2,41.7-19c13.1-12.7,19.6-26,20.1-40.9.4-14.7-5.2-27.8-17.1-40.2-11.9-12.4-24.9-18.4-39.6-18.4v-15.3,15.3Z"/><polygon class="cls-62" points="1780 1227.6 1846.9 1192.1 1993 1248.1 1937.9 1143.9 2016.5 1102.3 2140.4 1336.4 2077.2 1369.9 1924.4 1310.2 1982.5 1420 1904 1461.6 1780 1227.6"/><polygon class="cls-62" points="2101.7 1074.9 2297 1027.7 2314.3 1099.1 2205.4 1125.4 2209.7 1143.5 2313.6 1118.4 2330.8 1189.8 2227 1214.9 2233.1 1240 2344.2 1213.1 2361.5 1284.5 2163.9 1332.3 2101.7 1074.9"/><polygon class="cls-62" points="2443.8 1161.7 2335 1017.5 2444 1016.4 2487.5 1078.1 2529.9 1015.6 2638.7 1014.5 2532.7 1160.9 2533.9 1280.4 2445 1281.3 2443.8 1161.7"/><path class="cls-62" d="m2902.5,1353.7c-13.3,0-28-2.8-43.6-8.3l-122-43,88-249.8,110,38.7c26.2,9.2,45,23.4,56,42,11.5,19.5,13.9,39.2,7.1,58.6-4.2,12-12.8,26.1-30.3,35.2,5.3,6.7,9.3,13.9,12,21.7,5.6,16.3,5.5,33-.4,49.8-8.2,23.3-23.3,39.8-44.7,48.9-9.8,4.1-20.6,6.2-32.1,6.2Zm-40.7-85.2c11.5,4,18.3,4.9,21.9,4.9h0c1.3,0,2.5-.1,3.4-.3.9-.2,3.6-.8,6.1-7.9,1.1-3.1.8-5.2-.9-7.8-2.7-3.9-7.6-7.1-14.6-9.6l-24.2-8.5-8.3,23.4,16.6,5.8Zm30.4-93.5c3,1.1,5.7,1.6,8,1.6h0c1.5,0,2.9-.2,4.1-.8,2.6-1.1,4-2.7,5-5.5.9-2.7.8-4.6-.5-7-1.5-2.8-4.9-5.1-10.1-6.9l-14.4-5.1-6.5,18.5,14.4,5.2Z"/><path class="cls-62" d="m3116.2,1485.3l9.6-49.2-70.1-46.7-40.2,28.8-79.1-52.7,235.9-161,73.1,48.7-49,285.6-80.2-53.5Zm24.5-125.3l7.2-36.7-30,21.5,22.8,15.2Z"/><path class="cls-62" d="m3353.5,1689.7c-33.4-12.1-62.1-31.1-85.3-56.6-30.5-33.6-45.7-69.7-45.2-107.2.5-37.9,15-70.1,43-95.6,24.4-22.2,53.5-33.4,86.3-33.4,4.9,0,10,.3,15.1.8,38.6,3.8,73.7,22.9,104.4,56.7,24.2,26.7,39.5,54.9,45.4,83.9l1.7,8.5-64.4,58.5-5.8-25.5c-6.6-29-17.7-52.2-32.9-69-14.4-15.8-29.6-24.7-46.6-26.9-2.7-.4-5.4-.5-7.9-.5-12.6,0-23.6,4.4-33.6,13.5-12.1,11-17.8,24.1-17.4,40.3.4,17,7.4,32.8,21.3,48.1,7.1,7.9,15.1,14.6,23.8,19.9,9.1,5.6,24.8,12.9,46.8,21.6l22.8,9-62.8,57-8.7-3.1Z"/><polygon class="cls-62" points="3425.3 1865.7 3465.9 1764.2 3392.2 1803.3 3350.5 1724.8 3584.4 1600.6 3626.1 1679.2 3561.9 1713.2 3650.2 1724.5 3697.6 1813.9 3547.1 1796.1 3478.1 1965.2 3425.3 1865.7"/><path class="cls-68" d="m1445.3,1727.5l-39.6-110.4,25.4-45.1,208.4,117.2-29.2,51.9-130.1-73.2,33.7,93.1-4.4,7.8-97,19.5,130.1,73.2-29.2,51.9-208.4-117.3,25.4-45.1,114.9-23.5Z"/><path class="cls-68" d="m1594.6,1385.3c29.2-28.4,61.5-42.5,96.7-42.4s64.2,11.9,86.9,35.3c23,23.8,33.8,53.3,32.4,88.5s-16.5,66.8-45.3,94.7c-29.1,28.2-61.2,42.5-96.3,42.8-35.1.3-64.2-11.5-87.4-35.4-22.8-23.5-33.7-52.9-32.6-88.1,1.1-35.1,16.3-66.9,45.6-95.4Zm136.2,140.5c16.2-15.7,24.6-33.2,25.2-52.4.6-19.2-6.7-36.7-21.9-52.3-15.2-15.7-32.5-23.6-51.7-23.6s-36.9,7.9-53.1,23.6c-16.3,15.8-24.8,33.3-25.5,52.5s6.6,36.7,21.9,52.5c15.2,15.6,32.4,23.5,51.7,23.4,19.3,0,37.1-7.9,53.4-23.7Z"/><path class="cls-68" d="m2000.1,1115.5l111.9,211.3-44.5,23.5-188.3-73.6,71.7,135.4-52.6,27.9-111.9-211.3,48.3-25.6,181.2,69.4-68.4-129.2,52.6-27.8Z"/><path class="cls-68" d="m2329.5,1226.3l10.3,42.6-171.4,41.4-56.2-232.4,169-40.9,10.3,42.6-111.1,26.9,11.8,48.7,106-25.6,10.3,42.6-106,25.6,13.5,55.9,113.5-27.4Z"/><path class="cls-68" d="m2459.3,1261.3l-1.1-111.6-95.6-126.6,72.2-.7,52.6,74.6,51.3-75.7,72-.7-93,128.5,1.1,111.5-59.5.7Z"/><path class="cls-68" d="m2841,1063.6l97.5,34.4c23.2,8.2,39.5,20.2,48.9,36.1s11.3,31.4,6,46.7c-6.9,19.6-22.5,31-46.7,34.1,14.1,9.6,23.4,20.9,28,34.2,4.6,13.2,4.4,26.8-.4,40.5-6.9,19.6-19.2,33.2-37,40.7s-39.7,6.7-65.9-2.5l-109.8-38.7,79.4-225.5Zm10.1,150.7l-18.8,53.3,31.6,11.2c15,5.3,26.5,7,34.5,5.2s13.8-7.9,17.5-18.1c2.8-7.9,1.8-15.2-2.8-21.9-4.6-6.8-12.2-12-22.6-15.7l-39.4-14Zm31.5-89.6l-17,48.3,29.4,10.4c9,3.2,16.9,3.4,23.6.5,6.7-2.8,11.3-7.8,13.7-14.8,2.4-6.9,1.9-13.5-1.6-19.8s-9.7-11-18.8-14.2l-29.3-10.4Z"/><path class="cls-68" d="m3243.5,1255.6l-44.3,257.9-53.2-35.5,9.8-50.2-89.1-59.4-41.1,29.4-52.5-35,213-145.4,57.4,38.2Zm-79,127.7l19.3-98.8-80.8,57.9,61.5,40.9Z"/><path class="cls-68" d="m3414.7,1644l-38.6,35.1c-31.8-11.5-58.8-29.3-80.8-53.6-28.5-31.4-42.6-64.3-42.1-98.7.4-34.4,13.4-63.1,38.8-86.2,25.4-23.1,55.9-32.9,91.5-29.3,35.6,3.5,67.7,21.1,96.5,52.8,22.9,25.3,37.1,51.4,42.6,78.3l-39.4,35.8c-7.4-32.4-19.8-58.2-37.2-77.4-17.1-18.8-36.1-29.7-57.1-32.4-21-2.8-39.2,2.9-54.9,17.1-15.7,14.3-23.3,31.9-22.9,53,.5,21.1,9.1,40.8,25.8,59.2,8.3,9.1,17.5,16.8,27.5,23.1,10.2,6.1,27,13.9,50.3,23.2Z"/><path class="cls-68" d="m3694.3,1801.6l-135.8-16.1-62.4,152.7-34.9-65.8,54.6-136.3-99,52.6-27.9-52.6,211.2-112.1,27.9,52.6-95.1,50.5,130.7,16.7,30.7,57.8Z"/><g id="Ribbon"><g id="bottom_ribbon"><path class="cls-62" d="m3685.4,3683.4l120.8-552.4s117.9,13.8,167,21.7c163.3,26,326,57.1,488,93.2-83.4,79-164.2,159.2-242.3,240.3,19,84.4,74.5,264.9,92.1,319.6-144.7-32.2-625.6-122.4-625.6-122.4Z"/><path class="cls-43" d="m4246.4,3747.1c-150.4-30.9-405.1-79.2-508.2-98.6l102.6-468.9c38.6,4.7,95.6,11.9,125.5,16.7,134.8,21.5,270.6,46.7,404.6,75.1-62.6,60.6-124.2,122.4-183.8,184.3l-16.5,17.1,5.2,23.2c14,62,46.8,173.2,70.6,251.1Z"/><path class="cls-44" d="m4339.1,3831.5l-32.3-7.2c-142.7-31.9-620.2-121.4-625-122.3l-19.1-3.6,128.7-588.1,17,2c4.8.6,118.8,14,167.8,21.8,163.2,26,327.8,57.4,489.1,93.4l34.7,7.7-25.8,24.4c-80,75.8-158.9,154-234.6,232.4,20.9,88.2,73,257.3,89.4,308l10.1,31.5Zm-631.1-163c84.3,15.9,424.6,80.1,575.1,112-23-73.5-66.2-216.7-82.7-290l-2.2-9.9,7.1-7.3c70.2-72.9,143.1-145.5,217.2-216.4-149.4-32.7-301.4-61.3-452.2-85.4-37.1-5.9-114.8-15.4-149.2-19.5l-113.1,516.5Z"/><path class="cls-41" d="m4339.1,3831.5l-32.3-7.2c-141.7-31.6-620.2-121.4-625-122.3l-19.2-3.6,128.7-588.1,17,2c20.4,2.4,122.6,14.6,167.8,21.8,163.2,26,327.8,57.4,489.1,93.4l34.7,7.7-25.8,24.4c-80,75.8-158.9,154-234.6,232.4,20.9,88.3,73.4,258.5,89.4,308l10.2,31.5Zm-29.5-19.5l10.8,2.4-3.4-10.5c-16.2-50.2-70-224.7-90.4-312.4l-.8-3.3,2.4-2.5c76.6-79.4,156.4-158.5,237.4-235.2l8.6-8.1-11.6-2.6c-161.1-35.9-325.4-67.3-488.4-93.3-45.9-7.3-154.6-20.2-166.8-21.7l-6.1-.7-123.4,564.3,6.4,1.2c4.7.9,483.4,90.7,625.3,122.4h0Z"/><path class="cls-62" d="m1314.6,3683.4l-120.8-552.4s-117.9,13.8-167,21.7c-163.3,26-326,57.1-488,93.2,83.4,79,164.2,159.2,242.3,240.3-19,84.4-74.5,264.9-92.1,319.6,144.7-32.2,625.6-122.4,625.6-122.4Z"/><path class="cls-42" d="m753.6,3747.1c23.9-77.9,56.6-189.1,70.6-251.1l5.2-23.2-16.5-17.1c-59.6-61.9-121.2-123.6-183.8-184.3,134-28.5,269.7-53.7,404.6-75.1,29.9-4.8,87-11.9,125.5-16.7l102.6,468.9c-103.1,19.4-357.9,67.7-508.2,98.6Z"/><path class="cls-37" d="m660.9,3831.5l10.2-31.5c16.4-50.7,68.5-219.8,89.4-308-75.7-78.4-154.6-156.5-234.6-232.4l-25.8-24.4,34.7-7.7c161.3-36,325.9-67.5,489.1-93.4,48.9-7.8,162.9-21.2,167.8-21.8l17-2,128.7,588.1-19.1,3.6c-4.8.9-482.2,90.4-625,122.3l-32.4,7.2Zm-83.4-574.7c74.1,70.9,147.1,143.6,217.2,216.4l7.1,7.3-2.2,9.9c-16.5,73.4-59.7,216.5-82.7,290,150.5-31.9,490.8-96.2,575.1-112l-113-516.6c-34.4,4.1-112.2,13.6-149.2,19.5-150.9,24.1-302.8,52.8-452.3,85.5Z"/><path class="cls-35" d="m660.7,3831.7l10.3-31.6c16-49.5,68.4-219.6,89.4-308-75.7-78.4-154.6-156.6-234.6-232.4l-25.6-24.4,34.4-7.8c161.3-36,325.9-67.5,489.1-93.4,45.2-7.2,147.3-19.4,167.3-21.7l11.8-1.4c3.2-.4,6.2,1.7,6.9,4.9l126.1,576.2c.4,1.7,0,3.4-.9,4.8-.9,1.4-2.4,2.4-4.1,2.7l-12.8,2.4c-4.7.9-481.8,90.3-625,122.3l-32.3,7.4Zm-134.8-589.3l8.6,8.1c81,76.7,160.8,155.9,237.4,235.2,1.5,1.5,2.1,3.7,1.6,5.8-20.5,87.8-74.2,262.1-90.4,312.4h0l-3.4,10.5,10.8-2.4c143.4-32,620.7-121.5,625.4-122.4l6.4-1.2-123.4-564.3-5.7.7c-12.7,1.5-121.4,14.4-167.3,21.7-163,26-327.3,57.3-488.4,93.3l-11.6,2.6Z"/><path class="cls-62" d="m4031,3544l-367.5,153.3,46.2-212.1s279.3,44.1,321.3,58.8Z"/><path class="cls-62" d="m968,3543.4l367.2,153.9-44.8-213.1s-280.4,44.5-322.4,59.2Z"/></g><g id="top_ribbon"><path class="cls-62" d="m4019.1,3521.6c-1002.4-204.5-2035.9-204.5-3038.3,0-60.8-193.5-121.7-386.9-182.5-580.4,1122.8-229.1,2280.5-229.1,3403.3,0-60.8,193.4-121.6,386.9-182.5,580.4Z"/><path class="cls-53" d="m3989,3470.5c-489.4-97.2-990.1-146.4-1489-146.4s-999.6,49.2-1489,146.4l-155.9-495.7c540.7-107,1093.8-161.3,1644.9-161.3s1104.2,54.2,1644.9,161.3l-155.9,495.7Z"/><path class="cls-36" d="m4032,3543.5l-16.7-3.4c-1005.5-205.1-2025.2-205.1-3030.7,0l-16.7,3.4-193.9-616.7,20.5-4.2c560-114.3,1133.8-172.2,1705.4-172.2s1145.4,57.9,1705.4,172.2l20.5,4.2-193.8,616.7Zm-1532-194.2c504.8,0,1011.4,50.6,1506.2,150.4l171.1-544.1c-1113.1-224.3-2241.6-224.3-3354.7,0l171.1,544.1c494.9-99.8,1001.5-150.4,1506.3-150.4Z"/><path class="cls-40" d="m4032,3543.5l-16.7-3.4c-497.6-101.5-1007.4-153-1515.3-153s-1017.7,51.5-1515.3,153l-16.7,3.4-194-616.7,20.5-4.2c560-114.3,1133.8-172.2,1705.4-172.2s1145.4,57.9,1705.4,172.2l20.5,4.2-193.8,616.7Zm-14.1-15.8l5.6,1.1,186.3-592.5-6.8-1.4c-559.2-114.1-1132.1-171.9-1702.9-171.9s-1143.7,57.8-1702.9,171.9l-6.8,1.4,186.3,592.5,5.6-1.1c498.4-101.7,1009.1-153.2,1517.9-153.2s1019.2,51.5,1517.7,153.2h0Z"/><path class="cls-52" d="m2500,3386.1c-857.5,0-1532,157.3-1532,157.3,0,0,716.1-105.1,1532-105.1s1532,105.1,1532,105.1c0,0-688.6-157.3-1532-157.3Z"/></g><path class="cls-65" d="m1540.5,3098.4c-33.5,4.2-67,8.7-100.4,13.4-1.6-11.5-3.2-22.9-4.8-34.4-3-21.7-5.9-35.1-8.6-40.3s-7.7-7.3-14.9-6.2c-6.3.9-10.2,3.8-11.8,8.8-1.6,5-1,17.2,1.8,36.5,8.8,60.5,17.5,121.1,26.3,181.6,2.5,17,5.2,28,8.1,33.1s7.7,7.1,14.2,6.2c7.1-1,11.5-4.7,13.3-11.2,1.7-6.4,1.3-18.5-1.1-36.1-2.1-15-4.2-29.9-6.3-44.9-6.7.9-13.3,1.9-20,2.8-2.7-19.2-5.5-38.3-8.2-57.5,39-5.6,78-10.8,117-15.8,8.6,67.9,17.2,135.7,25.8,203.6-20.4,2.6-40.8,5.3-61.1,8-4.2-8.6-8.5-17.3-12.7-25.9-5.1,12.6-12.2,22.5-21.5,29.8s-20.7,11.9-34.4,13.8c-16.3,2.4-32.1.6-47.6-5.2-15.5-5.9-27.8-14.1-37.1-24.8-9.3-10.7-15.9-22.3-19.8-35s-7.9-32-12-58c-5.9-37.4-11.8-74.8-17.8-112.2-5.7-36.1-7.9-62.6-6.4-79.6,1.4-17,10.6-33.8,27.7-50.3,17-16.5,40.9-27.1,71.3-31.4,30-4.3,55.7-1.7,77,7.5s36,21.7,44,37.2c8,15.6,14,38.9,17.9,70,.7,5.6,1.4,11,2.1,16.5Zm280.1-171.5c7.4,84.8,14.8,169.7,22.2,254.5,2.5,28.9,3.4,49.2,2.5,61.1-.8,11.9-5.3,24.3-13.4,37.5-8,13.1-19.2,23.6-33.5,31.3-14.3,7.8-31.5,12.6-51.7,14.7-22.4,2.3-42.5.7-60.4-5-18-5.6-31.9-13.9-41.8-25s-16.5-23.2-19.6-36.3c-3.1-13.2-7.2-41.2-12.3-84-8.9-74.9-17.7-149.8-26.6-224.7,34.1-4,68.3-7.9,102.5-11.4,10,95,19.9,190.1,29.9,285.1,1.7,16.6,3.7,27.1,6,31.5s6.1,6.4,11.6,5.8c6.2-.6,10-3.6,11.2-8.9,1.3-5.3,1-17.4-.9-36.3-9.4-93.4-18.9-186.9-28.3-280.3,34.1-3.4,68.3-6.6,102.6-9.6Zm242.4-17.3c26.7,126.2,52.4,252.4,77.2,378.8-33.3,1.6-66.6,3.4-99.9,5.5-3.2-22.8-6.3-45.5-9.5-68.3-11.8.7-23.5,1.5-35.3,2.3-.4,23-.9,46-1.3,69-33.7,2.3-67.3,4.8-101,7.6,6.2-128.4,13.2-256.8,21.2-385.2,49.5-3.7,99.1-7,148.6-9.7Zm-39.1,248.6c-7.8-42.9-16.3-96-25.6-159.3-5.6,73.7-8.4,127.6-8.7,161.5,11.5-.8,22.9-1.5,34.3-2.2Zm140.5-253.6c24.3-1,48.6-2,72.9-2.8,48.6-1.6,81.5-.5,98.8,2.8s31.4,12.3,42.5,27c11,14.7,16.7,38.4,17.1,71,.4,29.8-3.1,49.8-10.5,60.1s-22,16.7-43.9,19.2c20,4.5,33.5,10.8,40.4,18.9,6.9,8.1,11.3,15.6,13,22.4,1.7,6.8,2.8,25.7,3.2,56.5.4,33.6.9,67.2,1.3,100.8-30.3.4-60.6,1-90.9,1.7-1.1-42.3-2.1-84.7-3.2-127-.5-20.5-2.5-33.1-5.8-37.9-3.4-4.8-12-7-25.8-6.6,1.7,57.4,3.4,114.9,5,172.3-32.6,1-65.2,2.1-97.8,3.5-5.5-127.3-10.9-254.6-16.3-381.9Zm104.8,61.7c.8,28.3,1.7,56.7,2.5,85,11.3-.3,19.3-2.1,23.7-5.3,4.5-3.2,6.5-13.2,6.1-30-.2-7-.4-14-.5-21-.3-12.1-2.7-20-7.3-23.7-4.5-3.7-12.7-5.4-24.5-5Zm368-67.3c17.2,127.8,33.5,255.6,48.8,383.5-33.3-.9-66.7-1.5-100-2-1.5-22.9-2.9-45.9-4.4-68.8-11.8-.1-23.6-.3-35.3-.3-2.1,22.9-4.3,45.8-6.4,68.7-33.7-.2-67.5-.2-101.2,0,15.7-127.6,32.3-255.1,49.7-382.5,49.6,0,99.2.4,148.8,1.4Zm-57.5,245c-4.5-43.4-9.1-96.9-13.6-160.7-11.1,73.1-17.8,126.6-20.7,160.4,11.5,0,22.9.1,34.3.3Zm388.6-231.7c-7.9,127.2-15.7,254.4-23.6,381.6-28.6-1.8-57.1-3.4-85.7-4.8-14.1-58.7-28.5-117.4-43.4-176-2.5,57.9-5,115.8-7.5,173.6-27.3-1.2-54.5-2.2-81.8-3.1,4.1-127.4,8.1-254.8,12.2-382.1,28.7.9,57.4,2,86.1,3.2,16.8,58.2,33.1,116.4,49,174.6,2.9-57.3,5.8-114.6,8.7-171.9,28.7,1.5,57.4,3.2,86,4.9Zm273.2,21.8c-2.5,25.4-5,50.8-7.4,76.2-20.1-2-40.2-3.8-60.3-5.6-9.1,101.5-18.2,203.1-27.3,304.6-32.5-2.9-65.1-5.6-97.6-8.1,7.7-101.6,15.5-203.3,23.2-304.9-20.1-1.5-40.1-3-60.2-4.3,1.7-25.4,3.5-50.9,5.2-76.3,74.8,4.9,149.7,11.1,224.4,18.4Zm48.4,4.9c57,5.9,114,12.5,170.9,19.7-3.2,25.3-6.4,50.6-9.6,75.9-22.6-2.9-45.1-5.6-67.7-8.3-2.8,24-5.6,48-8.5,72,20.9,2.5,41.8,5,62.7,7.6-3,24.1-6.1,48.1-9.1,72.2-20.7-2.6-41.4-5.1-62.1-7.6-3.3,27.8-6.5,55.7-9.8,83.5,24.1,2.8,48.1,5.8,72.2,8.8-3.2,25.3-6.4,50.6-9.7,75.9-56.2-7.2-112.5-13.7-168.9-19.5,13.2-126.7,26.4-253.5,39.6-380.2Zm231.9,27.6c56.9,7.7,113.6,16,170.4,24.9-4,25.2-7.9,50.4-11.9,75.6-22.5-3.5-45-7-67.5-10.3-3.5,23.9-7.1,47.8-10.6,71.7,20.9,3.1,41.7,6.3,62.6,9.5-3.8,24-7.5,47.9-11.3,71.9-20.6-3.2-41.3-6.4-61.9-9.5-4.1,27.7-8.2,55.4-12.3,83.2,24,3.6,48,7.2,72,11-4,25.2-8,50.4-12,75.6-56-8.9-112.2-17.1-168.4-24.7,16.9-126.2,33.9-252.6,50.9-378.9Z"/><path class="cls-38" d="m1540.5,3063.4c-33.5,4.2-67,8.7-100.4,13.4-1.6-11.5-3.2-22.9-4.8-34.4-3-21.7-5.9-35.1-8.6-40.3s-7.7-7.3-14.9-6.2c-6.3.9-10.2,3.8-11.8,8.8-1.6,5-1,17.2,1.8,36.5,8.8,60.5,17.5,121.1,26.3,181.6,2.5,17,5.2,28,8.1,33.1s7.7,7.1,14.2,6.2c7.1-1,11.5-4.7,13.3-11.2,1.7-6.4,1.3-18.5-1.1-36.1-2.1-15-4.2-29.9-6.3-44.9-6.7.9-13.3,1.9-20,2.8-2.7-19.2-5.5-38.3-8.2-57.5,39-5.6,78-10.8,117-15.8,8.6,67.9,17.2,135.7,25.8,203.6-20.4,2.6-40.8,5.2-61.1,8-4.2-8.6-8.5-17.3-12.7-25.9-5.1,12.6-12.2,22.5-21.5,29.8s-20.7,11.9-34.4,13.8c-16.3,2.4-32.1.6-47.6-5.2-15.5-5.9-27.8-14.1-37.1-24.8-9.3-10.7-15.9-22.3-19.8-35s-7.9-32-12-58c-5.9-37.4-11.8-74.8-17.8-112.2-5.7-36.1-7.9-62.6-6.4-79.6,1.4-17,10.6-33.7,27.7-50.3,17-16.5,40.9-27.1,71.3-31.4,30-4.3,55.7-1.7,77,7.5s36,21.7,44,37.2c8,15.6,14,38.9,17.9,70,.7,5.6,1.4,11.1,2.1,16.5Z"/><path class="cls-39" d="m1820.6,2892c7.4,84.8,14.8,169.7,22.2,254.5,2.5,28.9,3.4,49.2,2.5,61.1-.8,11.9-5.3,24.3-13.4,37.5-8,13.1-19.2,23.6-33.5,31.3-14.3,7.8-31.5,12.6-51.7,14.7-22.4,2.3-42.5.7-60.4-5-18-5.6-31.9-13.9-41.8-25s-16.5-23.2-19.6-36.3c-3.1-13.2-7.2-41.2-12.3-84-8.9-74.9-17.7-149.8-26.6-224.7,34.1-4,68.3-7.9,102.5-11.4,10,95,19.9,190.1,29.9,285.1,1.7,16.6,3.7,27.1,6,31.5s6.1,6.4,11.6,5.8c6.2-.6,10-3.6,11.2-8.9,1.3-5.3,1-17.4-.9-36.3-9.4-93.4-18.9-186.9-28.3-280.3,34.1-3.4,68.3-6.6,102.6-9.6Z"/><path class="cls-50" d="m2063,2874.6c26.7,126.2,52.4,252.4,77.2,378.8-33.3,1.6-66.6,3.4-99.9,5.5-3.2-22.8-6.3-45.5-9.5-68.3-11.8.7-23.5,1.5-35.3,2.3-.4,23-.9,46-1.3,69-33.7,2.3-67.3,4.8-101,7.6,6.2-128.4,13.2-256.8,21.2-385.2,49.5-3.7,99.1-6.9,148.6-9.7Zm-39.1,248.6c-7.8-42.9-16.3-96-25.6-159.3-5.6,73.7-8.4,127.6-8.7,161.5,11.5-.7,22.9-1.5,34.3-2.2Z"/><path class="cls-48" d="m2164.4,2869.6c24.3-1,48.6-2,72.9-2.8,48.6-1.6,81.5-.5,98.8,2.8s31.4,12.3,42.5,27c11,14.7,16.7,38.4,17.1,71,.4,29.8-3.1,49.8-10.5,60.1s-22,16.7-43.9,19.2c20,4.5,33.5,10.8,40.4,18.9,6.9,8.1,11.3,15.6,13,22.4,1.7,6.8,2.8,25.7,3.2,56.5.4,33.6.9,67.2,1.3,100.8-30.3.4-60.6,1-90.9,1.7-1.1-42.3-2.1-84.7-3.2-127-.5-20.5-2.5-33.1-5.8-37.9-3.4-4.8-12-7-25.8-6.6,1.7,57.4,3.4,114.9,5,172.3-32.6,1-65.2,2.1-97.8,3.5-5.5-127.2-10.9-254.5-16.3-381.9Zm104.8,61.7c.8,28.3,1.7,56.7,2.5,85,11.3-.3,19.3-2.1,23.7-5.3,4.5-3.2,6.5-13.2,6.1-30-.2-7-.4-14-.5-21-.3-12.1-2.7-20-7.3-23.7-4.5-3.6-12.7-5.3-24.5-5Z"/><path class="cls-49" d="m2637.2,2864c17.2,127.8,33.5,255.6,48.8,383.5-33.3-.9-66.7-1.5-100-2-1.5-22.9-2.9-45.9-4.4-68.8-11.8-.1-23.6-.3-35.3-.3-2.1,22.9-4.3,45.8-6.4,68.7-33.7-.2-67.5-.2-101.2,0,15.7-127.6,32.3-255.1,49.7-382.5,49.6,0,99.2.5,148.8,1.4Zm-57.5,245c-4.5-43.4-9.1-96.9-13.6-160.7-11.1,73.1-17.8,126.6-20.7,160.4,11.5.1,22.9.2,34.3.3Z"/><path class="cls-47" d="m2968.3,2877.4c-7.9,127.2-15.7,254.4-23.6,381.6-28.6-1.8-57.1-3.4-85.7-4.8-14.1-58.7-28.5-117.4-43.4-176-2.5,57.9-5,115.8-7.5,173.7-27.3-1.2-54.5-2.2-81.8-3.1,4.1-127.4,8.1-254.8,12.2-382.1,28.7.9,57.4,2,86.1,3.2,16.8,58.2,33.1,116.4,49,174.6,2.9-57.3,5.8-114.6,8.7-171.9,28.7,1.4,57.4,3,86,4.8Z"/><path class="cls-51" d="m3241.5,2899.1c-2.5,25.4-5,50.8-7.4,76.2-20.1-2-40.2-3.8-60.3-5.6-9.1,101.5-18.2,203.1-27.3,304.6-32.5-2.9-65.1-5.6-97.6-8.1,7.7-101.6,15.5-203.3,23.2-304.9-20.1-1.5-40.1-3-60.2-4.3,1.7-25.4,3.5-50.9,5.2-76.3,74.8,4.9,149.7,11.1,224.4,18.4Z"/><path class="cls-45" d="m3289.9,2904c57,5.9,114,12.5,170.9,19.7-3.2,25.3-6.4,50.6-9.6,75.9-22.6-2.9-45.1-5.6-67.7-8.3-2.8,24-5.6,48-8.5,72,20.9,2.5,41.8,5,62.7,7.6-3,24.1-6.1,48.1-9.1,72.2-20.7-2.6-41.4-5.1-62.1-7.6-3.3,27.8-6.5,55.7-9.8,83.5,24.1,2.8,48.1,5.8,72.2,8.8-3.2,25.3-6.4,50.6-9.7,75.9-56.2-7.2-112.5-13.7-168.9-19.5,13.2-126.7,26.4-253.4,39.6-380.2Z"/><path class="cls-46" d="m3521.8,2931.7c56.9,7.7,113.6,16,170.4,24.9-4,25.2-7.9,50.4-11.9,75.6-22.5-3.5-45-7-67.5-10.3-3.5,23.9-7.1,47.8-10.6,71.7,20.9,3.1,41.7,6.3,62.6,9.5-3.8,24-7.5,47.9-11.3,71.9-20.6-3.2-41.3-6.4-61.9-9.5-4.1,27.7-8.2,55.4-12.3,83.2,24,3.6,48,7.2,72,11-4,25.2-8,50.4-12,75.6-56-8.9-112.2-17.1-168.4-24.7,16.9-126.3,33.9-252.6,50.9-378.9Z"/><path class="cls-64" d="m1426.5,2930.3c18.7,0,35.4,3.2,50,9.5,21.3,9.2,36,21.7,44,37.2,8,15.6,14,38.9,17.9,70,.7,5.5,1.4,10.9,2.1,16.4-33.5,4.2-67,8.7-100.4,13.4-1.6-11.5-3.2-22.9-4.8-34.4-3-21.7-5.9-35.1-8.6-40.3-2.2-4.3-6.1-6.5-11.5-6.5-1.1,0-2.2.1-3.4.3-6.3.9-10.2,3.8-11.8,8.8-1.6,5-1,17.2,1.8,36.5,8.8,60.5,17.5,121.1,26.3,181.6,2.5,17,5.2,28,8.1,33.1,2.5,4.3,6.2,6.4,11.3,6.4.9,0,1.9-.1,2.9-.2,7.1-1,11.5-4.7,13.3-11.2,1.7-6.4,1.3-18.5-1.1-36.1-2.1-15-4.2-29.9-6.3-44.9-6.7.9-13.3,1.9-20,2.8-2.7-19.2-5.5-38.3-8.2-57.5,39-5.6,78-10.8,117-15.8,8.6,67.9,17.2,135.7,25.8,203.6-20.4,2.6-40.8,5.2-61.1,8-4.2-8.6-8.5-17.3-12.7-25.9-5.1,12.6-12.2,22.5-21.5,29.8s-20.7,11.9-34.4,13.8c-4.7.7-9.3,1-13.9,1-11.4,0-22.6-2.1-33.6-6.3-15.5-5.9-27.8-14.1-37.1-24.8-9.3-10.7-15.9-22.3-19.8-35s-7.9-32-12-58c-5.9-37.4-11.8-74.8-17.8-112.2-5.7-36.1-7.9-62.6-6.4-79.6,1.4-17,10.6-33.7,27.7-50.3,17-16.5,40.9-27.1,71.3-31.4,9.3-1.1,18.3-1.8,26.9-1.8h0Zm0-14h0c-9.2,0-19,.7-29,2.2-33.3,4.8-59.9,16.6-79.1,35.2-19.4,18.8-30.1,38.7-31.9,59.1-1.5,18.2.6,45.3,6.6,82.9l8.9,56.1,8.9,56.1c4.3,26.8,8.3,46.4,12.5,59.9,4.5,14.5,12.1,28,22.6,40.1,10.7,12.4,25.1,22,42.7,28.7,12.5,4.8,25.5,7.2,38.6,7.2,5.3,0,10.6-.4,15.9-1.2,16.1-2.3,29.9-7.9,41-16.7,4.3-3.3,8.2-7.1,11.7-11.4.4.9.9,1.8,1.3,2.7l4.4,9.1,10-1.4c20.3-2.7,40.8-5.4,61-8l13.9-1.8-1.8-13.9-7.8-61.3-18-142.3-1.8-13.9-13.9,1.8c-38.9,4.9-78.4,10.2-117.3,15.8l-1.4.2-9-62.4c-2.8-19.4-2.7-26.9-2.4-29.4.1,0,.3-.1.5-.1.3,0,.7-.1,1-.1,1,2.7,3.4,11.1,6.7,34.7l4.8,34.4,1.9,13.8,13.8-1.9c33.2-4.7,67-9.2,100.3-13.4l13.9-1.8-1.8-13.9-.9-7.5-1.1-8.9c-4.2-33.1-10.5-57.5-19.4-74.6-9.6-18.5-26.7-33.2-50.9-43.7-16.2-6.8-34.9-10.4-55.4-10.4h0Zm10.5,270.5l1.2-.2c2-.3,4.1-.6,6.1-.9l1.2,8.2,3.2,22.8c3.1,21.9,1.9,28.9,1.5,30.6-.1.3-.2.5-.2.6h0c-.1,0-.6.2-1.5.3h-.4c-1-2.1-3.4-8.8-6.1-27.5l-5-33.9h0Zm383.6-294.8c7.4,84.8,14.8,169.7,22.2,254.5,2.5,28.9,3.4,49.2,2.5,61.1-.8,11.9-5.3,24.3-13.4,37.5-8,13.1-19.2,23.6-33.5,31.3-14.3,7.8-31.5,12.6-51.7,14.7-6.5.7-12.8,1-19,1-14.9,0-28.8-2-41.5-6-18-5.6-31.9-13.9-41.8-25s-16.5-23.2-19.6-36.3c-3.1-13.2-7.2-41.2-12.3-84-8.9-74.9-17.7-149.8-26.6-224.7,34.1-4,68.3-7.9,102.5-11.4,10,95,19.9,190.1,29.9,285.1,1.7,16.6,3.7,27.1,6,31.5,2,3.9,5.3,5.9,9.8,5.9.6,0,1.2,0,1.8-.1,6.2-.6,10-3.6,11.2-8.9,1.3-5.3,1-17.4-.9-36.3-9.4-93.4-18.9-186.9-28.3-280.3,34.2-3.4,68.4-6.6,102.7-9.6h0Zm12.7-15.2l-13.9,1.2c-34.1,3-68.7,6.2-102.8,9.7l-13.9,1.4,1.4,13.9,2.8,27.6,25.5,252.7c.7,7,1.1,12.6,1.4,16.9-.5-3.2-1-7.2-1.4-11.9l-19.9-189.7-10-95.5-1.5-13.9-13.9,1.5c-34.1,3.6-68.6,7.4-102.7,11.5l-13.9,1.6,1.6,13.9,14.2,119.9,12.4,104.8c5.2,43.8,9.3,71.8,12.6,85.6,3.7,15.4,11.3,29.7,22.8,42.4,11.5,12.9,27.7,22.6,48.1,29,14,4.4,29.4,6.6,45.7,6.6,6.6,0,13.4-.4,20.4-1.1,22-2.2,41.1-7.7,57-16.3,16.4-8.9,29.5-21.1,38.8-36.3,9.2-15.1,14.4-29.8,15.4-43.8.9-12.7.1-33.4-2.5-63.3l-12.1-138.1-10.2-116.5-1.4-13.8h0Zm229.7-2.2c26.7,126.2,52.4,252.4,77.2,378.8-33.3,1.6-66.6,3.4-99.9,5.5-3.2-22.8-6.3-45.5-9.5-68.3-11.8.7-23.5,1.5-35.3,2.3-.4,23-.9,46-1.3,69-33.7,2.3-67.3,4.8-101,7.6,6.2-128.4,13.2-256.8,21.2-385.2,49.5-3.7,99.1-6.9,148.6-9.7h0Zm-73.3,250.8c11.4-.8,22.8-1.5,34.3-2.2-7.8-42.9-16.3-96-25.6-159.3-5.6,73.8-8.4,127.6-8.7,161.5h0Zm84.5-265.4l-12,.7c-49.4,2.8-99.5,6-148.9,9.7l-12.2.9-.8,12.2c-7.9,127.9-15,257.5-21.2,385.4l-.8,15.9,15.9-1.3c33.4-2.7,67.3-5.3,100.8-7.6l12.8-.9.2-12.8c.3-18.7.7-37.4,1-56.1,3.2-.2,6.3-.4,9.5-.6,2.6,18.5,5.2,36.9,7.7,55.4l1.8,12.8,12.9-.8c33-2,66.6-3.9,99.7-5.5l16.2-.8-3.1-15.9c-24.7-125.9-50.6-253.4-77.2-379l-2.3-11.7h0Zm-70.3,250.5c.1-5.4.3-11.2.6-17.3,1,5.8,2,11.5,2.9,17.1-1.1,0-2.3.1-3.5.2h0Zm273.1-244.3c27.3,0,47,1.2,59,3.5,17.3,3.3,31.4,12.3,42.5,27,11,14.7,16.7,38.4,17.1,71,.4,29.8-3.1,49.8-10.5,60.1s-22,16.7-43.9,19.2c20,4.5,33.5,10.8,40.4,18.9,6.9,8.1,11.3,15.6,13,22.4,1.7,6.8,2.8,25.7,3.2,56.5.4,33.6.9,67.2,1.3,100.8-30.3.4-60.6,1-90.9,1.7-1.1-42.3-2.1-84.7-3.2-127-.5-20.5-2.5-33.1-5.8-37.9-3.1-4.4-10.7-6.7-22.7-6.7h-3.1c1.7,57.4,3.4,114.9,5,172.3-32.6,1-65.2,2.1-97.8,3.5-5.4-127.3-10.8-254.7-16.2-382,24.3-1,48.6-2,72.9-2.8,14.6-.3,27.9-.5,39.7-.5h0Zm-5.3,150.1c11.3-.3,19.3-2.1,23.7-5.3,4.5-3.2,6.5-13.2,6.1-30-.2-7-.4-14-.5-21-.3-12.1-2.7-20-7.3-23.7-4.2-3.3-11.4-5-21.6-5h-2.9c.9,28.4,1.7,56.7,2.5,85h0Zm5.3-164.1c-12.1,0-25.6.2-40.2.7-24.2.8-48.8,1.7-73,2.8l-14,.6.6,14,10.3,242.4,5.9,139.6.6,14,14-.6c32.4-1.4,65.2-2.6,97.6-3.5l14-.4-.4-14-4.4-150.1-.2-6.5h.1c.8,2.3,2.6,9.7,3.1,29.6l3.2,127,.4,14,14-.4c30.1-.8,60.6-1.3,90.7-1.7l14-.2-.2-14-1.2-97.9v-2.9c-.5-42.5-2.2-54.3-3.6-59.8-2.3-9-7.5-18.2-16-28-2.5-3-5.6-5.7-9.2-8.2,5.5-3.5,10-7.7,13.5-12.6,9.4-13.2,13.5-34.9,13.1-68.4-.5-36-7-61.9-19.9-79.2-13.1-17.5-30.3-28.4-51-32.4-13.4-2.6-34.1-3.9-61.8-3.9h0Zm8.2,148.4l-.7-22.9-.9-31.1c.6.2.9.4,1.1.5.4.7,2,4,2.2,13.2l.5,21c.3,11.7-.8,16.9-1.4,18.9-.1.1-.4.2-.8.4h0Zm207-137.9c48.3,0,96.6.5,145,1.4,17.2,127.8,33.5,255.6,48.8,383.5-33.3-.9-66.7-1.5-100-2-1.5-22.9-2.9-45.9-4.4-68.8-11.8-.1-23.6-.3-35.3-.3-2.1,22.9-4.3,45.8-6.4,68.7-15.9-.1-31.7-.2-47.6-.2-17.9,0-35.7.1-53.6.2,15.7-127.6,32.3-255.1,49.7-382.5,1.2,0,2.5,0,3.8,0h0Zm87.5,246.3c-4.5-43.4-9.1-96.9-13.6-160.7-11.1,73.1-17.8,126.6-20.7,160.4,11.5.1,22.9.2,34.3.3h0Zm-87.5-260.3h-16.1l-1.7,12.1c-17.4,126.9-34.1,255.7-49.8,382.7l-1.9,15.8,15.9-.1c17.8-.1,35.7-.2,53.5-.2,15.8,0,31.7.1,47.5.2l12.8.1,1.2-12.8c1.7-18.6,3.4-37.2,5.2-55.9,3.2,0,6.3.1,9.5.1,1.2,18.6,2.4,37.2,3.6,55.8l.8,12.9,13,.2c33.1.4,66.7,1.1,99.8,2l16.2.4-1.9-16.1c-15.2-127.4-31.6-256.5-48.8-383.7l-1.6-11.9-12-.2c-48.1-1-97-1.4-145.2-1.4h0Zm68.5,246.1c.5-5.4,1.2-11.1,1.8-17.2.6,5.9,1.1,11.6,1.7,17.2-1.1.1-2.3.1-3.5,0h0Zm177.9-228.2c28.7.9,57.4,2,86.1,3.2,16.8,58.2,33.1,116.4,49,174.6,2.9-57.3,5.8-114.6,8.7-171.9,28.7,1.5,57.3,3.1,86,4.8-7.9,127.2-15.7,254.4-23.6,381.6-28.6-1.8-57.1-3.4-85.7-4.8-14.1-58.7-28.5-117.4-43.4-176-2.5,57.9-5,115.8-7.5,173.7-27.3-1.2-54.5-2.2-81.8-3.1,4.1-127.3,8.1-254.7,12.2-382.1h0Zm-13.5-14.4l-.4,14-10.2,319.2-2,63-.4,14,14,.4c27.2.9,54.6,1.9,81.6,3.1l14,.6.6-14,3.3-77.3c6.8,27.5,13.4,55,20,82.3l2.4,10.2,10.5.5c28.4,1.4,57.1,3,85.5,4.8l14,.9.9-14,3.5-56,20.1-325.6.9-14-14-.9c-28.6-1.8-57.6-3.4-86.2-4.8l-14-.7-.7,14-4.3,85.5c-8.6-30.5-17.2-61.1-26-91.4l-2.8-9.7-10-.4c-28.6-1.2-57.6-2.3-86.2-3.2l-14.1-.5h0Zm292,28.3c74.9,5.1,149.7,11.3,224.5,18.6-2.5,25.4-5,50.8-7.4,76.2-20.1-2-40.2-3.8-60.3-5.6-9.1,101.5-18.2,203.1-27.3,304.6-32.5-2.9-65.1-5.6-97.6-8.1,7.7-101.6,15.5-203.3,23.2-304.9-20.1-1.5-40.1-3-60.2-4.3,1.6-25.6,3.3-51,5.1-76.5h0Zm-13-14.9l-1,13.9-5.2,76.3-1,13.9,13.9,1c15.3,1,30.8,2.1,46.1,3.3l-10.9,143.3-11.2,147.7-1.1,13.9,13.9,1.1c32.3,2.5,65.1,5.2,97.4,8.1l13.9,1.2,1.2-13.9,13-145.6,13-145.1c15.4,1.4,31,2.9,46.3,4.4l13.9,1.4,1.4-13.9,7-71.9.4-4.2,1.4-13.9-13.9-1.4c-74.5-7.3-150.2-13.5-224.9-18.6l-13.6-1h0Zm285.8,38.4c57,5.9,114,12.5,170.9,19.7-3.2,25.3-6.4,50.6-9.6,75.9-22.6-2.9-45.1-5.6-67.7-8.3-2.8,24-5.6,48-8.5,72,20.9,2.5,41.8,5,62.7,7.6-3,24.1-6.1,48.1-9.1,72.2-20.7-2.6-41.4-5.1-62.1-7.6-3.3,27.8-6.5,55.7-9.8,83.5,24.1,2.8,48.1,5.8,72.2,8.8-3.2,25.3-6.4,50.6-9.7,75.9-56.2-7.2-112.5-13.7-168.9-19.5,13.2-126.7,26.4-253.4,39.6-380.2h0Zm-12.5-15.3l-1.4,13.9-19.5,187.3-20.1,193-1.4,13.9,13.9,1.4c56,5.8,112.7,12.4,168.6,19.5l13.9,1.8,1.8-13.9,9.7-75.9,1.8-13.9-13.9-1.8c-19.4-2.5-39-4.9-58.4-7.2l.2-1.8,6.3-54c16,1.9,32.1,3.9,48.1,5.9l13.9,1.7,1.7-13.9,6.1-48.2,3-23.9,1.7-13.9-13.9-1.7c-16.2-2-32.6-4.1-49-6l5.2-44.2c17.9,2.1,35.9,4.3,53.7,6.6l13.9,1.8,1.8-13.9,4.7-37.1,4.9-38.8,1.8-13.9-13.9-1.8c-56.7-7.2-114.3-13.8-171.2-19.7l-14-1.3h0Zm244.4,43c56.9,7.7,113.6,16,170.4,24.9-4,25.2-7.9,50.4-11.9,75.6-22.5-3.5-45-7-67.5-10.3-3.5,23.9-7.1,47.8-10.6,71.7,20.9,3.1,41.7,6.3,62.6,9.5-3.8,24-7.5,47.9-11.3,71.9-20.6-3.2-41.3-6.4-61.9-9.5-4.1,27.7-8.2,55.4-12.3,83.2,24,3.6,48,7.2,72,11-4,25.2-8,50.4-12,75.6-56-8.9-112.2-17.1-168.4-24.7,16.9-126.3,33.9-252.6,50.9-378.9h0Zm-11.9-15.7l-1.9,13.9-23.4,174-27.6,204.9-1.9,13.9,13.9,1.9c55.8,7.5,112.4,15.8,168,24.6l13.8,2.2,2.2-13.8,12-75.6,2.2-13.8-13.8-2.2c-19.3-3.1-38.8-6.1-58.3-9l.6-4.3,7.6-51.2c16,2.4,32.1,4.9,48,7.4l13.8,2.2,2.2-13.8,11.3-71.9,2.2-13.8-13.8-2.2c-16.2-2.5-32.6-5.1-48.8-7.5l3.9-26.4,2.6-17.7c17.8,2.7,35.8,5.4,53.5,8.2l13.8,2.2,2.2-13.8,7.9-50.2,4-25.4,2.2-13.8-13.8-2.2c-56.5-8.9-114-17.3-170.7-24.9l-13.9-1.9h0Z"/></g><path class="cls-2" d="m1876.21,2372.44h95.42v-234.16h-95.42v-134.82h225.28v368.97h85.82v127.72h-311.1v-127.72Zm351.74-61.73v-119.21c0-128.43,50.25-198.68,159.22-198.68s159.22,70.25,159.22,198.68v119.21c0,139.78-50.25,200.1-159.22,200.1s-159.22-63.86-159.22-200.1Zm190.84,35.48v-188.74c0-26.25-5.65-43.99-31.62-43.99-24.28,0-30.49,17.74-30.49,43.99v188.74c0,26.25,6.21,43.99,30.49,43.99,25.97,0,31.62-17.74,31.62-43.99Zm164.86-35.48v-119.21c0-128.43,50.25-198.68,159.22-198.68s159.22,70.25,159.22,198.68v119.21c0,139.78-50.25,200.1-159.22,200.1s-159.22-63.86-159.22-200.1Zm190.84,35.48v-188.74c0-26.25-5.65-43.99-31.62-43.99-24.28,0-30.49,17.74-30.49,43.99v188.74c0,26.25,6.21,43.99,30.49,43.99,25.97,0,31.62-17.74,31.62-43.99Zm156.01-105.72c0-47.78,27.48-78.52,62.86-78.52s62.48,30.75,62.48,78.52-27.48,79-62.48,79-62.86-30.75-62.86-79Zm14.68,243.61l220.2-317.88,16.94,18.92-220.2,317.88-16.94-18.92Zm86.2-243.61c0-33.11-16.19-48.72-38.02-48.72s-38.39,15.61-38.39,48.72,16.19,49.2,38.39,49.2,38.02-15.61,38.02-49.2Zm40.27,187.8c0-47.78,27.48-78.52,62.86-78.52s62.48,30.75,62.48,78.52-27.48,79-62.48,79-62.86-30.75-62.86-79Zm100.88,0c0-33.11-16.19-48.72-38.02-48.72s-38.39,15.61-38.39,48.72,16.19,49.2,38.39,49.2,38.02-15.61,38.02-49.2Z"/></g></svg>