<?xml version="1.0" encoding="UTF-8"?><svg id="Layer_2" xmlns="http://www.w3.org/2000/svg" viewBox="0 0 39.72 64"><defs><style>.cls-1{fill:#0a476d;stroke-width:0px;}</style></defs><g id="Layer_1-2"><path class="cls-1" d="M19.86,0C8.89,0,0,8.89,0,19.86c0,2.72.55,5.31,1.54,7.67h0s0,0,0,0c.21.51,1.09,2.47,1.34,2.95,4.14,7.68,16.97,30.49,16.98,30.5,0,0,12.84-22.82,16.98-30.5.26-.48,1.13-2.45,1.34-2.95h0s0,0,0,0c.99-2.36,1.54-4.95,1.54-7.67C39.72,8.89,30.83,0,19.86,0ZM19.86,36.05c-8.94,0-16.19-7.25-16.19-16.19S10.92,3.67,19.86,3.67s16.19,7.25,16.19,16.19-7.25,16.19-16.19,16.19Z"/><path class="cls-1" d="M7.31,61.33c0,1.47,5.62,2.67,12.55,2.67s12.55-1.19,12.55-2.67-5.62-2.67-12.55-2.67-12.55,1.19-12.55,2.67Z"/><path class="cls-1" d="M28.7,15.77c0,2.46-.77,4.35-2.31,5.65-1.54,1.3-3.73,1.96-6.57,1.96h-2.08v8.14h-4.85V8.63h7.31c2.78,0,4.89.6,6.33,1.79,1.45,1.2,2.17,2.98,2.17,5.35ZM17.74,19.4h1.6c1.49,0,2.61-.29,3.35-.88.74-.59,1.11-1.45,1.11-2.57s-.31-1.98-.93-2.52c-.62-.54-1.59-.81-2.92-.81h-2.21v6.79Z"/></g></svg>