<?xml version="1.0" encoding="utf-8"?>
<!-- Generator: Adobe Illustrator 28.0.0, SVG Export Plug-In . SVG Version: 6.00 Build 0)  -->
<svg version="1.1" id="Layer_1" xmlns="http://www.w3.org/2000/svg" xmlns:xlink="http://www.w3.org/1999/xlink" x="0px" y="0px"
	 viewBox="0 0 800 800" style="enable-background:new 0 0 800 800;" xml:space="preserve">
<style type="text/css">
	.st0{fill-rule:evenodd;clip-rule:evenodd;fill:#2BA283;}
</style>
<g>
	<path class="st0" d="M481.2,639.5c125.5-80.6,195.2-174.4,209.2-281.4c21.7-166.6-127.3-248.2-202.8-174.9
		c-75.5,73.3-30.2,166.3,24.4,191.7c54.7,25.4,88.1,16.6,82.3,50.5c-5.8,34-83.6,128.2-151.9,172c-4.5,3.9-6.3,11.3-1.9,17
		c2.9,3.7,8.5,11.1,16.9,22C464.7,646,471.7,645.6,481.2,639.5z"/>
	<path class="st0" d="M150.8,639.5C276.3,558.9,346,465.1,359.9,358.1c21.7-166.6-127.3-248.2-202.8-174.9
		c-75.5,73.3-30.2,166.3,24.4,191.7c54.7,25.4,88.1,16.6,82.3,50.5c-5.8,34-83.6,128.2-151.9,172c-4.5,3.9-6.3,11.3-1.9,17
		c2.9,3.7,8.5,11.1,16.9,22C134.2,646,141.3,645.6,150.8,639.5z"/>
</g>
</svg>
