<?xml version="1.0" encoding="UTF-8"?><svg id="Layer_2" xmlns="http://www.w3.org/2000/svg" xmlns:xlink="http://www.w3.org/1999/xlink" viewBox="0 0 1313.89 1231.94"><defs><style>.cls-1{stroke-width:3.77px;}.cls-1,.cls-2{stroke:#442e1f;}.cls-1,.cls-2,.cls-3,.cls-4,.cls-5,.cls-6,.cls-7,.cls-8{fill:none;}.cls-1,.cls-2,.cls-5,.cls-6,.cls-7,.cls-8{stroke-linecap:round;stroke-linejoin:round;}.cls-2{stroke-width:3.75px;}.cls-9{fill:url(#Summer);}.cls-9,.cls-3,.cls-4,.cls-10,.cls-11,.cls-12,.cls-13,.cls-14,.cls-15,.cls-16,.cls-17,.cls-18,.cls-19,.cls-20,.cls-21,.cls-22,.cls-23,.cls-24,.cls-25,.cls-26{stroke-width:0px;}.cls-27{clip-path:url(#clippath);}.cls-28{clip-path:url(#clippath-1);}.cls-4{clip-rule:evenodd;}.cls-5{stroke:#fff;stroke-width:34px;}.cls-10{fill:#004f2a;}.cls-10,.cls-11,.cls-12,.cls-13,.cls-14,.cls-15,.cls-16,.cls-17,.cls-18,.cls-19,.cls-26{fill-rule:evenodd;}.cls-11{fill:#361c04;}.cls-12{fill:#442e1f;}.cls-13{fill:#5c4035;}.cls-14{fill:#2c1908;}.cls-15{fill:#60c4bd;}.cls-16,.cls-23{fill:#b01117;}.cls-17,.cls-25{fill:#fff;}.cls-18{fill:#992e19;}.cls-19{fill:#863811;}.cls-6{stroke-width:3.88px;}.cls-6,.cls-8{stroke:#000;}.cls-20{fill:#73bee3;}.cls-21{fill:#29abe2;}.cls-22{fill:#3b5866;}.cls-24{fill:#ff7a7a;}.cls-7{stroke:#006837;stroke-width:23px;}.cls-8{stroke-width:6.2px;}</style><clipPath id="clippath"><circle class="cls-3" cx="656.94" cy="630.87" r="501.4"/></clipPath><clipPath id="clippath-1"><path class="cls-4" d="M652.4,292.03c182.29-4.44,223.71,111.08,229.18,272.16,5.08,149.81-114.09,301.56-229.18,306.85-113.86,5.23-245.64-150.57-233.94-306.85,11.61-154.98,44.46-272.16,233.94-272.16Z"/></clipPath><radialGradient id="Summer" cx="874.83" cy="648.14" fx="874.83" fy="648.14" r="34.32" gradientUnits="userSpaceOnUse"><stop offset="0" stop-color="#fff"/><stop offset=".09" stop-color="#ffecd8"/><stop offset=".21" stop-color="#ffd4a7"/><stop offset=".33" stop-color="#ffc07d"/><stop offset=".46" stop-color="#ffb05a"/><stop offset=".59" stop-color="#ffa340"/><stop offset=".72" stop-color="#ff9a2d"/><stop offset=".86" stop-color="#ff9421"/><stop offset="1" stop-color="#ff931e"/></radialGradient></defs><g id="Layer_4"><circle class="cls-25" cx="652.59" cy="577.89" r="542.11"/><path class="cls-24" d="M542.29,871.66l31.28,31.11c12.47,12.4,7.64,37.41-10.78,55.87l-11.95,11.97c-18.42,18.45-43.46,23.36-55.93,10.96l-31.28-31.11,78.67-78.8Z"/><polygon class="cls-20" points="544.82 869.11 423.7 749.12 339.97 833.01 461.09 953 544.82 869.11"/><polygon class="cls-22" points="544.82 869.11 573.53 897.66 489.8 981.55 461.09 953 544.82 869.11"/><path class="cls-22" d="M369.25,812.98l3,17.67c.5,2.93-3.65,7.09-6.59,6.6l-25.69-4.25-17.08-100.56,100.81,16.67.03-.03,4.35,25.63c.5,2.93-3.65,7.09-6.59,6.6l-17.75-2.94c-2.94-.49-7.09,3.67-6.59,6.6l3.01,17.71c.5,2.93-3.65,7.09-6.59,6.6l-17.72-2.93c-2.94-.49-7.09,3.67-6.59,6.6Z"/><polygon class="cls-24" points="328.59 766 322.89 732.45 356.52 738.01 328.59 766"/><path class="cls-22" d="M412.34,155.32l-228.01,142.72c-1.02.64-2.35.37-2.96-.61s-.28-2.29.74-2.93l228.01-142.72c1.02-.64,2.35-.37,2.96.61s.28,2.29-.74,2.93Z"/><path class="cls-20" d="M313.39,265.85l-9.41,5.89h0s-2.57,1.61-2.57,1.61l-9.41,5.89c22.87,61.75,29.15,132.18,13.37,191.62l71.81,31.97,48.77-30.53,2.57-1.61,48.77-30.53,2.62-78.56c-60.37-11.78-120.97-48.2-166.52-95.76ZM403.02,432.82c-13.11,8.21-30.11,4.69-37.96-7.86s-3.59-29.37,9.52-37.58,30.11-4.69,37.96,7.86c7.85,12.55,3.59,29.37-9.52,37.58Z"/><rect class="cls-22" x="328.89" y="263.98" width="7.29" height="112.48" transform="translate(-119.24 225.23) rotate(-32.04)"/><rect class="cls-22" x="375.44" y="469.71" width="117.09" height="27.05" transform="translate(-190.27 303.9) rotate(-32.04)"/><path class="cls-22" d="M485.06,272.13c-1.11.7-2.57.46-3.32-.58-41.75-57.41-120.32-75.38-186.84-42.74-1.25.61-2.73.14-3.3-1.07-.58-1.2-.02-2.68,1.22-3.28,33.04-16.21,70.65-20.73,105.91-12.71,35.36,8.04,66.29,28.23,87.11,56.86.78,1.08.5,2.61-.63,3.42-.05.03-.09.06-.14.09Z"/><path class="cls-22" d="M222.64,436.4s-.1.06-.15.09c-1.22.66-2.72.25-3.35-.93-16.62-31.17-21.23-67.8-12.98-103.14,8.22-35.2,28.68-67.07,57.62-89.73,1.09-.86,2.66-.71,3.49.33.83,1.04.62,2.58-.48,3.44-58.36,45.7-76.54,124.22-43.22,186.71.6,1.13.18,2.54-.93,3.24Z"/><polygon class="cls-24" points="274.4 259.12 302.99 241.22 293.86 226.64 285.86 213.87 257.27 231.76 265.27 244.54 274.4 259.12"/><polygon class="cls-24" points="405.91 176.8 434.5 158.9 425.37 144.32 417.37 131.54 388.78 149.44 396.78 162.22 405.91 176.8"/><rect class="cls-24" x="475.78" y="267.44" width="33.73" height="32.28" transform="translate(1060.69 262.56) rotate(147.96)"/><rect class="cls-24" x="212.76" y="432.08" width="33.73" height="32.28" transform="translate(662.08 706.32) rotate(147.96)"/><path class="cls-24" d="M1057.21,413.78s8.58-8.15,16.28-19.84c37.23-56.52,21.4-132.64-35.36-170.03-56.76-37.39-132.95-21.88-170.18,34.64-7.49,11.37-11.81,22.8-11.81,22.8-8.69,23.9-3.75,39.13-5.88,71.51-.62,9.41-2.04,23.43-5.79,40.58,37.43,24.65,74.86,49.31,112.28,73.97,11.87-9.22,22.11-15.19,28.62-18.7,32.47-17.47,50.88-15.77,71.82-34.92Z"/><path class="cls-25" d="M915.87,436.63c-2.52-1.66-3.23-5.06-1.57-7.58l49.33-75.85-14.85-9.79-49.34,75.88c-1.66,2.52-5.06,3.23-7.58,1.57-2.52-1.66-3.23-5.06-1.57-7.58l49.33-75.85-1.54-1c-2.16-1.4-4-2.59-5.37-3.45l-.47-.3c-4.58-3.01-7.4-6.85-8.39-11.41-1.43-6.6,1.54-12.43,3.43-15.31,3.47-5.28,7.92-8.6,12.87-9.58,4.65-.92,9.35.16,13.97,3.19l.63.42c12.07,8.23,10.81,17.64,8.45,21.46l-8.42,12.82,14.86,9.79,7.6-11.56c3.22-4.9,7.31-6.34,10.17-6.69,4.94-.6,9.47,1.57,12.4,3.49,1.5.99,2.59,1.92,3.11,2.38,5.03,4.26,11.44,14.5,3.77,26.17-7.79,11.85-20.3,9.58-25.84,6.72l-.37-.19-7.73-5.14-49.31,75.82c-1.66,2.52-5.06,3.23-7.58,1.57ZM948.35,308.86c-2.3-1.51-4.34-2.1-6.07-1.76-2,.4-4.02,2.08-5.85,4.85-.6.91-2.51,4.11-1.89,6.99.36,1.64,1.63,3.22,3.69,4.57l.32.2c1.42.9,3.33,2.12,5.55,3.56l1.52.99,8.27-12.59-.12-.71c-.14-.82-.92-3.03-5.18-5.94l-.26-.17ZM993.87,338.52c-1.19-.78-3.45-2.07-5.16-1.85-.53.07-1.34.33-2.32,1.83l-7.62,11.59,7.24,4.8.23.12c4.48,1.98,8.7.79,11.31-3.18,2.7-4.1,2.05-8.52-1.72-11.82-.57-.51-1.25-1.03-1.96-1.5Z"/><path class="cls-22" d="M933.06,494.02l-101.74-67.09c-8.82-5.82-11.25-17.68-5.44-26.5h0c5.82-8.82,17.68-11.25,26.5-5.44l101.74,67.09c8.82,5.82,11.25,17.68,5.44,26.5h0c-5.82,8.82-17.68,11.25-26.5,5.44Z"/><path class="cls-22" d="M900.25,519.82l-79.71-52.56c-8.82-5.82-11.25-17.68-5.44-26.5h0c5.82-8.82,17.68-11.25,26.5-5.44l79.71,52.56c8.82,5.82,11.25,17.68,5.44,26.5h0c-5.82,8.82-17.68,11.25-26.5,5.44Z"/><path class="cls-22" d="M819.88,469.66c-1.11,14.05,9.43,31.6,27.56,43.55,18.13,11.95,38.4,14.72,50.88,8.17l-78.44-51.72Z"/><g class="cls-27"><path class="cls-17" d="M652.62,1148.02c59.87,1.91,157.72-7.79,193.87-34.11,60.44-44,13.46-87.48-17.03-90.26-71.64-6.54-104.97-36.12-112.38-67.73-14.12-60.19,0-105.93,0-105.93h-64.46M652.62,1148.02c-59.88,1.91-157.73-7.79-193.87-34.11-60.44-44-13.46-87.48,17.03-90.26,71.63-6.54,104.96-36.12,112.37-67.73,14.12-60.19,0-105.93,0-105.93h64.47"/><path class="cls-12" d="M652.62,853.95l-56.02,2.12c1.67,6.58,3.81,17.01,4.86,30.36.4,5.1.64,10.65.47,16.55-.44,15.86-3.17,34.24-8.77,54.12-4.69,16.71-16.29,32.36-36.27,44.8-8.68,5.41-18.91,10.3-30.98,14.44-14.04,4.83-30.47,8.87-49.78,11.13-15.92,1.99-36.56,16.31-40.08,35.56-2.48,13.56,4.52,28.99,27.32,44.55,6.82,4.8,16.01,8.78,26.67,12.36,13.21,4.43,28.66,8.08,45.11,10.93,39.3,6.82,84.12,9.29,117.18,8.13h.11s.18,0,.18,0h.17s.06,0,.06,0h.05c33.06,1.16,77.88-1.31,117.18-8.13,16.45-2.86,31.9-6.5,45.11-10.93,10.67-3.58,19.85-7.56,26.68-12.36,22.79-15.56,29.8-30.99,27.31-44.55-3.52-19.24-24.16-33.57-40.08-35.56-19.32-2.26-35.74-6.3-49.78-11.13-12.07-4.15-22.3-9.03-30.98-14.44-19.98-12.44-31.59-28.09-36.27-44.8-5.6-19.87-8.33-38.26-8.77-54.12-.16-5.9.07-11.45.47-16.55,1.05-13.35,3.19-23.78,4.86-30.36l-56.02-2.12ZM652.62,846.04l-64.47-2.44-6.1,8.27s3.34,13.62,4.41,35.5c.24,4.8.37,9.98.46,15.51.26,15.04-.15,32.61-3.77,51.85-2.9,15.29-11.9,30.59-29.25,42.6-8.08,5.59-17.95,10.4-29.6,14.15-13.74,4.41-30.01,7.1-48.87,8.34-19.5,1.13-45.21,17.58-50.98,40.69-4.26,17.07,1.85,38.15,29.68,59.73,7.73,5.82,18.12,11.05,30.41,15.48,13.86,5,30.2,9,47.56,12.18,40.36,7.39,86.44,10.09,120.52,9.13,34.07.96,80.16-1.74,120.51-9.13,17.36-3.18,33.69-7.18,47.56-12.18,12.29-4.43,22.68-9.66,30.41-15.48,27.84-21.59,33.94-42.67,29.68-59.73-5.77-23.11-31.48-39.56-50.98-40.69-18.86-1.24-35.13-3.93-48.86-8.34-11.66-3.74-21.53-8.56-29.6-14.15-17.35-12-26.36-27.31-29.25-42.6-3.62-19.24-4.03-36.81-3.77-51.85.09-5.54.22-10.72.46-15.51,1.07-21.88,4.41-35.5,4.41-35.5l-6.1-8.27-64.46,2.44Z"/><path class="cls-15" d="M717.08,955.92c7.41,31.61,40.74,61.19,112.38,67.73,30.49,2.78,77.47,46.26,17.03,90.26-36.14,26.31-133.99,36.25-193.87,34.34v-.23c-59.88,1.91-157.73-7.79-193.87-34.11-60.44-44-13.46-87.48,17.03-90.26,71.63-6.54,104.96-36.12,112.37-67.73h128.93Z"/><path class="cls-12" d="M652.78,1148.25l-.17,10.41h0s-.17-10.64-.17-10.64c-59.88,1.89-157.59-7.82-193.7-34.11-60.44-44-13.46-87.48,17.03-90.26,71.63-6.54,104.96-36.12,112.37-67.73h128.93c7.41,31.61,40.74,61.19,112.38,67.73,30.49,2.78,77.47,46.26,17.03,90.26-36.11,26.29-133.81,36.23-193.7,34.34ZM652.36,1158.66l.25.25c33.99,2.43,80.66,1.8,121.72-4.37,34.27-5.15,64.49-14.73,82.07-27.02,33.44-23.98,39.7-49.3,35.49-69.41-5.99-28.59-36.99-49.72-60.84-52.02-25.52-2.41-45.71-7.88-61.17-15.56-20.37-10.11-31.79-23.88-35.23-38.73l-17.57-3.79-128.93-5.75-13.29,10.54c-2.65,9.82-8.95,18.88-18.41,27.11-5.47,4.76-12.06,9.12-19.81,13.22-15.7,8.29-35.79,15.52-61.88,19.29-20.93,3.12-47.82,22.27-52,47.72-2.85,17.33,3.77,38.31,33.07,57.78,16.18,12.14,44.71,20.88,76.73,27.46,40.09,8.24,85.74,13,119.82,13.26Z"/><path class="cls-23" d="M943.07,931.88c-9.44,2.47-58.6-21.85-65.05-16.43-4.42,3.72-4.07,12.01.07,21.53-8.66-5.71-16.78-7.49-21.19-3.77-6.45,5.42,9.06,58.03,5.01,66.91l-.79,1.74-.18.39.46-.29c12.57,4.6,36.61,13.55,53.54,19.86,10.43,3.89,21.48-1.34,24.66-11.68,10.73-1.36,17.78-11.34,15.73-22.29-3.31-17.76-8-42.98-10.37-56.15l.36-.41-2.26.59ZM918.41,958.88c-1.42,2.13-2.69,4.38-3.77,6.79l-4.31,9.64-10.24,2.59c-2.55.64-4.99,1.51-7.33,2.54,2.08-2.58,3.75-5.57,4.95-8.94l2.81-7.87,8.23-1.41c3.52-.6,6.75-1.74,9.66-3.35h0Z"/><path class="cls-12" d="M941.75,928.37h0s.04-.03.04-.03l-.03.03ZM941.59,928.59c-.67.92-.99,2.08-.83,3.29.23,1.8,1.47,3.24,3.11,3.79-.3.06-.62.11-.97.14.41.21.85.36,1.32.44l-.13-.5h0s-.22-.07-.22-.07l.19-.04.03.11.4.09.3.04-3.2-7.29ZM944.92,936.19l.05.12c-.14,0-.28,0-.41-.02l.36-.1ZM911.76,965.24l-2.86,8.57c-.54.14-1.28.32-2.1.48-3.09.61-7.36,1.08-7.36,1.08l-.3.05c.39-.98.74-1.98,1.04-3.02l2.12-6.47,7-.47c.84-.03,1.65-.11,2.46-.21ZM915.43,955.35l2.98,8.17,1.86-.68-.18.24.57-.15-.65.24-2.74,3.66-5.26,9.22c-.23.51-.68.89-1.22,1.03,0,0-1.38.27-3.07.79-3,.93-6.99,2.55-6.99,2.55l-6.68,2.94c-1.35.6-2.93.19-3.83-.98-.89-1.17-.87-2.8.05-3.95,1.01-1.13,1.93-2.35,2.76-3.68.81-1.3,1.57-2.66,2.21-4.14l3.01-7.8c.29-.82,1.01-1.42,1.87-1.57l8.09-2.26c1.51-.47,2.88-1.1,4.24-1.78,1-.5,1.91-1.09,2.79-1.72l.19-.17h0s0,0,0,0h0s0,.03,0,.03l-.14.11-.04.03c-1.11,1.04-1.65,2.58-1.4,4.11.42-.98.88-1.92,1.36-2.88l.23-1.37h.01s0-.03,0-.03c.23-.19.47-.36.74-.51l-.73.53ZM861.34,1004.89h0s.12-.08.12-.08h0s-.13.08-.13.08ZM861.42,1005.08h-.01s0,.05,0,.05v-.05ZM941.15,935.83l11.22,52.57c.97,4.6.09,9.06-2.22,12.53-2.38,3.57-6.19,6.13-10.84,6.79-.95.12-1.73.78-2.01,1.69-1.38,4.54-4.48,7.99-8.42,9.8-3.88,1.79-8.55,1.97-13.05.25l-50.52-19.43c.43-1.67.61-3.98.46-6.78-.65-11.93-6.43-34.36-7.95-48.4-.35-3.25-.5-6.02-.24-8.04.12-.97.19-1.74.61-2.11,1.73-1.5,4.22-1.89,7.11-1.41,3.53.58,7.59,2.42,11.8,5.19.67.45,1.56.39,2.18-.13.62-.52.82-1.38.5-2.13-1.94-4.63-2.98-8.95-2.91-12.52.05-2.87.82-5.19,2.57-6.6.4-.33,1.12-.23,2.03-.19,2.02.1,4.71.71,7.83,1.61,13.56,3.94,34.66,13.52,46.26,16.41,2.14.53,4.03.81,5.59.87ZM860.62,1004.24v.02s-2.41-3.7-2.41-3.7l-.14.32,2.61,4.11-.36-.06.41.15.22.34.37-.13,52.75,18.86c5.83,2.12,11.8,1.7,16.79-.63,4.68-2.18,8.52-6.04,10.54-11.19,5.52-1,10.09-4.09,13.15-8.33,3.3-4.55,4.8-10.46,3.77-16.71,0,0-8.82-56.41-8.82-56.41l-4.18,5-3.46-7.65.06-.06.17-.04-.03-.11c.57-.57,1.28-1,2.11-1.21l-2.27.57.16.64-.04.04-.09.11c-1.67.38-4.7-.3-8.54-1.27-11.68-2.98-29.27-9.67-41.47-12.78-7.53-1.92-13.3-2.11-15.31-.36-2.54,2.22-3.84,5.65-3.77,9.96.04,2.69.6,5.75,1.66,9.03-3.04-1.55-5.95-2.58-8.58-3.06-4.17-.75-7.71-.09-10.28,2-2.05,1.65-2.81,7.3-2.21,14.95.85,10.83,3.57,26.05,5.06,37.75.86,6.73,1.56,12.14.53,14.39l-.79,1.74,2.39,3.72Z"/></g><path class="cls-18" d="M650.02,190.24c17.31-29.48,51.91-29.48,69.22-14.74,17.3,14.74,17.3,44.22,0,73.7-12.11,22.11-43.26,44.22-69.22,58.96-25.95-14.74-57.1-36.85-69.22-58.96-17.3-29.48-17.3-58.96,0-73.7,17.3-14.74,51.91-14.74,69.22,14.74Z"/><path class="cls-11" d="M650.02,190.24c17.31-29.48,51.91-29.48,69.22-14.74,17.3,14.74,17.3,44.22,0,73.7-12.11,22.11-43.26,44.22-69.22,58.96-25.95-14.74-57.1-36.85-69.22-58.96-17.3-29.48-17.3-58.96,0-73.7,17.3-14.74,51.91-14.74,69.22,14.74ZM663.35,166.51c-11.55-12.77-25.44-20.03-39.71-22.42-21.42-3.58-43.12,2.37-56.72,15.11-11.65,10.91-18.73,25.74-18.88,43.44-.14,16.8,5.1,36.42,17.52,55.51,6.24,10.23,16.37,21.03,28.69,30.79,15.07,11.93,32.98,22.74,49.11,30.96h13.33c15.21-9.5,32.1-21.53,45.96-34.59,10.8-10.18,19.87-20.85,25.13-31.43,9.78-17.71,14.02-35.51,12.84-50.6-1.09-13.96-6.5-25.78-16.26-33.78-11.15-9.23-28.14-13.55-44.57-9.76-5.63,1.3-11.2,3.51-16.43,6.78Z"/><path class="cls-17" d="M652.4,292.03c181.44,1.71,226.58,122.43,229.18,272.16,3.3,190.14-118.95,305.94-229.18,306.85-117.97.97-249.89-136.68-233.94-306.85,14.51-154.74,44.46-272.16,233.94-272.16Z"/><g class="cls-28"><path class="cls-19" d="M637.47,286.31c-122.24,12.26-163.15,34.97-192.18,74.72-26.31,36.02,13.1,65.99,34.19,63.18,7.18-.96,347.75,9.18,386.46-4.56,6.95-37.04-95.9-146.64-228.46-133.34Z"/><path class="cls-11" d="M636.8,286.31c-121.83,12.26-162.6,34.97-191.54,74.72-26.22,36.02,13.05,65.99,34.07,63.18,7.16-.96,346.58,9.18,385.16-4.56,6.93-37.04-95.58-146.64-227.7-133.34ZM636.64,284.75c-57.01,5.74-96.33,13.77-125,24.74-33.04,12.64-52.05,29.18-67.65,50.62-12.16,16.7-10.72,32.16-3.54,43.9,8.94,14.62,26.97,23.39,39.1,21.77,4.77-.64,157.24,3.67,269.71,2.53,56.45-.57,102.87-2.57,115.77-7.17l1.02-1.19c1.35-7.2-1.19-17.07-7.27-28.21-13.18-24.2-43.02-54.76-83.66-77.21-38.24-21.12-86.04-35.06-138.47-29.78Z"/></g><path class="cls-14" d="M652.4,292.03c177,0,225.31,112.71,229.18,272.16,3.85,158.85-120.72,305.74-229.18,306.85-111.85,1.15-240.9-141.82-233.94-306.85,6.55-155.28,44.46-272.16,233.94-272.16ZM652.4,286.57c-95.56-1.16-154.52,27.62-190.76,75.38-37.68,49.65-50.68,120.55-53.56,202-2.84,69.11,19.65,150.81,61.05,210.16,48.71,69.82,122.04,110.81,183.28,111.35,59.88.39,132.18-44.02,181.18-114.62,41.14-59.28,62.44-138.03,64.82-206.65,2.5-71.77-7.62-145.41-51.18-205.43-38.07-52.45-102.3-83.02-194.82-85.34v13.14Z"/><path class="cls-13" d="M457.96,585.13c9.91-35.59,36.04-50.47,62.97-51.8,11.9-.59,23.96,1.41,34.92,5.48,18.01,6.68,33.04,18.87,39.32,34.21.18.47.71.7,1.18.52.47-.18.7-.71.52-1.18-5.96-16.2-21.13-29.52-39.65-37.07-11.35-4.63-23.97-7.1-36.47-6.74-29.08.81-57.47,16.66-68.75,54.88-.48,1.64.48,3.36,2.12,3.83,1.64.48,3.36-.48,3.83-2.12Z"/><path class="cls-1" d="M594.98,576.65l-.27,4.64c-3.11,22.88-32.27,41.38-68.09,42.19-33.26.75-61.37-13.98-68.37-34.3"/><path class="cls-16" d="M490.11,576.73c9.19-1.77,18.95-3.03,29.04-3.79,16.54-1.26,33.96-1.17,51.25.22.14,1.42.22,2.85.22,4.31,0,22.9-18.04,41.5-40.26,41.5s-40.25-18.59-40.25-41.5c0-.24,0-.49,0-.73Z"/><path class="cls-8" d="M490.11,576.73c9.19-1.77,18.95-3.03,29.04-3.79,16.54-1.26,33.96-1.17,51.25.22.14,1.42.22,2.85.22,4.31,0,22.9-18.04,41.5-40.26,41.5s-40.25-18.59-40.25-41.5c0-.24,0-.49,0-.73Z"/><path class="cls-16" d="M502.11,574.75c5.55-.77,11.24-1.37,17.04-1.81,12.69-.97,25.89-1.14,39.16-.54.28,1.64.42,3.34.42,5.06,0,16.15-12.71,29.25-28.38,29.25s-28.37-13.11-28.37-29.25c0-.91.04-1.81.12-2.71Z"/><path class="cls-8" d="M502.11,574.75c5.55-.77,11.24-1.37,17.04-1.81,12.69-.97,25.89-1.14,39.16-.54.28,1.64.42,3.34.42,5.06,0,16.15-12.71,29.25-28.38,29.25s-28.37-13.11-28.37-29.25c0-.91.04-1.81.12-2.71Z"/><path class="cls-16" d="M514.63,573.32c1.5-.14,3-.26,4.52-.38,8.84-.67,17.94-.96,27.14-.87.55,1.7.85,3.51.85,5.4,0,9.39-7.4,17.01-16.5,17.01s-16.5-7.62-16.5-17.01c0-1.43.17-2.82.5-4.14Z"/><path class="cls-8" d="M514.63,573.32c1.5-.14,3-.26,4.52-.38,8.84-.67,17.94-.96,27.14-.87.55,1.7.85,3.51.85,5.4,0,9.39-7.4,17.01-16.5,17.01s-16.5-7.62-16.5-17.01c0-1.43.17-2.82.5-4.14Z"/><path class="cls-26" d="M530.36,572.41c-2.7,0-4.89,2.26-4.89,5.05s2.19,5.05,4.89,5.05l1.91-.4c1.76-.76,2.99-2.56,2.99-4.65s-1.24-3.88-2.99-4.65l-1.91-.4Z"/><path class="cls-8" d="M530.36,572.41c-2.7,0-4.89,2.26-4.89,5.05s2.19,5.05,4.89,5.05l1.91-.4c1.76-.76,2.99-2.56,2.99-4.65s-1.24-3.88-2.99-4.65l-1.91-.4Z"/><path class="cls-26" d="M532.27,572.81c1.76.77,2.99,2.56,2.99,4.65s-1.24,3.89-2.99,4.65l-1.91.4c-2.7,0-4.89-2.26-4.89-5.05s2.19-5.05,4.89-5.05l1.91.4Z"/><path class="cls-6" d="M532.27,572.81c1.76.77,2.99,2.56,2.99,4.65s-1.24,3.89-2.99,4.65l-1.91.4c-2.7,0-4.89-2.26-4.89-5.05s2.19-5.05,4.89-5.05l1.91.4Z"/><path class="cls-14" d="M446.15,597.47c19.09-13.83,45.4-21.33,73.96-24.34,25.54-2.69,52.85-2.01,78.89,3.41l1.44-8.75c-26.47-8.39-54.58-12.86-81.08-11.97-31.18,1.05-59.9,9.53-81.02,23.79l7.81,17.86Z"/><path class="cls-16" d="M641.39,736.8c-8.17-20.84-19.2-52.12-19.2-69.12,0-15.36,12.47-27.84,27.84-27.84s27.83,12.48,27.83,27.84c0,17.01-11.03,48.29-19.2,69.12,8.17,20.83,19.2,52.12,19.2,69.12,0,15.36-12.47,27.84-27.83,27.84s-27.84-12.47-27.84-27.84c0-17,11.03-48.29,19.2-69.12Z"/><path class="cls-12" d="M641.39,736.8c-8.17-20.84-19.2-52.12-19.2-69.12,0-15.36,12.47-27.84,27.84-27.84s27.83,12.48,27.83,27.84c0,17.01-11.03,48.29-19.2,69.12,8.17,20.83,19.2,52.12,19.2,69.12,0,15.36-12.47,27.84-27.83,27.84s-27.84-12.47-27.84-27.84c0-17,11.03-48.29,19.2-69.12ZM636.58,738.68l2.21-2.91c-4.79,11.8-10.55,26.94-14.67,40.97-3.26,11.1-5.47,21.53-5.55,29.17-.07,8.7,3.4,16.64,9.1,22.36,5.71,5.72,13.64,9.2,22.36,9.16,8.66-.11,16.47-3.68,22.08-9.43,5.56-5.71,8.98-13.5,8.86-22.08-.08-7.61-2.36-17.97-5.52-29.04-3.88-13.62-9.08-28.36-13.59-40.06,4.67-11.65,10.14-26.33,14.11-39.95,3.24-11.11,5.45-21.54,5.53-29.19.08-8.71-3.41-16.63-9.08-22.4-5.7-5.81-13.63-9.42-22.4-9.5-8.84-.08-16.85,3.46-22.7,9.2-5.89,5.77-9.54,13.81-9.62,22.7-.07,7.73,1.97,18.3,5.03,29.57,3.85,14.18,9.3,29.49,13.85,41.44Z"/><path class="cls-11" d="M414.07,524.42s7.17-14.89,21.01-29.16c7.49-7.72,16.96-15.09,28.31-19.73,14.79-5.92,30.08-5.97,45.9-2.7,21.7,4.48,43.63,15.94,65.98,29.21l14.31-29.73c-27.04-10.23-53.35-18.26-77.98-19.02-19.16-.59-37.04,2.56-53.12,12.49-11.5,6.97-20.55,16.52-27.42,26.12-11.79,16.51-16.98,32.52-16.98,32.52Z"/><path class="cls-11" d="M875.72,524.42s-5.19-16.01-16.98-32.52c-6.86-9.61-15.91-19.15-27.42-26.12-16.08-9.92-33.96-13.08-53.12-12.49-24.64.76-50.94,8.8-77.98,19.02l14.31,29.73c22.35-13.27,44.28-24.73,65.98-29.21,15.82-3.27,31.12-3.22,45.9,2.7,11.34,4.65,20.82,12.01,28.31,19.73,13.84,14.27,21.01,29.16,21.01,29.16Z"/><path class="cls-11" d="M796.13,333c-7.82,9.48-13.32,17.48-14.99,29.15-1.2,8.4-.38,18.71,3.14,32.89,3.03,12.93,12.36,24.96,25.18,32.51,11.57,6.82,26,9.77,42.34,6,3.8-1.17,5.94-5.21,4.76-9.02-1.17-3.8-5.21-5.94-9.02-4.76-12.45,4.86-24.32,4.43-34.09.06-11.71-5.24-20.31-15.38-23.8-26.27-4.06-13.25-5.44-22.96-4.71-30.97,1-11.11,5.98-18.89,12.94-28.22.38-.48.29-1.17-.19-1.55-.48-.38-1.17-.29-1.55.19Z"/><path class="cls-11" d="M763.42,307.44c-10.96,12.14-21.41,24.38-27.76,39.22-5.73,13.39-8.11,28.86-4.51,48.3,2.27,13.35,11.85,25.68,25.25,33.21,11.78,6.62,26.55,9.3,42.73,5.39,3.8-1.17,5.94-5.21,4.77-9.02-1.17-3.8-5.21-5.94-9.02-4.76-12.39,4.68-24.4,4.19-34.25-.1-11.78-5.13-20.42-15.05-23.18-26.03-4.24-18.04-2.74-32.65,2.07-45.43,5.55-14.74,15.38-27.04,25.58-39.32.4-.46.35-1.16-.11-1.56-.46-.4-1.16-.35-1.56.11Z"/><path class="cls-11" d="M732.52,293.04c-17.25,9.93-32.54,24.9-42.73,42.38-10.51,18.03-15.5,38.74-11.6,59.6,2.28,13.43,11.89,25.88,25.41,33.4,11.82,6.59,26.68,9.16,42.86,5.13,3.8-1.17,5.94-5.21,4.76-9.02-1.17-3.8-5.21-5.94-9.02-4.76-12.37,4.58-24.33,3.96-34.12-.36-11.67-5.14-20.29-14.94-23.02-25.84-4.5-19.3-.59-38.83,8.54-56.05,9.21-17.36,23.65-32.36,40.06-42.6.52-.32.69-1,.38-1.52-.31-.52-.99-.69-1.51-.38Z"/><path class="cls-11" d="M688.29,292.92c-24.23,6.48-41.26,20.59-51.75,37.9-11.67,19.25-15.18,42.53-11.11,64.21,2.29,13.46,11.91,25.94,25.45,33.47,11.84,6.57,26.71,9.12,42.9,5.05,3.8-1.17,5.94-5.21,4.76-9.02-1.17-3.8-5.21-5.94-9.02-4.76-12.36,4.54-24.31,3.88-34.09-.43-11.64-5.14-20.25-14.9-22.97-25.78-4.68-20.12-2.33-42.07,7.89-60.52,9.43-17,25.49-30.97,48.54-37.99.58-.17.93-.78.75-1.37-.17-.58-.78-.93-1.36-.75Z"/><path class="cls-11" d="M638.65,292.93c-21.24,6.66-39.11,21.15-51.07,38.88-12.86,19.06-18.82,41.89-14.81,63.22,2.29,13.46,11.91,25.94,25.45,33.46,11.84,6.58,26.71,9.12,42.9,5.05,3.8-1.17,5.94-5.21,4.76-9.02-1.17-3.8-5.21-5.94-9.02-4.76-12.36,4.55-24.31,3.89-34.09-.43-11.64-5.14-20.25-14.9-22.97-25.78-4.58-19.68.21-41.15,11.49-59.35,10.88-17.56,27.77-32.04,48.06-39.17.58-.19.89-.82.7-1.4s-.82-.89-1.4-.7Z"/><path class="cls-19" d="M523.44,322.8c-42.35,16.55-85.89,37.05-85.92,70.91-.02,23.05,24.07,42.46,54.89,32.95"/><path class="cls-11" d="M522.57,320.57c-23.29,8.85-46.84,19.03-63.76,31.7-15.16,11.34-25.01,24.83-25.4,41.44-.56,14.29,7.29,27.47,20.06,35.19,10.66,6.44,24.89,8.85,41.06,4.65,3.8-1.17,5.94-5.21,4.76-9.02-1.17-3.8-5.21-5.94-9.02-4.76-11.97,4.29-22.97,3.66-31.48-.56-10.14-5.03-16.77-14.65-17.16-25.49-.32-14.42,8.07-26.37,20.9-36.63,16.15-12.89,39.18-22.98,61.78-32.04,1.24-.49,1.84-1.88,1.36-3.12-.48-1.24-1.88-1.85-3.11-1.36Z"/><path class="cls-19" d="M574.69,304.61c-83.3,10.94-101.5,49.78-93.11,89.69,4.74,22.56,31.9,41.88,62.71,32.36"/><path class="cls-11" d="M574.38,302.22c-42.44,5.23-68.24,17.97-82.76,34.07-15.16,16.83-18.33,37.59-14.32,58.9,2.39,13.63,12.15,26.33,25.96,33.82,11.95,6.49,26.97,8.86,43.15,4.54,3.8-1.17,5.94-5.21,4.76-9.02-1.17-3.8-5.21-5.94-9.02-4.76-12.33,4.33-24.17,3.43-33.84-.95-11.39-5.16-19.85-14.72-22.47-25.42-4.38-18.82-2.63-37.62,10.44-53,13.41-15.78,38.25-27.77,78.71-33.41,1.31-.17,2.24-1.38,2.07-2.69-.18-1.32-1.39-2.24-2.7-2.07Z"/><path class="cls-11" d="M606.82,292.9c-31.23,5.54-52.72,17.04-66.72,31.34-19.92,20.37-24.76,46.6-20.18,70.83,2.3,13.5,11.93,26.05,25.54,33.57,11.87,6.56,26.78,9.05,42.97,4.91,3.8-1.17,5.94-5.21,4.77-9.02-1.17-3.8-5.21-5.94-9.02-4.76-12.35,4.49-24.27,3.75-34.02-.57-11.59-5.14-20.18-14.84-22.89-25.67-5.14-22.22-1.62-46.69,16.12-66.18,13.07-14.37,33.72-25.96,63.84-32.28.6-.11.99-.7.87-1.29-.11-.6-.69-.99-1.29-.88Z"/><path class="cls-13" d="M841.72,585.13c-9.91-35.59-36.04-50.47-62.97-51.8-11.9-.59-23.96,1.41-34.92,5.48-18.01,6.68-33.04,18.87-39.32,34.21-.18.47-.71.7-1.18.52-.47-.18-.7-.71-.52-1.18,5.96-16.2,21.13-29.52,39.65-37.07,11.35-4.63,23.97-7.1,36.47-6.74,29.08.81,57.47,16.66,68.75,54.88.48,1.64-.48,3.36-2.12,3.83-1.64.48-3.36-.48-3.83-2.12Z"/><path class="cls-2" d="M704.57,576.65l.27,4.64c3.08,22.88,31.91,41.38,67.32,42.19,32.89.75,60.68-13.98,67.61-34.3"/><path class="cls-16" d="M809.57,576.73c-9.19-1.77-18.95-3.03-29.04-3.79-16.54-1.26-33.96-1.17-51.25.22-.14,1.42-.22,2.85-.22,4.31,0,22.9,18.04,41.5,40.26,41.5s40.25-18.59,40.25-41.5c0-.24,0-.49,0-.73Z"/><path class="cls-8" d="M809.57,576.73c-9.19-1.77-18.95-3.03-29.04-3.79-16.54-1.26-33.96-1.17-51.25.22-.14,1.42-.22,2.85-.22,4.31,0,22.9,18.04,41.5,40.26,41.5s40.25-18.59,40.25-41.5c0-.24,0-.49,0-.73Z"/><path class="cls-16" d="M797.57,574.75c-5.55-.77-11.24-1.37-17.04-1.81-12.69-.97-25.89-1.14-39.16-.54-.28,1.64-.42,3.34-.42,5.06,0,16.15,12.71,29.25,28.38,29.25s28.37-13.11,28.37-29.25c0-.91-.04-1.81-.12-2.71Z"/><path class="cls-8" d="M797.57,574.75c-5.55-.77-11.24-1.37-17.04-1.81-12.69-.97-25.89-1.14-39.16-.54-.28,1.64-.42,3.34-.42,5.06,0,16.15,12.71,29.25,28.38,29.25s28.37-13.11,28.37-29.25c0-.91-.04-1.81-.12-2.71Z"/><path class="cls-16" d="M785.04,573.32c-1.5-.14-3-.26-4.52-.38-8.84-.67-17.94-.96-27.14-.87-.55,1.7-.85,3.51-.85,5.4,0,9.39,7.4,17.01,16.5,17.01s16.5-7.62,16.5-17.01c0-1.43-.17-2.82-.5-4.14Z"/><path class="cls-8" d="M785.04,573.32c-1.5-.14-3-.26-4.52-.38-8.84-.67-17.94-.96-27.14-.87-.55,1.7-.85,3.51-.85,5.4,0,9.39,7.4,17.01,16.5,17.01s16.5-7.62,16.5-17.01c0-1.43-.17-2.82-.5-4.14Z"/><path class="cls-26" d="M769.32,572.41c2.7,0,4.89,2.26,4.89,5.05s-2.19,5.05-4.89,5.05l-1.91-.4c-1.76-.76-2.99-2.56-2.99-4.65s1.24-3.88,2.99-4.65l1.91-.4Z"/><path class="cls-8" d="M769.32,572.41c2.7,0,4.89,2.26,4.89,5.05s-2.19,5.05-4.89,5.05l-1.91-.4c-1.76-.76-2.99-2.56-2.99-4.65s1.24-3.88,2.99-4.65l1.91-.4Z"/><path class="cls-26" d="M767.41,572.81c-1.76.77-2.99,2.56-2.99,4.65s1.24,3.89,2.99,4.65l1.91.4c2.7,0,4.89-2.26,4.89-5.05s-2.19-5.05-4.89-5.05l-1.91.4Z"/><path class="cls-6" d="M767.41,572.81c-1.76.77-2.99,2.56-2.99,4.65s1.24,3.89,2.99,4.65l1.91.4c2.7,0,4.89-2.26,4.89-5.05s-2.19-5.05-4.89-5.05l-1.91.4Z"/><path class="cls-14" d="M853.53,597.47c-19.09-13.83-45.4-21.33-73.96-24.34-25.54-2.69-52.85-2.01-78.89,3.41l-1.44-8.75c26.47-8.39,54.58-12.86,81.08-11.97,31.18,1.05,59.9,9.53,81.02,23.79l-7.81,17.86Z"/><ellipse class="cls-25" cx="781.28" cy="576.35" rx="96.43" ry="60.47"/><path class="cls-13" d="M848.04,583.42c-11.28-38.22-39.67-54.07-68.75-54.88-12.5-.35-25.12,2.11-36.47,6.74-18.52,7.56-33.69,20.87-39.65,37.07-.19.47.05,1,.52,1.18.47.18,1-.05,1.18-.52,6.28-15.34,21.31-27.53,39.32-34.21,10.96-4.07,23.01-6.07,34.92-5.48,26.93,1.33,53.07,16.22,62.97,51.8.47,1.64,2.19,2.6,3.83,2.12,1.64-.47,2.6-2.19,2.12-3.83Z"/><path class="cls-14" d="M861.51,600.78c-23.48,11.27-53.34,15.12-84.23,10.72-26.25-3.73-53.08-13.4-77.54-26.89l3.06-8.95c24.6,10.29,51.36,15.83,77.01,17.5,28.68,1.87,56-1.37,77.39-12.55l4.32,20.17Z"/><polygon class="cls-9" points="879.34 682.59 864.88 663.1 840.63 663.96 854.7 644.19 846.38 621.39 869.54 628.65 888.65 613.7 888.89 637.97 909.02 651.53 886.02 659.26 879.34 682.59"/><path class="cls-10" d="M652.59,35.78c299.2,0,542.11,242.91,542.11,542.11s-242.91,542.11-542.11,542.11S110.48,877.09,110.48,577.89,353.39,35.78,652.59,35.78ZM652.59,22.87c-154.04-2.28-294.43,58.49-396.84,158.18-103.45,100.7-167.77,241.21-169.67,396.84-1.24,156.8,61.44,299.36,163.62,402.89,102.68,104.04,245.32,168.39,402.89,169.21,158.11.62,301.56-63.13,405.65-166.46,104.37-103.61,169.04-247.11,169.58-405.65.5-158.92-63.7-303.05-167.61-407.62C956.05,65.46,811.88.5,652.59,0v22.87Z"/><path class="cls-5" d="M308.29,462.03c-2.3,9.33-6.02,16.06-11.16,20.18-7.33,5.68-19.2,8.75-35.61,9.21-59.62,1.57-96.68,2.74-111.15,3.52-15.08.79-24.14,4.07-27.17,9.84l-2.4,4.84-5.83-1.44,11.55-46.88,5.97,1.47.26,9.36c.26,3.84,2.28,6.27,6.05,7.28,2.28.56,5.49.79,9.64.68l33.65-.64,11.35-46.08c-23.92-12.73-36.67-19.37-38.24-19.92-4.17-1.03-7.67.93-10.5,5.86l-3.22,6.33-5.83-1.44,10.57-42.9,5.97,1.47-.15,6.72c-.06,5.94,6.94,12.85,20.99,20.74l83.13,46.54c15.3,8.52,24.58,13.31,27.83,14.4,3.25,1.08,5.13.6,5.64-1.45.6-2.43.64-4.85.13-7.27-.51-2.42-.69-3.93-.54-4.54.9-3.64,3.59-5.59,8.08-5.85,1.52-.03,3.03.14,4.55.52,5.08,1.81,7.23,4.96,6.43,9.43ZM275.32,478.29l-73.64-40.34-10.23,41.53,83.87-1.19Z"/><path class="cls-5" d="M316.92,580.16l-168.73,2.74c-8.79.14-14.2.47-16.25.97-3.89.92-6.78,3.27-8.68,7.05-.94,2.05-1.83,4.68-2.66,7.9l-5.42.09-.72-44.17,5.42-.09c.2.46.67,2.14,1.4,5.02,1.76,6.46,7.68,9.6,17.73,9.44l147.78-2.4c5.95-.1,9.66-.47,11.12-1.12,3.1-1.38,4.6-5.62,4.48-12.73l4.68-.66,9.83,27.97Z"/><path class="cls-5" d="M241.81,653.15l-87.95,14.93c-8.86,1.5-14.53,2.98-17,4.43-2.48,1.45-3.89,4.11-4.22,7.97l-.43,7.09-5.92,1-7.43-43.79,6.07-1.03,3.52,7.6c1.25,2.72,2.66,4.3,4.22,4.75,1.74.34,5.31.05,10.7-.87l64.99-11.03c6.64-1.13,10.65-2.04,12.01-2.75,3.19-1.65,4.14-6.25,2.86-13.8l4.81-1.41,13.78,26.9ZM294.92,623.81c3.37-.57,6.39-.15,9.05,1.26,2.67,1.41,4.23,3.46,4.69,6.16.44,2.62-.35,5.07-2.39,7.36-2.04,2.29-4.74,3.72-8.11,4.29-3.27.56-6.2.08-8.78-1.42-2.58-1.5-4.1-3.57-4.54-6.18-.46-2.7.29-5.14,2.25-7.33,1.95-2.2,4.57-3.57,7.84-4.12Z"/><path class="cls-5" d="M273.89,760.59l-7.36,2.9-111.4-13.76,14.58,36.96c2.18,5.52,8,7.26,17.48,5.2l6.07-1.77,2.24,5.67-29.84,11.39-28.03-71.08,8.72-3.44,111.58,16.21c-3.77-10.1-7.96-20.71-12.56-31.83-2.39-5.53-8.16-8.04-17.3-7.54-1.14.03-1.93.04-2.35.04l-1.93-4.91,24.26-9.57,25.84,65.52Z"/><path class="cls-5" d="M328.6,845.61l-6.46,4.56-111.5,12.97,22.9,32.46c3.42,4.85,9.49,5.16,18.22.92l5.48-3.15,3.51,4.98-26.3,18.12-44.04-62.44,7.66-5.4,112.25-10.63c-6.06-8.92-12.63-18.24-19.72-27.96-3.63-4.8-9.83-5.88-18.59-3.23-1.1.3-1.86.5-2.27.6l-3.04-4.31,21.31-15.03,40.6,57.55Z"/><path class="cls-5" d="M346.04,1006.14c-.44.27-1.63.79-3.58,1.55-1.95.77-4.17,1.43-6.67,1.99-2.49.56-5.01.81-7.54.76-2.53-.05-4.6-.77-6.19-2.15-2.31-1.99-3.6-4.26-3.87-6.82-.27-2.56.04-5.19.93-7.9.89-2.71,2.13-5.35,3.72-7.91,1.59-2.56,3.09-4.78,4.5-6.66-.8.09-2.65.68-5.56,1.78-2.91,1.1-6.32,2-10.22,2.7-3.9.7-8.03.79-12.37.26s-8.32-2.34-11.93-5.45c-1.78-1.53-3.37-3.42-4.78-5.67-1.41-2.25-2.27-4.76-2.56-7.53-.3-2.77.12-5.83,1.25-9.17,1.13-3.35,3.29-6.87,6.48-10.57,4.53-5.25,9.68-8.42,15.46-9.5,5.78-1.08,11.6-.83,17.46.74,5.86,1.57,10.92,3.39,15.18,5.45,4.26,2.06,9.29,4.56,15.11,7.51l15.97-18.53c1.4-1.63,3.13-3.72,5.17-6.27,2.05-2.55,3.76-5.26,5.15-8.13,1.39-2.87,2.1-5.73,2.15-8.59.04-2.86-1.24-5.42-3.84-7.66-3.2-2.75-6.48-4.23-9.86-4.44-3.38-.21-6.09-.09-8.12.35-2.03.44-4.93,1.17-8.69,2.18-2.27-1.44-3.8-2.86-4.61-4.26-.8-1.4-1.21-2.85-1.22-4.33,0-1.49.63-2.97,1.9-4.45,1.85-2.14,4.9-3.06,9.17-2.74,4.26.32,9.13,1.52,14.61,3.6,5.48,2.08,10.08,4.73,13.81,7.94,3.37,2.91,5.69,5.97,6.94,9.17,1.26,3.21,1.72,6.51,1.38,9.89-.34,3.38-1.32,6.79-2.94,10.23-1.62,3.44-3.61,6.85-5.96,10.24-2.35,3.39-4.92,6.72-7.69,10-2.78,3.28-5.47,6.44-8.08,9.47-4.85,5.62-9.62,11.05-14.33,16.27-4.71,5.22-8.78,10-12.2,14.33-3.43,4.33-5.87,8.09-7.33,11.28-1.46,3.19-1.33,5.52.38,7,2.19,1.89,6.57,1.28,13.16-1.81l.25,5.82ZM344.54,956.9c-5.56-3.24-10.52-5.78-14.88-7.6-4.36-1.82-8.26-2.74-11.71-2.75-3.45,0-6.6.6-9.45,1.81-2.85,1.22-5.59,3.34-8.2,6.37-6.38,7.4-6.96,13.34-1.75,17.83,1.89,1.63,4.58,2.46,8.06,2.5,3.48.03,7.11-.41,10.9-1.34,3.79-.92,7.45-2.12,10.98-3.59,3.53-1.47,6.27-2.85,8.21-4.14l7.84-9.1Z"/><path class="cls-5" d="M935.03,828.8c-4.86,6.12-9.99,7.08-15.39,2.88-4.05-3.22-5.58-7.03-4.58-11.43.42-1.46,1-2.75,1.75-3.85,2.58-3.24,6.08-4.67,10.52-4.29,4.44.38,7.34.5,8.71.34,1.37-.16,2.67-1,3.88-2.53l25.75-32.38,5.04,4.01-3.24,7.61c-1.14,2.69-1.31,4.67-.52,5.95.79,1.28,3.44,3.71,7.95,7.3l101.13,80.41c4.89,3.89,8.02,5.92,9.37,6.1,1.28.12,2.94-.56,4.98-2.03l6.68-4.87,5.04,4.01-28.3,35.59-4.82-3.83,2.85-6.41c1.79-3.97,1.71-7.33-.23-10.07-1.94-2.74-5.93-6.51-11.97-11.31l-91.5-72.75c-8.12-6.26-13.99-8.38-17.59-6.35-1.11.61-2.25,1.65-3.42,3.12l-12.12,14.77Z"/><path class="cls-5" d="M1086.58,815.59c-25.53-11.08-40.62-25.75-45.25-44.03-2.44-9.83-1.72-19.22,2.17-28.18,2.3-5.3,6.02-10.08,11.16-14.32l2.46-2-51.07-22.15c-6.18-2.68-10.04-4.1-11.57-4.25-3.57-.36-6.88,2.98-9.93,10l-4.8-1.44,3.14-30.06,168.79,73.22c6.09,2.64,10.21,1.49,12.36-3.45.16-.36.6-1.93,1.33-4.72.73-2.79,1.14-4.29,1.24-4.51l5.51,2.39-3.56,28.09-15.25-2.02c.03.18.23.7.61,1.54,4.82,11.71,5.5,21.55,2.05,29.5-7.18,16.56-20.64,24.39-40.37,23.49-9.58-.49-19.25-2.86-29.02-7.09ZM1085.87,798.81c18.64,8.08,33.54,10.42,44.71,7,7.16-2.26,12.21-6.73,15.16-13.42,2.95-6.68,2.96-13.13.01-19.35-1.4-2.91-3.4-6.16-5.99-9.75l-69.07-29.96c-4.92-.18-9.42,1.96-13.48,6.42-1.86,2.09-3.4,4.53-4.61,7.32-4.76,10.97-1.75,22.32,9.02,34.06,7.28,7.76,15.37,13.65,24.26,17.68Z"/><path class="cls-5" d="M1074.63,629.17c2.06-14.86,10.61-23.18,25.64-24.96,6.82-.79,13.31-.36,19.49,1.28l-7.71,55.6c6.83,1.97,13.24,3.37,19.23,4.21,20.41,2.83,35.02-.11,43.82-8.83,4.69-4.63,7.53-10.59,8.54-17.86,1.05-7.58-1.37-15.69-7.28-24.32l4.82-2.76,4.34,3.92c10.29,10.42,14.64,21.67,13.06,33.75-1,7.2-4.63,13.48-10.89,18.84-12.64,10.79-30.03,14.65-52.18,11.57-23.41-3.25-40.43-10.93-51.08-23.06-7.51-9.09-10.78-18.22-9.81-27.39ZM1102.78,658.63l5.47-39.47c-7.64-1.06-13.52-.46-17.63,1.81-4.11,2.27-6.47,5.57-7.07,9.9-.93,6.73.8,12.57,5.19,17.52,4.39,4.95,9.07,8.36,14.04,10.23Z"/><path class="cls-5" d="M1178.69,472.56c.5.1,1.73.54,3.68,1.31,1.95.77,4.02,1.81,6.23,3.1,2.2,1.3,4.21,2.83,6.02,4.6,1.81,1.77,2.83,3.7,3.05,5.8.33,3.03-.29,5.57-1.83,7.62-1.55,2.05-3.57,3.76-6.08,5.13-2.5,1.37-5.21,2.44-8.12,3.23-2.91.78-5.52,1.38-7.84,1.78.64.48,2.4,1.31,5.28,2.5,2.88,1.18,5.98,2.86,9.3,5.01,3.33,2.16,6.4,4.91,9.21,8.26s4.48,7.4,4.98,12.14c.25,2.33.12,4.8-.38,7.41-.51,2.61-1.6,5.02-3.27,7.25-1.68,2.22-4.07,4.17-7.18,5.84-3.11,1.67-7.09,2.76-11.95,3.29-6.89.74-12.82-.47-17.77-3.63-4.96-3.16-9.04-7.32-12.24-12.48-3.2-5.16-5.66-9.94-7.36-14.36-1.7-4.41-3.67-9.68-5.89-15.81l-24.32,2.61c-2.13.23-4.82.58-8.06,1.04-3.24.47-6.35,1.27-9.32,2.41s-5.45,2.75-7.44,4.81c-1.99,2.06-2.8,4.8-2.43,8.22.45,4.2,1.84,7.52,4.16,9.98,2.33,2.46,4.38,4.23,6.17,5.29,1.79,1.07,4.4,2.52,7.83,4.35.67,2.6.82,4.69.45,6.26-.37,1.57-1.06,2.9-2.08,3.99-1.01,1.09-2.49,1.74-4.43,1.95-2.82.3-5.67-1.12-8.56-4.27-2.89-3.15-5.62-7.35-8.2-12.61-2.58-5.26-4.13-10.34-4.65-15.24-.48-4.43-.07-8.24,1.2-11.44,1.28-3.2,3.2-5.92,5.75-8.16,2.56-2.24,5.61-4.06,9.14-5.46,3.53-1.4,7.32-2.53,11.35-3.4,4.03-.86,8.18-1.54,12.45-2.04,4.27-.5,8.39-.96,12.37-1.39,7.38-.79,14.57-1.48,21.58-2.08,7.01-.59,13.24-1.3,18.7-2.12,5.46-.82,9.81-1.9,13.06-3.23,3.25-1.33,4.75-3.12,4.51-5.38-.31-2.87-3.92-5.43-10.84-7.68l3.8-4.42ZM1146.12,509.53c1.84,6.17,3.73,11.41,5.66,15.72,1.94,4.31,4.16,7.65,6.67,10.01,2.51,2.36,5.22,4.08,8.14,5.14,2.91,1.06,6.36,1.38,10.34.95,9.71-1.04,14.2-4.98,13.46-11.82-.27-2.49-1.66-4.93-4.17-7.33-2.52-2.4-5.47-4.56-8.87-6.47-3.4-1.91-6.89-3.54-10.47-4.89-3.58-1.34-6.52-2.21-8.82-2.59l-11.94,1.28Z"/><path class="cls-5" d="M977.88,461.88l160.28-52.8c8.35-2.75,13.42-4.67,15.22-5.75,3.44-2.04,5.5-5.14,6.18-9.32.29-2.23.35-5.01.19-8.33l5.15-1.7,13.82,41.96-5.15,1.7c-.33-.38-1.27-1.84-2.83-4.37-3.6-5.64-10.18-6.89-19.74-3.74l-140.38,46.24c-5.66,1.86-9.08,3.32-10.28,4.37-2.55,2.24-2.72,6.74-.49,13.49l-4.27,2.02-17.7-23.78Z"/><path class="cls-7" d="M308.29,462.03c-2.3,9.33-6.02,16.06-11.16,20.18-7.33,5.68-19.2,8.75-35.61,9.21-59.62,1.57-96.68,2.74-111.15,3.52-15.08.79-24.14,4.07-27.17,9.84l-2.4,4.84-5.83-1.44,11.55-46.88,5.97,1.47.26,9.36c.26,3.84,2.28,6.27,6.05,7.28,2.28.56,5.49.79,9.64.68l33.65-.64,11.35-46.08c-23.92-12.73-36.67-19.37-38.24-19.92-4.17-1.03-7.67.93-10.5,5.86l-3.22,6.33-5.83-1.44,10.57-42.9,5.97,1.47-.15,6.72c-.06,5.94,6.94,12.85,20.99,20.74l83.13,46.54c15.3,8.52,24.58,13.31,27.83,14.4,3.25,1.08,5.13.6,5.64-1.45.6-2.43.64-4.85.13-7.27-.51-2.42-.69-3.93-.54-4.54.9-3.64,3.59-5.59,8.08-5.85,1.52-.03,3.03.14,4.55.52,5.08,1.81,7.23,4.96,6.43,9.43ZM275.32,478.29l-73.64-40.34-10.23,41.53,83.87-1.19Z"/><path class="cls-7" d="M316.92,580.16l-168.73,2.74c-8.79.14-14.2.47-16.25.97-3.89.92-6.78,3.27-8.68,7.05-.94,2.05-1.83,4.68-2.66,7.9l-5.42.09-.72-44.17,5.42-.09c.2.46.67,2.14,1.4,5.02,1.76,6.46,7.68,9.6,17.73,9.44l147.78-2.4c5.95-.1,9.66-.47,11.12-1.12,3.1-1.38,4.6-5.62,4.48-12.73l4.68-.66,9.83,27.97Z"/><path class="cls-7" d="M241.81,653.15l-87.95,14.93c-8.86,1.5-14.53,2.98-17,4.43-2.48,1.45-3.89,4.11-4.22,7.97l-.43,7.09-5.92,1-7.43-43.79,6.07-1.03,3.52,7.6c1.25,2.72,2.66,4.3,4.22,4.75,1.74.34,5.31.05,10.7-.87l64.99-11.03c6.64-1.13,10.65-2.04,12.01-2.75,3.19-1.65,4.14-6.25,2.86-13.8l4.81-1.41,13.78,26.9ZM294.92,623.81c3.37-.57,6.39-.15,9.05,1.26,2.67,1.41,4.23,3.46,4.69,6.16.44,2.62-.35,5.07-2.39,7.36-2.04,2.29-4.74,3.72-8.11,4.29-3.27.56-6.2.08-8.78-1.42-2.58-1.5-4.1-3.57-4.54-6.18-.46-2.7.29-5.14,2.25-7.33,1.95-2.2,4.57-3.57,7.84-4.12Z"/><path class="cls-7" d="M273.89,760.59l-7.36,2.9-111.4-13.76,14.58,36.96c2.18,5.52,8,7.26,17.48,5.2l6.07-1.77,2.24,5.67-29.84,11.39-28.03-71.08,8.72-3.44,111.58,16.21c-3.77-10.1-7.96-20.71-12.56-31.83-2.39-5.53-8.16-8.04-17.3-7.54-1.14.03-1.93.04-2.35.04l-1.93-4.91,24.26-9.57,25.84,65.52Z"/><path class="cls-7" d="M328.6,845.61l-6.46,4.56-111.5,12.97,22.9,32.46c3.42,4.85,9.49,5.16,18.22.92l5.48-3.15,3.51,4.98-26.3,18.12-44.04-62.44,7.66-5.4,112.25-10.63c-6.06-8.92-12.63-18.24-19.72-27.96-3.63-4.8-9.83-5.88-18.59-3.23-1.1.3-1.86.5-2.27.6l-3.04-4.31,21.31-15.03,40.6,57.55Z"/><path class="cls-7" d="M346.04,1006.14c-.44.27-1.63.79-3.58,1.55-1.95.77-4.17,1.43-6.67,1.99-2.49.56-5.01.81-7.54.76-2.53-.05-4.6-.77-6.19-2.15-2.31-1.99-3.6-4.26-3.87-6.82-.27-2.56.04-5.19.93-7.9.89-2.71,2.13-5.35,3.72-7.91,1.59-2.56,3.09-4.78,4.5-6.66-.8.09-2.65.68-5.56,1.78-2.91,1.1-6.32,2-10.22,2.7-3.9.7-8.03.79-12.37.26s-8.32-2.34-11.93-5.45c-1.78-1.53-3.37-3.42-4.78-5.67-1.41-2.25-2.27-4.76-2.56-7.53-.3-2.77.12-5.83,1.25-9.17,1.13-3.35,3.29-6.87,6.48-10.57,4.53-5.25,9.68-8.42,15.46-9.5,5.78-1.08,11.6-.83,17.46.74,5.86,1.57,10.92,3.39,15.18,5.45,4.26,2.06,9.29,4.56,15.11,7.51l15.97-18.53c1.4-1.63,3.13-3.72,5.17-6.27,2.05-2.55,3.76-5.26,5.15-8.13,1.39-2.87,2.1-5.73,2.15-8.59.04-2.86-1.24-5.42-3.84-7.66-3.2-2.75-6.48-4.23-9.86-4.44-3.38-.21-6.09-.09-8.12.35-2.03.44-4.93,1.17-8.69,2.18-2.27-1.44-3.8-2.86-4.61-4.26-.8-1.4-1.21-2.85-1.22-4.33,0-1.49.63-2.97,1.9-4.45,1.85-2.14,4.9-3.06,9.17-2.74,4.26.32,9.13,1.52,14.61,3.6,5.48,2.08,10.08,4.73,13.81,7.94,3.37,2.91,5.69,5.97,6.94,9.17,1.26,3.21,1.72,6.51,1.38,9.89-.34,3.38-1.32,6.79-2.94,10.23-1.62,3.44-3.61,6.85-5.96,10.24-2.35,3.39-4.92,6.72-7.69,10-2.78,3.28-5.47,6.44-8.08,9.47-4.85,5.62-9.62,11.05-14.33,16.27-4.71,5.22-8.78,10-12.2,14.33-3.43,4.33-5.87,8.09-7.33,11.28-1.46,3.19-1.33,5.52.38,7,2.19,1.89,6.57,1.28,13.16-1.81l.25,5.82ZM344.54,956.9c-5.56-3.24-10.52-5.78-14.88-7.6-4.36-1.82-8.26-2.74-11.71-2.75-3.45,0-6.6.6-9.45,1.81-2.85,1.22-5.59,3.34-8.2,6.37-6.38,7.4-6.96,13.34-1.75,17.83,1.89,1.63,4.58,2.46,8.06,2.5,3.48.03,7.11-.41,10.9-1.34,3.79-.92,7.45-2.12,10.98-3.59,3.53-1.47,6.27-2.85,8.21-4.14l7.84-9.1Z"/><path class="cls-7" d="M935.03,828.8c-4.86,6.12-9.99,7.08-15.39,2.88-4.05-3.22-5.58-7.03-4.58-11.43.42-1.46,1-2.75,1.75-3.85,2.58-3.24,6.08-4.67,10.52-4.29,4.44.38,7.34.5,8.71.34,1.37-.16,2.67-1,3.88-2.53l25.75-32.38,5.04,4.01-3.24,7.61c-1.14,2.69-1.31,4.67-.52,5.95.79,1.28,3.44,3.71,7.95,7.3l101.13,80.41c4.89,3.89,8.02,5.92,9.37,6.1,1.28.12,2.94-.56,4.98-2.03l6.68-4.87,5.04,4.01-28.3,35.59-4.82-3.83,2.85-6.41c1.79-3.97,1.71-7.33-.23-10.07-1.94-2.74-5.93-6.51-11.97-11.31l-91.5-72.75c-8.12-6.26-13.99-8.38-17.59-6.35-1.11.61-2.25,1.65-3.42,3.12l-12.12,14.77Z"/><path class="cls-7" d="M1086.58,815.59c-25.53-11.08-40.62-25.75-45.25-44.03-2.44-9.83-1.72-19.22,2.17-28.18,2.3-5.3,6.02-10.08,11.16-14.32l2.46-2-51.07-22.15c-6.18-2.68-10.04-4.1-11.57-4.25-3.57-.36-6.88,2.98-9.93,10l-4.8-1.44,3.14-30.06,168.79,73.22c6.09,2.64,10.21,1.49,12.36-3.45.16-.36.6-1.93,1.33-4.72.73-2.79,1.14-4.29,1.24-4.51l5.51,2.39-3.56,28.09-15.25-2.02c.03.18.23.7.61,1.54,4.82,11.71,5.5,21.55,2.05,29.5-7.18,16.56-20.64,24.39-40.37,23.49-9.58-.49-19.25-2.86-29.02-7.09ZM1085.87,798.81c18.64,8.08,33.54,10.42,44.71,7,7.16-2.26,12.21-6.73,15.16-13.42,2.95-6.68,2.96-13.13.01-19.35-1.4-2.91-3.4-6.16-5.99-9.75l-69.07-29.96c-4.92-.18-9.42,1.96-13.48,6.42-1.86,2.09-3.4,4.53-4.61,7.32-4.76,10.97-1.75,22.32,9.02,34.06,7.28,7.76,15.37,13.65,24.26,17.68Z"/><path class="cls-7" d="M1074.63,629.17c2.06-14.86,10.61-23.18,25.64-24.96,6.82-.79,13.31-.36,19.49,1.28l-7.71,55.6c6.83,1.97,13.24,3.37,19.23,4.21,20.41,2.83,35.02-.11,43.82-8.83,4.69-4.63,7.53-10.59,8.54-17.86,1.05-7.58-1.37-15.69-7.28-24.32l4.82-2.76,4.34,3.92c10.29,10.42,14.64,21.67,13.06,33.75-1,7.2-4.63,13.48-10.89,18.84-12.64,10.79-30.03,14.65-52.18,11.57-23.41-3.25-40.43-10.93-51.08-23.06-7.51-9.09-10.78-18.22-9.81-27.39ZM1102.78,658.63l5.47-39.47c-7.64-1.06-13.52-.46-17.63,1.81-4.11,2.27-6.47,5.57-7.07,9.9-.93,6.73.8,12.57,5.19,17.52,4.39,4.95,9.07,8.36,14.04,10.23Z"/><path class="cls-7" d="M1178.69,472.56c.5.1,1.73.54,3.68,1.31,1.95.77,4.02,1.81,6.23,3.1,2.2,1.3,4.21,2.83,6.02,4.6,1.81,1.77,2.83,3.7,3.05,5.8.33,3.03-.29,5.57-1.83,7.62-1.55,2.05-3.57,3.76-6.08,5.13-2.5,1.37-5.21,2.44-8.12,3.23-2.91.78-5.52,1.38-7.84,1.78.64.48,2.4,1.31,5.28,2.5,2.88,1.18,5.98,2.86,9.3,5.01,3.33,2.16,6.4,4.91,9.21,8.26s4.48,7.4,4.98,12.14c.25,2.33.12,4.8-.38,7.41-.51,2.61-1.6,5.02-3.27,7.25-1.68,2.22-4.07,4.17-7.18,5.84-3.11,1.67-7.09,2.76-11.95,3.29-6.89.74-12.82-.47-17.77-3.63-4.96-3.16-9.04-7.32-12.24-12.48-3.2-5.16-5.66-9.94-7.36-14.36-1.7-4.41-3.67-9.68-5.89-15.81l-24.32,2.61c-2.13.23-4.82.58-8.06,1.04-3.24.47-6.35,1.27-9.32,2.41s-5.45,2.75-7.44,4.81c-1.99,2.06-2.8,4.8-2.43,8.22.45,4.2,1.84,7.52,4.16,9.98,2.33,2.46,4.38,4.23,6.17,5.29,1.79,1.07,4.4,2.52,7.83,4.35.67,2.6.82,4.69.45,6.26-.37,1.57-1.06,2.9-2.08,3.99-1.01,1.09-2.49,1.74-4.43,1.95-2.82.3-5.67-1.12-8.56-4.27-2.89-3.15-5.62-7.35-8.2-12.61-2.58-5.26-4.13-10.34-4.65-15.24-.48-4.43-.07-8.24,1.2-11.44,1.28-3.2,3.2-5.92,5.75-8.16,2.56-2.24,5.61-4.06,9.14-5.46,3.53-1.4,7.32-2.53,11.35-3.4,4.03-.86,8.18-1.54,12.45-2.04,4.27-.5,8.39-.96,12.37-1.39,7.38-.79,14.57-1.48,21.58-2.08,7.01-.59,13.24-1.3,18.7-2.12,5.46-.82,9.81-1.9,13.06-3.23,3.25-1.33,4.75-3.12,4.51-5.38-.31-2.87-3.92-5.43-10.84-7.68l3.8-4.42ZM1146.12,509.53c1.84,6.17,3.73,11.41,5.66,15.72,1.94,4.31,4.16,7.65,6.67,10.01,2.51,2.36,5.22,4.08,8.14,5.14,2.91,1.06,6.36,1.38,10.34.95,9.71-1.04,14.2-4.98,13.46-11.82-.27-2.49-1.66-4.93-4.17-7.33-2.52-2.4-5.47-4.56-8.87-6.47-3.4-1.91-6.89-3.54-10.47-4.89-3.58-1.34-6.52-2.21-8.82-2.59l-11.94,1.28Z"/><path class="cls-7" d="M977.88,461.88l160.28-52.8c8.35-2.75,13.42-4.67,15.22-5.75,3.44-2.04,5.5-5.14,6.18-9.32.29-2.23.35-5.01.19-8.33l5.15-1.7,13.82,41.96-5.15,1.7c-.33-.38-1.27-1.84-2.83-4.37-3.6-5.64-10.18-6.89-19.74-3.74l-140.38,46.24c-5.66,1.86-9.08,3.32-10.28,4.37-2.55,2.24-2.72,6.74-.49,13.49l-4.27,2.02-17.7-23.78Z"/><path class="cls-25" d="M308.29,462.03c-2.3,9.33-6.02,16.06-11.16,20.18-7.33,5.68-19.2,8.75-35.61,9.21-59.62,1.57-96.68,2.74-111.15,3.52-15.08.79-24.14,4.07-27.17,9.84l-2.4,4.84-5.83-1.44,11.55-46.88,5.97,1.47.26,9.36c.26,3.84,2.28,6.27,6.05,7.28,2.28.56,5.49.79,9.64.68l33.65-.64,11.35-46.08c-23.92-12.73-36.67-19.37-38.24-19.92-4.17-1.03-7.67.93-10.5,5.86l-3.22,6.33-5.83-1.44,10.57-42.9,5.97,1.47-.15,6.72c-.06,5.94,6.94,12.85,20.99,20.74l83.13,46.54c15.3,8.52,24.58,13.31,27.83,14.4,3.25,1.08,5.13.6,5.64-1.45.6-2.43.64-4.85.13-7.27-.51-2.42-.69-3.93-.54-4.54.9-3.64,3.59-5.59,8.08-5.85,1.52-.03,3.03.14,4.55.52,5.08,1.81,7.23,4.96,6.43,9.43ZM275.32,478.29l-73.64-40.34-10.23,41.53,83.87-1.19Z"/><path class="cls-25" d="M316.92,580.16l-168.73,2.74c-8.79.14-14.2.47-16.25.97-3.89.92-6.78,3.27-8.68,7.05-.94,2.05-1.83,4.68-2.66,7.9l-5.42.09-.72-44.17,5.42-.09c.2.46.67,2.14,1.4,5.02,1.76,6.46,7.68,9.6,17.73,9.44l147.78-2.4c5.95-.1,9.66-.47,11.12-1.12,3.1-1.38,4.6-5.62,4.48-12.73l4.68-.66,9.83,27.97Z"/><path class="cls-25" d="M241.81,653.15l-87.95,14.93c-8.86,1.5-14.53,2.98-17,4.43-2.48,1.45-3.89,4.11-4.22,7.97l-.43,7.09-5.92,1-7.43-43.79,6.07-1.03,3.52,7.6c1.25,2.72,2.66,4.3,4.22,4.75,1.74.34,5.31.05,10.7-.87l64.99-11.03c6.64-1.13,10.65-2.04,12.01-2.75,3.19-1.65,4.14-6.25,2.86-13.8l4.81-1.41,13.78,26.9ZM294.92,623.81c3.37-.57,6.39-.15,9.05,1.26,2.67,1.41,4.23,3.46,4.69,6.16.44,2.62-.35,5.07-2.39,7.36-2.04,2.29-4.74,3.72-8.11,4.29-3.27.56-6.2.08-8.78-1.42-2.58-1.5-4.1-3.57-4.54-6.18-.46-2.7.29-5.14,2.25-7.33,1.95-2.2,4.57-3.57,7.84-4.12Z"/><path class="cls-25" d="M273.89,760.59l-7.36,2.9-111.4-13.76,14.58,36.96c2.18,5.52,8,7.26,17.48,5.2l6.07-1.77,2.24,5.67-29.84,11.39-28.03-71.08,8.72-3.44,111.58,16.21c-3.77-10.1-7.96-20.71-12.56-31.83-2.39-5.53-8.16-8.04-17.3-7.54-1.14.03-1.93.04-2.35.04l-1.93-4.91,24.26-9.57,25.84,65.52Z"/><path class="cls-25" d="M328.6,845.61l-6.46,4.56-111.5,12.97,22.9,32.46c3.42,4.85,9.49,5.16,18.22.92l5.48-3.15,3.51,4.98-26.3,18.12-44.04-62.44,7.66-5.4,112.25-10.63c-6.06-8.92-12.63-18.24-19.72-27.96-3.63-4.8-9.83-5.88-18.59-3.23-1.1.3-1.86.5-2.27.6l-3.04-4.31,21.31-15.03,40.6,57.55Z"/><path class="cls-25" d="M346.04,1006.14c-.44.27-1.63.79-3.58,1.55-1.95.77-4.17,1.43-6.67,1.99-2.49.56-5.01.81-7.54.76-2.53-.05-4.6-.77-6.19-2.15-2.31-1.99-3.6-4.26-3.87-6.82-.27-2.56.04-5.19.93-7.9.89-2.71,2.13-5.35,3.72-7.91,1.59-2.56,3.09-4.78,4.5-6.66-.8.09-2.65.68-5.56,1.78-2.91,1.1-6.32,2-10.22,2.7-3.9.7-8.03.79-12.37.26s-8.32-2.34-11.93-5.45c-1.78-1.53-3.37-3.42-4.78-5.67-1.41-2.25-2.27-4.76-2.56-7.53-.3-2.77.12-5.83,1.25-9.17,1.13-3.35,3.29-6.87,6.48-10.57,4.53-5.25,9.68-8.42,15.46-9.5,5.78-1.08,11.6-.83,17.46.74,5.86,1.57,10.92,3.39,15.18,5.45,4.26,2.06,9.29,4.56,15.11,7.51l15.97-18.53c1.4-1.63,3.13-3.72,5.17-6.27,2.05-2.55,3.76-5.26,5.15-8.13,1.39-2.87,2.1-5.73,2.15-8.59.04-2.86-1.24-5.42-3.84-7.66-3.2-2.75-6.48-4.23-9.86-4.44-3.38-.21-6.09-.09-8.12.35-2.03.44-4.93,1.17-8.69,2.18-2.27-1.44-3.8-2.86-4.61-4.26-.8-1.4-1.21-2.85-1.22-4.33,0-1.49.63-2.97,1.9-4.45,1.85-2.14,4.9-3.06,9.17-2.74,4.26.32,9.13,1.52,14.61,3.6,5.48,2.08,10.08,4.73,13.81,7.94,3.37,2.91,5.69,5.97,6.94,9.17,1.26,3.21,1.72,6.51,1.38,9.89-.34,3.38-1.32,6.79-2.94,10.23-1.62,3.44-3.61,6.85-5.96,10.24-2.35,3.39-4.92,6.72-7.69,10-2.78,3.28-5.47,6.44-8.08,9.47-4.85,5.62-9.62,11.05-14.33,16.27-4.71,5.22-8.78,10-12.2,14.33-3.43,4.33-5.87,8.09-7.33,11.28-1.46,3.19-1.33,5.52.38,7,2.19,1.89,6.57,1.28,13.16-1.81l.25,5.82ZM344.54,956.9c-5.56-3.24-10.52-5.78-14.88-7.6-4.36-1.82-8.26-2.74-11.71-2.75-3.45,0-6.6.6-9.45,1.81-2.85,1.22-5.59,3.34-8.2,6.37-6.38,7.4-6.96,13.34-1.75,17.83,1.89,1.63,4.58,2.46,8.06,2.5,3.48.03,7.11-.41,10.9-1.34,3.79-.92,7.45-2.12,10.98-3.59,3.53-1.47,6.27-2.85,8.21-4.14l7.84-9.1Z"/><path class="cls-25" d="M935.03,828.8c-4.86,6.12-9.99,7.08-15.39,2.88-4.05-3.22-5.58-7.03-4.58-11.43.42-1.46,1-2.75,1.75-3.85,2.58-3.24,6.08-4.67,10.52-4.29,4.44.38,7.34.5,8.71.34,1.37-.16,2.67-1,3.88-2.53l25.75-32.38,5.04,4.01-3.24,7.61c-1.14,2.69-1.31,4.67-.52,5.95.79,1.28,3.44,3.71,7.95,7.3l101.13,80.41c4.89,3.89,8.02,5.92,9.37,6.1,1.28.12,2.94-.56,4.98-2.03l6.68-4.87,5.04,4.01-28.3,35.59-4.82-3.83,2.85-6.41c1.79-3.97,1.71-7.33-.23-10.07-1.94-2.74-5.93-6.51-11.97-11.31l-91.5-72.75c-8.12-6.26-13.99-8.38-17.59-6.35-1.11.61-2.25,1.65-3.42,3.12l-12.12,14.77Z"/><path class="cls-25" d="M1086.58,815.59c-25.53-11.08-40.62-25.75-45.25-44.03-2.44-9.83-1.72-19.22,2.17-28.18,2.3-5.3,6.02-10.08,11.16-14.32l2.46-2-51.07-22.15c-6.18-2.68-10.04-4.1-11.57-4.25-3.57-.36-6.88,2.98-9.93,10l-4.8-1.44,3.14-30.06,168.79,73.22c6.09,2.64,10.21,1.49,12.36-3.45.16-.36.6-1.93,1.33-4.72.73-2.79,1.14-4.29,1.24-4.51l5.51,2.39-3.56,28.09-15.25-2.02c.03.18.23.7.61,1.54,4.82,11.71,5.5,21.55,2.05,29.5-7.18,16.56-20.64,24.39-40.37,23.49-9.58-.49-19.25-2.86-29.02-7.09ZM1085.87,798.81c18.64,8.08,33.54,10.42,44.71,7,7.16-2.26,12.21-6.73,15.16-13.42,2.95-6.68,2.96-13.13.01-19.35-1.4-2.91-3.4-6.16-5.99-9.75l-69.07-29.96c-4.92-.18-9.42,1.96-13.48,6.42-1.86,2.09-3.4,4.53-4.61,7.32-4.76,10.97-1.75,22.32,9.02,34.06,7.28,7.76,15.37,13.65,24.26,17.68Z"/><path class="cls-25" d="M1074.63,629.17c2.06-14.86,10.61-23.18,25.64-24.96,6.82-.79,13.31-.36,19.49,1.28l-7.71,55.6c6.83,1.97,13.24,3.37,19.23,4.21,20.41,2.83,35.02-.11,43.82-8.83,4.69-4.63,7.53-10.59,8.54-17.86,1.05-7.58-1.37-15.69-7.28-24.32l4.82-2.76,4.34,3.92c10.29,10.42,14.64,21.67,13.06,33.75-1,7.2-4.63,13.48-10.89,18.84-12.64,10.79-30.03,14.65-52.18,11.57-23.41-3.25-40.43-10.93-51.08-23.06-7.51-9.09-10.78-18.22-9.81-27.39ZM1102.78,658.63l5.47-39.47c-7.64-1.06-13.52-.46-17.63,1.81-4.11,2.27-6.47,5.57-7.07,9.9-.93,6.73.8,12.57,5.19,17.52,4.39,4.95,9.07,8.36,14.04,10.23Z"/><path class="cls-25" d="M1178.69,472.56c.5.1,1.73.54,3.68,1.31,1.95.77,4.02,1.81,6.23,3.1,2.2,1.3,4.21,2.83,6.02,4.6,1.81,1.77,2.83,3.7,3.05,5.8.33,3.03-.29,5.57-1.83,7.62-1.55,2.05-3.57,3.76-6.08,5.13-2.5,1.37-5.21,2.44-8.12,3.23-2.91.78-5.52,1.38-7.84,1.78.64.48,2.4,1.31,5.28,2.5,2.88,1.18,5.98,2.86,9.3,5.01,3.33,2.16,6.4,4.91,9.21,8.26s4.48,7.4,4.98,12.14c.25,2.33.12,4.8-.38,7.41-.51,2.61-1.6,5.02-3.27,7.25-1.68,2.22-4.07,4.17-7.18,5.84-3.11,1.67-7.09,2.76-11.95,3.29-6.89.74-12.82-.47-17.77-3.63-4.96-3.16-9.04-7.32-12.24-12.48-3.2-5.16-5.66-9.94-7.36-14.36-1.7-4.41-3.67-9.68-5.89-15.81l-24.32,2.61c-2.13.23-4.82.58-8.06,1.04-3.24.47-6.35,1.27-9.32,2.41s-5.45,2.75-7.44,4.81c-1.99,2.06-2.8,4.8-2.43,8.22.45,4.2,1.84,7.52,4.16,9.98,2.33,2.46,4.38,4.23,6.17,5.29,1.79,1.07,4.4,2.52,7.83,4.35.67,2.6.82,4.69.45,6.26-.37,1.57-1.06,2.9-2.08,3.99-1.01,1.09-2.49,1.74-4.43,1.95-2.82.3-5.67-1.12-8.56-4.27-2.89-3.15-5.62-7.35-8.2-12.61-2.58-5.26-4.13-10.34-4.65-15.24-.48-4.43-.07-8.24,1.2-11.44,1.28-3.2,3.2-5.92,5.75-8.16,2.56-2.24,5.61-4.06,9.14-5.46,3.53-1.4,7.32-2.53,11.35-3.4,4.03-.86,8.18-1.54,12.45-2.04,4.27-.5,8.39-.96,12.37-1.39,7.38-.79,14.57-1.48,21.58-2.08,7.01-.59,13.24-1.3,18.7-2.12,5.46-.82,9.81-1.9,13.06-3.23,3.25-1.33,4.75-3.12,4.51-5.38-.31-2.87-3.92-5.43-10.84-7.68l3.8-4.42ZM1146.12,509.53c1.84,6.17,3.73,11.41,5.66,15.72,1.94,4.31,4.16,7.65,6.67,10.01,2.51,2.36,5.22,4.08,8.14,5.14,2.91,1.06,6.36,1.38,10.34.95,9.71-1.04,14.2-4.98,13.46-11.82-.27-2.49-1.66-4.93-4.17-7.33-2.52-2.4-5.47-4.56-8.87-6.47-3.4-1.91-6.89-3.54-10.47-4.89-3.58-1.34-6.52-2.21-8.82-2.59l-11.94,1.28Z"/><path class="cls-25" d="M977.88,461.88l160.28-52.8c8.35-2.75,13.42-4.67,15.22-5.75,3.44-2.04,5.5-5.14,6.18-9.32.29-2.23.35-5.01.19-8.33l5.15-1.7,13.82,41.96-5.15,1.7c-.33-.38-1.27-1.84-2.83-4.37-3.6-5.64-10.18-6.89-19.74-3.74l-140.38,46.24c-5.66,1.86-9.08,3.32-10.28,4.37-2.55,2.24-2.72,6.74-.49,13.49l-4.27,2.02-17.7-23.78Z"/><path class="cls-21" d="M308.29,462.03c-2.3,9.33-6.02,16.06-11.16,20.18-7.33,5.68-19.2,8.75-35.61,9.21-59.62,1.57-96.68,2.74-111.15,3.52-15.08.79-24.14,4.07-27.17,9.84l-2.4,4.84-5.83-1.44,11.55-46.88,5.97,1.47.26,9.36c.26,3.84,2.28,6.27,6.05,7.28,2.28.56,5.49.79,9.64.68l33.65-.64,11.35-46.08c-23.92-12.73-36.67-19.37-38.24-19.92-4.17-1.03-7.67.93-10.5,5.86l-3.22,6.33-5.83-1.44,10.57-42.9,5.97,1.47-.15,6.72c-.06,5.94,6.94,12.85,20.99,20.74l83.13,46.54c15.3,8.52,24.58,13.31,27.83,14.4,3.25,1.08,5.13.6,5.64-1.45.6-2.43.64-4.85.13-7.27-.51-2.42-.69-3.93-.54-4.54.9-3.64,3.59-5.59,8.08-5.85,1.52-.03,3.03.14,4.55.52,5.08,1.81,7.23,4.96,6.43,9.43ZM275.32,478.29l-73.64-40.34-10.23,41.53,83.87-1.19Z"/><path class="cls-21" d="M316.92,580.16l-168.73,2.74c-8.79.14-14.2.47-16.25.97-3.89.92-6.78,3.27-8.68,7.05-.94,2.05-1.83,4.68-2.66,7.9l-5.42.09-.72-44.17,5.42-.09c.2.46.67,2.14,1.4,5.02,1.76,6.46,7.68,9.6,17.73,9.44l147.78-2.4c5.95-.1,9.66-.47,11.12-1.12,3.1-1.38,4.6-5.62,4.48-12.73l4.68-.66,9.83,27.97Z"/><path class="cls-21" d="M241.81,653.15l-87.95,14.93c-8.86,1.5-14.53,2.98-17,4.43-2.48,1.45-3.89,4.11-4.22,7.97l-.43,7.09-5.92,1-7.43-43.79,6.07-1.03,3.52,7.6c1.25,2.72,2.66,4.3,4.22,4.75,1.74.34,5.31.05,10.7-.87l64.99-11.03c6.64-1.13,10.65-2.04,12.01-2.75,3.19-1.65,4.14-6.25,2.86-13.8l4.81-1.41,13.78,26.9ZM294.92,623.81c3.37-.57,6.39-.15,9.05,1.26,2.67,1.41,4.23,3.46,4.69,6.16.44,2.62-.35,5.07-2.39,7.36-2.04,2.29-4.74,3.72-8.11,4.29-3.27.56-6.2.08-8.78-1.42-2.58-1.5-4.1-3.57-4.54-6.18-.46-2.7.29-5.14,2.25-7.33,1.95-2.2,4.57-3.57,7.84-4.12Z"/><path class="cls-21" d="M273.89,760.59l-7.36,2.9-111.4-13.76,14.58,36.96c2.18,5.52,8,7.26,17.48,5.2l6.07-1.77,2.24,5.67-29.84,11.39-28.03-71.08,8.72-3.44,111.58,16.21c-3.77-10.1-7.96-20.71-12.56-31.83-2.39-5.53-8.16-8.04-17.3-7.54-1.14.03-1.93.04-2.35.04l-1.93-4.91,24.26-9.57,25.84,65.52Z"/><path class="cls-21" d="M328.6,845.61l-6.46,4.56-111.5,12.97,22.9,32.46c3.42,4.85,9.49,5.16,18.22.92l5.48-3.15,3.51,4.98-26.3,18.12-44.04-62.44,7.66-5.4,112.25-10.63c-6.06-8.92-12.63-18.24-19.72-27.96-3.63-4.8-9.83-5.88-18.59-3.23-1.1.3-1.86.5-2.27.6l-3.04-4.31,21.31-15.03,40.6,57.55Z"/><path class="cls-21" d="M346.04,1006.14c-.44.27-1.63.79-3.58,1.55-1.95.77-4.17,1.43-6.67,1.99-2.49.56-5.01.81-7.54.76-2.53-.05-4.6-.77-6.19-2.15-2.31-1.99-3.6-4.26-3.87-6.82-.27-2.56.04-5.19.93-7.9.89-2.71,2.13-5.35,3.72-7.91,1.59-2.56,3.09-4.78,4.5-6.66-.8.09-2.65.68-5.56,1.78-2.91,1.1-6.32,2-10.22,2.7-3.9.7-8.03.79-12.37.26s-8.32-2.34-11.93-5.45c-1.78-1.53-3.37-3.42-4.78-5.67-1.41-2.25-2.27-4.76-2.56-7.53-.3-2.77.12-5.83,1.25-9.17,1.13-3.35,3.29-6.87,6.48-10.57,4.53-5.25,9.68-8.42,15.46-9.5,5.78-1.08,11.6-.83,17.46.74,5.86,1.57,10.92,3.39,15.18,5.45,4.26,2.06,9.29,4.56,15.11,7.51l15.97-18.53c1.4-1.63,3.13-3.72,5.17-6.27,2.05-2.55,3.76-5.26,5.15-8.13,1.39-2.87,2.1-5.73,2.15-8.59.04-2.86-1.24-5.42-3.84-7.66-3.2-2.75-6.48-4.23-9.86-4.44-3.38-.21-6.09-.09-8.12.35-2.03.44-4.93,1.17-8.69,2.18-2.27-1.44-3.8-2.86-4.61-4.26-.8-1.4-1.21-2.85-1.22-4.33,0-1.49.63-2.97,1.9-4.45,1.85-2.14,4.9-3.06,9.17-2.74,4.26.32,9.13,1.52,14.61,3.6,5.48,2.08,10.08,4.73,13.81,7.94,3.37,2.91,5.69,5.97,6.94,9.17,1.26,3.21,1.72,6.51,1.38,9.89-.34,3.38-1.32,6.79-2.94,10.23-1.62,3.44-3.61,6.85-5.96,10.24-2.35,3.39-4.92,6.72-7.69,10-2.78,3.28-5.47,6.44-8.08,9.47-4.85,5.62-9.62,11.05-14.33,16.27-4.71,5.22-8.78,10-12.2,14.33-3.43,4.33-5.87,8.09-7.33,11.28-1.46,3.19-1.33,5.52.38,7,2.19,1.89,6.57,1.28,13.16-1.81l.25,5.82ZM344.54,956.9c-5.56-3.24-10.52-5.78-14.88-7.6-4.36-1.82-8.26-2.74-11.71-2.75-3.45,0-6.6.6-9.45,1.81-2.85,1.22-5.59,3.34-8.2,6.37-6.38,7.4-6.96,13.34-1.75,17.83,1.89,1.63,4.58,2.46,8.06,2.5,3.48.03,7.11-.41,10.9-1.34,3.79-.92,7.45-2.12,10.98-3.59,3.53-1.47,6.27-2.85,8.21-4.14l7.84-9.1Z"/><path class="cls-21" d="M935.03,828.8c-4.86,6.12-9.99,7.08-15.39,2.88-4.05-3.22-5.58-7.03-4.58-11.43.42-1.46,1-2.75,1.75-3.85,2.58-3.24,6.08-4.67,10.52-4.29,4.44.38,7.34.5,8.71.34,1.37-.16,2.67-1,3.88-2.53l25.75-32.38,5.04,4.01-3.24,7.61c-1.14,2.69-1.31,4.67-.52,5.95.79,1.28,3.44,3.71,7.95,7.3l101.13,80.41c4.89,3.89,8.02,5.92,9.37,6.1,1.28.12,2.94-.56,4.98-2.03l6.68-4.87,5.04,4.01-28.3,35.59-4.82-3.83,2.85-6.41c1.79-3.97,1.71-7.33-.23-10.07-1.94-2.74-5.93-6.51-11.97-11.31l-91.5-72.75c-8.12-6.26-13.99-8.38-17.59-6.35-1.11.61-2.25,1.65-3.42,3.12l-12.12,14.77Z"/><path class="cls-21" d="M1086.58,815.59c-25.53-11.08-40.62-25.75-45.25-44.03-2.44-9.83-1.72-19.22,2.17-28.18,2.3-5.3,6.02-10.08,11.16-14.32l2.46-2-51.07-22.15c-6.18-2.68-10.04-4.1-11.57-4.25-3.57-.36-6.88,2.98-9.93,10l-4.8-1.44,3.14-30.06,168.79,73.22c6.09,2.64,10.21,1.49,12.36-3.45.16-.36.6-1.93,1.33-4.72.73-2.79,1.14-4.29,1.24-4.51l5.51,2.39-3.56,28.09-15.25-2.02c.03.18.23.7.61,1.54,4.82,11.71,5.5,21.55,2.05,29.5-7.18,16.56-20.64,24.39-40.37,23.49-9.58-.49-19.25-2.86-29.02-7.09ZM1085.87,798.81c18.64,8.08,33.54,10.42,44.71,7,7.16-2.26,12.21-6.73,15.16-13.42,2.95-6.68,2.96-13.13.01-19.35-1.4-2.91-3.4-6.16-5.99-9.75l-69.07-29.96c-4.92-.18-9.42,1.96-13.48,6.42-1.86,2.09-3.4,4.53-4.61,7.32-4.76,10.97-1.75,22.32,9.02,34.06,7.28,7.76,15.37,13.65,24.26,17.68Z"/><path class="cls-21" d="M1074.63,629.17c2.06-14.86,10.61-23.18,25.64-24.96,6.82-.79,13.31-.36,19.49,1.28l-7.71,55.6c6.83,1.97,13.24,3.37,19.23,4.21,20.41,2.83,35.02-.11,43.82-8.83,4.69-4.63,7.53-10.59,8.54-17.86,1.05-7.58-1.37-15.69-7.28-24.32l4.82-2.76,4.34,3.92c10.29,10.42,14.64,21.67,13.06,33.75-1,7.2-4.63,13.48-10.89,18.84-12.64,10.79-30.03,14.65-52.18,11.57-23.41-3.25-40.43-10.93-51.08-23.06-7.51-9.09-10.78-18.22-9.81-27.39ZM1102.78,658.63l5.47-39.47c-7.64-1.06-13.52-.46-17.63,1.81-4.11,2.27-6.47,5.57-7.07,9.9-.93,6.73.8,12.57,5.19,17.52,4.39,4.95,9.07,8.36,14.04,10.23Z"/><path class="cls-21" d="M1178.69,472.56c.5.1,1.73.54,3.68,1.31,1.95.77,4.02,1.81,6.23,3.1,2.2,1.3,4.21,2.83,6.02,4.6,1.81,1.77,2.83,3.7,3.05,5.8.33,3.03-.29,5.57-1.83,7.62-1.55,2.05-3.57,3.76-6.08,5.13-2.5,1.37-5.21,2.44-8.12,3.23-2.91.78-5.52,1.38-7.84,1.78.64.48,2.4,1.31,5.28,2.5,2.88,1.18,5.98,2.86,9.3,5.01,3.33,2.16,6.4,4.91,9.21,8.26s4.48,7.4,4.98,12.14c.25,2.33.12,4.8-.38,7.41-.51,2.61-1.6,5.02-3.27,7.25-1.68,2.22-4.07,4.17-7.18,5.84-3.11,1.67-7.09,2.76-11.95,3.29-6.89.74-12.82-.47-17.77-3.63-4.96-3.16-9.04-7.32-12.24-12.48-3.2-5.16-5.66-9.94-7.36-14.36-1.7-4.41-3.67-9.68-5.89-15.81l-24.32,2.61c-2.13.23-4.82.58-8.06,1.04-3.24.47-6.35,1.27-9.32,2.41s-5.45,2.75-7.44,4.81c-1.99,2.06-2.8,4.8-2.43,8.22.45,4.2,1.84,7.52,4.16,9.98,2.33,2.46,4.38,4.23,6.17,5.29,1.79,1.07,4.4,2.52,7.83,4.35.67,2.6.82,4.69.45,6.26-.37,1.57-1.06,2.9-2.08,3.99-1.01,1.09-2.49,1.74-4.43,1.95-2.82.3-5.67-1.12-8.56-4.27-2.89-3.15-5.62-7.35-8.2-12.61-2.58-5.26-4.13-10.34-4.65-15.24-.48-4.43-.07-8.24,1.2-11.44,1.28-3.2,3.2-5.92,5.75-8.16,2.56-2.24,5.61-4.06,9.14-5.46,3.53-1.4,7.32-2.53,11.35-3.4,4.03-.86,8.18-1.54,12.45-2.04,4.27-.5,8.39-.96,12.37-1.39,7.38-.79,14.57-1.48,21.58-2.08,7.01-.59,13.24-1.3,18.7-2.12,5.46-.82,9.81-1.9,13.06-3.23,3.25-1.33,4.75-3.12,4.51-5.38-.31-2.87-3.92-5.43-10.84-7.68l3.8-4.42ZM1146.12,509.53c1.84,6.17,3.73,11.41,5.66,15.72,1.94,4.31,4.16,7.65,6.67,10.01,2.51,2.36,5.22,4.08,8.14,5.14,2.91,1.06,6.36,1.38,10.34.95,9.71-1.04,14.2-4.98,13.46-11.82-.27-2.49-1.66-4.93-4.17-7.33-2.52-2.4-5.47-4.56-8.87-6.47-3.4-1.91-6.89-3.54-10.47-4.89-3.58-1.34-6.52-2.21-8.82-2.59l-11.94,1.28Z"/><path class="cls-21" d="M977.88,461.88l160.28-52.8c8.35-2.75,13.42-4.67,15.22-5.75,3.44-2.04,5.5-5.14,6.18-9.32.29-2.23.35-5.01.19-8.33l5.15-1.7,13.82,41.96-5.15,1.7c-.33-.38-1.27-1.84-2.83-4.37-3.6-5.64-10.18-6.89-19.74-3.74l-140.38,46.24c-5.66,1.86-9.08,3.32-10.28,4.37-2.55,2.24-2.72,6.74-.49,13.49l-4.27,2.02-17.7-23.78Z"/></g></svg>