<?xml version="1.0" encoding="UTF-8"?><svg id="Layer_1" xmlns="http://www.w3.org/2000/svg" viewBox="0 0 240 360"><defs><style>.cls-1{fill:#efebec;stroke-width:0px;}.cls-2{fill:none;stroke:#bb8330;stroke-miterlimit:10;stroke-width:1.86px;}</style></defs><rect class="cls-1" y="-.93" width="240" height="361.86" rx="11.35" ry="11.35"/><path class="cls-2" d="M223.3,47.85v264.3c-16.04,0-29.05,13-29.05,29.05H45.74c0-16.04-13-29.05-29.04-29.05V47.85c16.04,0,29.04-13,29.04-29.05h148.51c0,16.04,13,29.05,29.05,29.05Z"/><polyline class="cls-2" points="198.4 18.8 223.3 18.8 223.3 43.7"/><line class="cls-2" x1="205.32" y1="36.41" x2="222.93" y2="18.8"/><line class="cls-2" x1="199.49" y1="27.96" x2="222.49" y2="19.22"/><line class="cls-2" x1="212.92" y1="41.82" x2="222.93" y2="19.53"/><polyline class="cls-2" points="16.81 43.93 16.81 19.03 41.71 19.03"/><line class="cls-2" x1="34.41" y1="37.01" x2="16.81" y2="19.4"/><line class="cls-2" x1="25.96" y1="42.84" x2="17.22" y2="19.84"/><line class="cls-2" x1="39.83" y1="29.42" x2="17.54" y2="19.4"/><polyline class="cls-2" points="223.3 316.3 223.3 341.2 198.4 341.2"/><line class="cls-2" x1="205.69" y1="323.22" x2="223.3" y2="340.83"/><line class="cls-2" x1="214.14" y1="317.39" x2="222.88" y2="340.39"/><line class="cls-2" x1="200.28" y1="330.81" x2="222.57" y2="340.83"/><polyline class="cls-2" points="41.6 341.2 16.7 341.2 16.7 316.3"/><line class="cls-2" x1="34.68" y1="323.59" x2="17.07" y2="341.2"/><line class="cls-2" x1="40.51" y1="332.04" x2="17.51" y2="340.78"/><line class="cls-2" x1="27.08" y1="318.18" x2="17.07" y2="340.47"/><path class="cls-2" d="M114.17,168.38c-4.91.86-8.92,5.29-8.92,11.55,0,6.27,4.13,10.61,8.92,11.68"/><path class="cls-2" d="M162.14,179.97s-18.6,18.34-42.16,18.34-42.16-18.35-42.16-18.35c0,0,18.6-18.29,42.16-18.29s42.16,18.29,42.16,18.29Z"/><path class="cls-2" d="M150.51,179.97s-14.92,12.18-30.55,12.18-30.52-12.18-30.52-12.18c0,0,14.9-12.12,30.52-12.12s30.55,12.12,30.55,12.12Z"/><path class="cls-2" d="M125.83,168.38c4.91.86,8.92,5.29,8.92,11.55s-4.13,10.61-8.92,11.68"/><circle class="cls-2" cx="120" cy="180" r="42.97"/><circle class="cls-2" cx="120.07" cy="180" r="6.52"/><path class="cls-2" d="M128.87,109.32c-1.75,1.04-3.79,1.63-5.97,1.63-6.5,0-11.76-5.27-11.76-11.76s5.27-11.76,11.76-11.76c2.18,0,4.22.59,5.97,1.63-.49-.07-1-.11-1.51-.11-5.66,0-10.25,4.59-10.25,10.24s4.59,10.25,10.25,10.25c.51,0,1.02-.04,1.51-.11Z"/><line class="cls-2" x1="120.1" y1="265.45" x2="120.1" y2="269.75"/><line class="cls-2" x1="120" y1="237.83" x2="120" y2="242"/><line class="cls-2" x1="136.29" y1="253.72" x2="131.73" y2="253.72"/><line class="cls-2" x1="131.73" y1="242" x2="128.56" y2="245.16"/><line class="cls-2" x1="128.24" y1="261.96" x2="131.2" y2="264.92"/><line class="cls-2" x1="103.71" y1="253.72" x2="108.27" y2="253.72"/><line class="cls-2" x1="108.27" y1="242" x2="111.44" y2="245.16"/><line class="cls-2" x1="111.76" y1="261.96" x2="108.8" y2="264.92"/><circle class="cls-2" cx="120" cy="253.72" r="7.59"/><rect class="cls-2" x="61.89" y="62.75" width="116.23" height="234.5" rx="58.11" ry="58.11"/></svg>