<?xml version="1.0" encoding="UTF-8"?><svg id="Layer_1" xmlns="http://www.w3.org/2000/svg" viewBox="0 0 240 360"><defs><style>.cls-1{fill:#efebec;stroke:#fbb040;}.cls-1,.cls-2{stroke-miterlimit:10;}.cls-2{fill:none;stroke:#bb8330;stroke-width:1.8px;}</style></defs><rect class="cls-1" y="-.93" width="240" height="361.86" rx="11.35" ry="11.35"/><rect class="cls-2" x="21.73" y="23.91" width="196.54" height="312.17"/><circle class="cls-2" cx="22.14" cy="25.45" r="9.44"/><circle class="cls-2" cx="217.86" cy="25.45" r="9.44"/><circle class="cls-2" cx="22.14" cy="334.55" r="9.44"/><circle class="cls-2" cx="217.86" cy="334.55" r="9.44"/><path class="cls-2" d="M164.91,179.95s-21.95,17.66-44.93,17.66-44.89-17.66-44.89-17.66c0,0,21.91-17.57,44.89-17.57s44.93,17.57,44.93,17.57Z"/><circle class="cls-2" cx="119.66" cy="180" r="17.45"/><polygon class="cls-2" points="120 96.8 47.5 222.38 192.5 222.38 120 96.8"/><polygon class="cls-2" points="120 263.2 47.5 137.62 192.5 137.62 120 263.2"/><circle class="cls-2" cx="120.02" cy="180" r="64.48"/><circle class="cls-2" cx="120" cy="180" r="8.31"/></svg>