<?xml version="1.0" encoding="UTF-8"?><svg id="Layer_1" xmlns="http://www.w3.org/2000/svg" viewBox="0 0 240 360"><defs><style>.cls-1{fill:#efebec;stroke-width:0px;}.cls-2{fill:none;stroke:#bb8330;stroke-miterlimit:10;stroke-width:1.86px;}</style></defs><rect class="cls-1" y="-.93" width="240" height="361.86" rx="11.35" ry="11.35"/><path class="cls-2" d="M223.3,47.85v264.3c-16.04,0-29.05,13-29.05,29.05H45.74c0-16.04-13-29.05-29.04-29.05V47.85c16.04,0,29.04-13,29.04-29.05h148.51c0,16.04,13,29.05,29.05,29.05Z"/><polyline class="cls-2" points="198.4 18.8 223.3 18.8 223.3 43.7"/><line class="cls-2" x1="205.32" y1="36.41" x2="222.93" y2="18.8"/><line class="cls-2" x1="199.49" y1="27.96" x2="222.49" y2="19.22"/><line class="cls-2" x1="212.92" y1="41.82" x2="222.93" y2="19.53"/><polyline class="cls-2" points="16.81 43.93 16.81 19.03 41.71 19.03"/><line class="cls-2" x1="34.41" y1="37.01" x2="16.81" y2="19.4"/><line class="cls-2" x1="25.96" y1="42.84" x2="17.22" y2="19.84"/><line class="cls-2" x1="39.83" y1="29.42" x2="17.54" y2="19.4"/><polyline class="cls-2" points="223.3 316.3 223.3 341.2 198.4 341.2"/><line class="cls-2" x1="205.69" y1="323.22" x2="223.3" y2="340.83"/><line class="cls-2" x1="214.14" y1="317.39" x2="222.88" y2="340.39"/><line class="cls-2" x1="200.28" y1="330.81" x2="222.57" y2="340.83"/><polyline class="cls-2" points="41.6 341.2 16.7 341.2 16.7 316.3"/><line class="cls-2" x1="34.68" y1="323.59" x2="17.07" y2="341.2"/><line class="cls-2" x1="40.51" y1="332.04" x2="17.51" y2="340.78"/><line class="cls-2" x1="27.08" y1="318.18" x2="17.07" y2="340.47"/><path class="cls-2" d="M73.67,223.39c-.77-1.98-3.42-8.72-5.93-12.15,2.51-3.43,5.93-12.29,5.93-12.29,0,0,3.4,8.85,5.91,12.29-2.51,3.43-5.91,12.15-5.91,12.15Z"/><path class="cls-2" d="M166.34,224.03c-.77-1.98-3.42-8.72-5.93-12.15,2.51-3.43,5.93-12.29,5.93-12.29,0,0,3.4,8.85,5.91,12.29-2.51,3.43-5.91,12.15-5.91,12.15Z"/><line class="cls-2" x1="119.98" y1="76.91" x2="119.98" y2="126.28"/><line class="cls-2" x1="192.55" y1="137.61" x2="144.2" y2="137.61"/><line class="cls-2" x1="132.41" y1="129.97" x2="173.33" y2="86.95"/><line class="cls-2" x1="138.83" y1="132.92" x2="159.83" y2="123.56"/><line class="cls-2" x1="126.41" y1="128.11" x2="134.24" y2="105.14"/><line class="cls-2" x1="120.02" y1="76.91" x2="120.02" y2="127.65"/><line class="cls-2" x1="47.45" y1="137.61" x2="95.1" y2="137.61"/><line class="cls-2" x1="107.35" y1="129.71" x2="66.67" y2="86.95"/><line class="cls-2" x1="100.98" y1="132.84" x2="80.17" y2="123.56"/><line class="cls-2" x1="113.45" y1="127.68" x2="105.76" y2="105.14"/><line class="cls-2" x1="132.55" y1="145.35" x2="173.33" y2="188.22"/><line class="cls-2" x1="138.83" y1="142.25" x2="159.83" y2="151.61"/><line class="cls-2" x1="126.7" y1="147.91" x2="134.24" y2="170.03"/><line class="cls-2" x1="120.02" y1="169.41" x2="120.02" y2="148.89"/><line class="cls-2" x1="107.41" y1="145.39" x2="66.67" y2="188.22"/><line class="cls-2" x1="101.15" y1="142.25" x2="80.17" y2="151.61"/><line class="cls-2" x1="113.3" y1="147.93" x2="105.76" y2="170.03"/><polygon class="cls-2" points="189.82 283.09 120 168.8 50.18 283.09 189.82 283.09"/><path class="cls-2" d="M158.09,244.22s-16.82,16.58-38.11,16.58-38.11-16.58-38.11-16.58c0,0,16.82-16.53,38.11-16.53s38.11,16.53,38.11,16.53Z"/><path class="cls-2" d="M147.58,244.21s-13.49,11.01-27.62,11.01-27.59-11.01-27.59-11.01c0,0,13.47-10.95,27.59-10.95s27.62,10.96,27.62,10.96Z"/><path class="cls-2" d="M125.27,233.74c4.44.78,8.06,4.78,8.06,10.44s-3.74,9.6-8.06,10.56"/><path class="cls-2" d="M114.73,233.74c-4.44.78-8.06,4.78-8.06,10.44,0,5.66,3.74,9.6,8.06,10.56"/><circle class="cls-2" cx="120" cy="244.24" r="38.85"/><circle class="cls-2" cx="120.06" cy="244.24" r="5.89"/><path class="cls-2" d="M145.03,137.56s-12.2,9.96-24.97,9.96-24.95-9.96-24.95-9.96c0,0,12.18-9.91,24.95-9.91s24.97,9.91,24.97,9.91Z"/><path class="cls-2" d="M124.85,128.09c4.02.7,7.29,4.32,7.29,9.45s-3.38,8.68-7.29,9.55"/><path class="cls-2" d="M115.32,128.09c-4.02.7-7.29,4.32-7.29,9.45,0,5.12,3.38,8.68,7.29,9.55"/><circle class="cls-2" cx="120.13" cy="137.58" r="5.33"/></svg>